%TF.GenerationSoftware,KiCad,Pcbnew,10.0.6*%
%TF.CreationDate,2026-10-06T13:55:22-04:00*%
%TF.ProjectId,E103-RTL8812CU-Breakout-Board,45313033-2d52-4544-9c38-38313243552d,rev?*%
%TF.SameCoordinates,Original*%
%TF.FileFunction,Legend,Top*%
%TF.FilePolarity,Positive*%
%FSLAX46Y46*%
G04 Gerber Fmt 4.6, Leading zero omitted, Abs format (unit mm)*
G04 Created by KiCad (PCBNEW 10.0.6) date 2026-10-06 13:55:22*
%MOMM*%
%LPD*%
G01*
G04 APERTURE LIST*
%ADD10C,0.150000*%
%ADD11C,0.120000*%
G04 APERTURE END LIST*
D10*
X118414214Y-82000000D02*
G75*
G02*
X115585786Y-82000000I-1414214J0D01*
G01*
X115585786Y-82000000D02*
G75*
G02*
X118414214Y-82000000I1414214J0D01*
G01*
X132414214Y-82000000D02*
G75*
G02*
X129585786Y-82000000I-1414214J0D01*
G01*
X129585786Y-82000000D02*
G75*
G02*
X132414214Y-82000000I1414214J0D01*
G01*
X135908207Y-106369819D02*
X135574874Y-105893628D01*
X135336779Y-106369819D02*
X135336779Y-105369819D01*
X135336779Y-105369819D02*
X135717731Y-105369819D01*
X135717731Y-105369819D02*
X135812969Y-105417438D01*
X135812969Y-105417438D02*
X135860588Y-105465057D01*
X135860588Y-105465057D02*
X135908207Y-105560295D01*
X135908207Y-105560295D02*
X135908207Y-105703152D01*
X135908207Y-105703152D02*
X135860588Y-105798390D01*
X135860588Y-105798390D02*
X135812969Y-105846009D01*
X135812969Y-105846009D02*
X135717731Y-105893628D01*
X135717731Y-105893628D02*
X135336779Y-105893628D01*
X136336779Y-105846009D02*
X136670112Y-105846009D01*
X136812969Y-106369819D02*
X136336779Y-106369819D01*
X136336779Y-106369819D02*
X136336779Y-105369819D01*
X136336779Y-105369819D02*
X136812969Y-105369819D01*
X137193922Y-106322200D02*
X137336779Y-106369819D01*
X137336779Y-106369819D02*
X137574874Y-106369819D01*
X137574874Y-106369819D02*
X137670112Y-106322200D01*
X137670112Y-106322200D02*
X137717731Y-106274580D01*
X137717731Y-106274580D02*
X137765350Y-106179342D01*
X137765350Y-106179342D02*
X137765350Y-106084104D01*
X137765350Y-106084104D02*
X137717731Y-105988866D01*
X137717731Y-105988866D02*
X137670112Y-105941247D01*
X137670112Y-105941247D02*
X137574874Y-105893628D01*
X137574874Y-105893628D02*
X137384398Y-105846009D01*
X137384398Y-105846009D02*
X137289160Y-105798390D01*
X137289160Y-105798390D02*
X137241541Y-105750771D01*
X137241541Y-105750771D02*
X137193922Y-105655533D01*
X137193922Y-105655533D02*
X137193922Y-105560295D01*
X137193922Y-105560295D02*
X137241541Y-105465057D01*
X137241541Y-105465057D02*
X137289160Y-105417438D01*
X137289160Y-105417438D02*
X137384398Y-105369819D01*
X137384398Y-105369819D02*
X137622493Y-105369819D01*
X137622493Y-105369819D02*
X137765350Y-105417438D01*
X138193922Y-105846009D02*
X138527255Y-105846009D01*
X138670112Y-106369819D02*
X138193922Y-106369819D01*
X138193922Y-106369819D02*
X138193922Y-105369819D01*
X138193922Y-105369819D02*
X138670112Y-105369819D01*
X138955827Y-105369819D02*
X139527255Y-105369819D01*
X139241541Y-106369819D02*
X139241541Y-105369819D01*
X137536779Y-117988866D02*
X138298684Y-117988866D01*
X137917731Y-118369819D02*
X137917731Y-117607914D01*
X139251064Y-117369819D02*
X138774874Y-117369819D01*
X138774874Y-117369819D02*
X138727255Y-117846009D01*
X138727255Y-117846009D02*
X138774874Y-117798390D01*
X138774874Y-117798390D02*
X138870112Y-117750771D01*
X138870112Y-117750771D02*
X139108207Y-117750771D01*
X139108207Y-117750771D02*
X139203445Y-117798390D01*
X139203445Y-117798390D02*
X139251064Y-117846009D01*
X139251064Y-117846009D02*
X139298683Y-117941247D01*
X139298683Y-117941247D02*
X139298683Y-118179342D01*
X139298683Y-118179342D02*
X139251064Y-118274580D01*
X139251064Y-118274580D02*
X139203445Y-118322200D01*
X139203445Y-118322200D02*
X139108207Y-118369819D01*
X139108207Y-118369819D02*
X138870112Y-118369819D01*
X138870112Y-118369819D02*
X138774874Y-118322200D01*
X138774874Y-118322200D02*
X138727255Y-118274580D01*
X139584398Y-117369819D02*
X139917731Y-118369819D01*
X139917731Y-118369819D02*
X140251064Y-117369819D01*
X138260588Y-122917438D02*
X138165350Y-122869819D01*
X138165350Y-122869819D02*
X138022493Y-122869819D01*
X138022493Y-122869819D02*
X137879636Y-122917438D01*
X137879636Y-122917438D02*
X137784398Y-123012676D01*
X137784398Y-123012676D02*
X137736779Y-123107914D01*
X137736779Y-123107914D02*
X137689160Y-123298390D01*
X137689160Y-123298390D02*
X137689160Y-123441247D01*
X137689160Y-123441247D02*
X137736779Y-123631723D01*
X137736779Y-123631723D02*
X137784398Y-123726961D01*
X137784398Y-123726961D02*
X137879636Y-123822200D01*
X137879636Y-123822200D02*
X138022493Y-123869819D01*
X138022493Y-123869819D02*
X138117731Y-123869819D01*
X138117731Y-123869819D02*
X138260588Y-123822200D01*
X138260588Y-123822200D02*
X138308207Y-123774580D01*
X138308207Y-123774580D02*
X138308207Y-123441247D01*
X138308207Y-123441247D02*
X138117731Y-123441247D01*
X138736779Y-123869819D02*
X138736779Y-122869819D01*
X138736779Y-122869819D02*
X139308207Y-123869819D01*
X139308207Y-123869819D02*
X139308207Y-122869819D01*
X139784398Y-123869819D02*
X139784398Y-122869819D01*
X139784398Y-122869819D02*
X140022493Y-122869819D01*
X140022493Y-122869819D02*
X140165350Y-122917438D01*
X140165350Y-122917438D02*
X140260588Y-123012676D01*
X140260588Y-123012676D02*
X140308207Y-123107914D01*
X140308207Y-123107914D02*
X140355826Y-123298390D01*
X140355826Y-123298390D02*
X140355826Y-123441247D01*
X140355826Y-123441247D02*
X140308207Y-123631723D01*
X140308207Y-123631723D02*
X140260588Y-123726961D01*
X140260588Y-123726961D02*
X140165350Y-123822200D01*
X140165350Y-123822200D02*
X140022493Y-123869819D01*
X140022493Y-123869819D02*
X139784398Y-123869819D01*
X146241541Y-83169819D02*
X146860588Y-83169819D01*
X146860588Y-83169819D02*
X146527255Y-83550771D01*
X146527255Y-83550771D02*
X146670112Y-83550771D01*
X146670112Y-83550771D02*
X146765350Y-83598390D01*
X146765350Y-83598390D02*
X146812969Y-83646009D01*
X146812969Y-83646009D02*
X146860588Y-83741247D01*
X146860588Y-83741247D02*
X146860588Y-83979342D01*
X146860588Y-83979342D02*
X146812969Y-84074580D01*
X146812969Y-84074580D02*
X146765350Y-84122200D01*
X146765350Y-84122200D02*
X146670112Y-84169819D01*
X146670112Y-84169819D02*
X146384398Y-84169819D01*
X146384398Y-84169819D02*
X146289160Y-84122200D01*
X146289160Y-84122200D02*
X146241541Y-84074580D01*
X147289160Y-84074580D02*
X147336779Y-84122200D01*
X147336779Y-84122200D02*
X147289160Y-84169819D01*
X147289160Y-84169819D02*
X147241541Y-84122200D01*
X147241541Y-84122200D02*
X147289160Y-84074580D01*
X147289160Y-84074580D02*
X147289160Y-84169819D01*
X147670112Y-83169819D02*
X148289159Y-83169819D01*
X148289159Y-83169819D02*
X147955826Y-83550771D01*
X147955826Y-83550771D02*
X148098683Y-83550771D01*
X148098683Y-83550771D02*
X148193921Y-83598390D01*
X148193921Y-83598390D02*
X148241540Y-83646009D01*
X148241540Y-83646009D02*
X148289159Y-83741247D01*
X148289159Y-83741247D02*
X148289159Y-83979342D01*
X148289159Y-83979342D02*
X148241540Y-84074580D01*
X148241540Y-84074580D02*
X148193921Y-84122200D01*
X148193921Y-84122200D02*
X148098683Y-84169819D01*
X148098683Y-84169819D02*
X147812969Y-84169819D01*
X147812969Y-84169819D02*
X147717731Y-84122200D01*
X147717731Y-84122200D02*
X147670112Y-84074580D01*
X148574874Y-83169819D02*
X148908207Y-84169819D01*
X148908207Y-84169819D02*
X149241540Y-83169819D01*
X155860588Y-83217438D02*
X155765350Y-83169819D01*
X155765350Y-83169819D02*
X155622493Y-83169819D01*
X155622493Y-83169819D02*
X155479636Y-83217438D01*
X155479636Y-83217438D02*
X155384398Y-83312676D01*
X155384398Y-83312676D02*
X155336779Y-83407914D01*
X155336779Y-83407914D02*
X155289160Y-83598390D01*
X155289160Y-83598390D02*
X155289160Y-83741247D01*
X155289160Y-83741247D02*
X155336779Y-83931723D01*
X155336779Y-83931723D02*
X155384398Y-84026961D01*
X155384398Y-84026961D02*
X155479636Y-84122200D01*
X155479636Y-84122200D02*
X155622493Y-84169819D01*
X155622493Y-84169819D02*
X155717731Y-84169819D01*
X155717731Y-84169819D02*
X155860588Y-84122200D01*
X155860588Y-84122200D02*
X155908207Y-84074580D01*
X155908207Y-84074580D02*
X155908207Y-83741247D01*
X155908207Y-83741247D02*
X155717731Y-83741247D01*
X156336779Y-84169819D02*
X156336779Y-83169819D01*
X156336779Y-83169819D02*
X156908207Y-84169819D01*
X156908207Y-84169819D02*
X156908207Y-83169819D01*
X157384398Y-84169819D02*
X157384398Y-83169819D01*
X157384398Y-83169819D02*
X157622493Y-83169819D01*
X157622493Y-83169819D02*
X157765350Y-83217438D01*
X157765350Y-83217438D02*
X157860588Y-83312676D01*
X157860588Y-83312676D02*
X157908207Y-83407914D01*
X157908207Y-83407914D02*
X157955826Y-83598390D01*
X157955826Y-83598390D02*
X157955826Y-83741247D01*
X157955826Y-83741247D02*
X157908207Y-83931723D01*
X157908207Y-83931723D02*
X157860588Y-84026961D01*
X157860588Y-84026961D02*
X157765350Y-84122200D01*
X157765350Y-84122200D02*
X157622493Y-84169819D01*
X157622493Y-84169819D02*
X157384398Y-84169819D01*
X143869819Y-103987030D02*
X143869819Y-104463220D01*
X143869819Y-104463220D02*
X144346009Y-104510839D01*
X144346009Y-104510839D02*
X144298390Y-104463220D01*
X144298390Y-104463220D02*
X144250771Y-104367982D01*
X144250771Y-104367982D02*
X144250771Y-104129887D01*
X144250771Y-104129887D02*
X144298390Y-104034649D01*
X144298390Y-104034649D02*
X144346009Y-103987030D01*
X144346009Y-103987030D02*
X144441247Y-103939411D01*
X144441247Y-103939411D02*
X144679342Y-103939411D01*
X144679342Y-103939411D02*
X144774580Y-103987030D01*
X144774580Y-103987030D02*
X144822200Y-104034649D01*
X144822200Y-104034649D02*
X144869819Y-104129887D01*
X144869819Y-104129887D02*
X144869819Y-104367982D01*
X144869819Y-104367982D02*
X144822200Y-104463220D01*
X144822200Y-104463220D02*
X144774580Y-104510839D01*
X144488866Y-103510839D02*
X144488866Y-102748935D01*
X143869819Y-102367982D02*
X143869819Y-101748935D01*
X143869819Y-101748935D02*
X144250771Y-102082268D01*
X144250771Y-102082268D02*
X144250771Y-101939411D01*
X144250771Y-101939411D02*
X144298390Y-101844173D01*
X144298390Y-101844173D02*
X144346009Y-101796554D01*
X144346009Y-101796554D02*
X144441247Y-101748935D01*
X144441247Y-101748935D02*
X144679342Y-101748935D01*
X144679342Y-101748935D02*
X144774580Y-101796554D01*
X144774580Y-101796554D02*
X144822200Y-101844173D01*
X144822200Y-101844173D02*
X144869819Y-101939411D01*
X144869819Y-101939411D02*
X144869819Y-102225125D01*
X144869819Y-102225125D02*
X144822200Y-102320363D01*
X144822200Y-102320363D02*
X144774580Y-102367982D01*
X143869819Y-101129887D02*
X143869819Y-101034649D01*
X143869819Y-101034649D02*
X143917438Y-100939411D01*
X143917438Y-100939411D02*
X143965057Y-100891792D01*
X143965057Y-100891792D02*
X144060295Y-100844173D01*
X144060295Y-100844173D02*
X144250771Y-100796554D01*
X144250771Y-100796554D02*
X144488866Y-100796554D01*
X144488866Y-100796554D02*
X144679342Y-100844173D01*
X144679342Y-100844173D02*
X144774580Y-100891792D01*
X144774580Y-100891792D02*
X144822200Y-100939411D01*
X144822200Y-100939411D02*
X144869819Y-101034649D01*
X144869819Y-101034649D02*
X144869819Y-101129887D01*
X144869819Y-101129887D02*
X144822200Y-101225125D01*
X144822200Y-101225125D02*
X144774580Y-101272744D01*
X144774580Y-101272744D02*
X144679342Y-101320363D01*
X144679342Y-101320363D02*
X144488866Y-101367982D01*
X144488866Y-101367982D02*
X144250771Y-101367982D01*
X144250771Y-101367982D02*
X144060295Y-101320363D01*
X144060295Y-101320363D02*
X143965057Y-101272744D01*
X143965057Y-101272744D02*
X143917438Y-101225125D01*
X143917438Y-101225125D02*
X143869819Y-101129887D01*
X143869819Y-100510839D02*
X144869819Y-100177506D01*
X144869819Y-100177506D02*
X143869819Y-99844173D01*
X144488866Y-98748934D02*
X144488866Y-97987030D01*
X144679342Y-98177506D02*
X144488866Y-97987030D01*
X144488866Y-97987030D02*
X144298390Y-98177506D01*
X143869819Y-96844172D02*
X143869819Y-96225125D01*
X143869819Y-96225125D02*
X144250771Y-96558458D01*
X144250771Y-96558458D02*
X144250771Y-96415601D01*
X144250771Y-96415601D02*
X144298390Y-96320363D01*
X144298390Y-96320363D02*
X144346009Y-96272744D01*
X144346009Y-96272744D02*
X144441247Y-96225125D01*
X144441247Y-96225125D02*
X144679342Y-96225125D01*
X144679342Y-96225125D02*
X144774580Y-96272744D01*
X144774580Y-96272744D02*
X144822200Y-96320363D01*
X144822200Y-96320363D02*
X144869819Y-96415601D01*
X144869819Y-96415601D02*
X144869819Y-96701315D01*
X144869819Y-96701315D02*
X144822200Y-96796553D01*
X144822200Y-96796553D02*
X144774580Y-96844172D01*
X144774580Y-95796553D02*
X144822200Y-95748934D01*
X144822200Y-95748934D02*
X144869819Y-95796553D01*
X144869819Y-95796553D02*
X144822200Y-95844172D01*
X144822200Y-95844172D02*
X144774580Y-95796553D01*
X144774580Y-95796553D02*
X144869819Y-95796553D01*
X143869819Y-95415601D02*
X143869819Y-94796554D01*
X143869819Y-94796554D02*
X144250771Y-95129887D01*
X144250771Y-95129887D02*
X144250771Y-94987030D01*
X144250771Y-94987030D02*
X144298390Y-94891792D01*
X144298390Y-94891792D02*
X144346009Y-94844173D01*
X144346009Y-94844173D02*
X144441247Y-94796554D01*
X144441247Y-94796554D02*
X144679342Y-94796554D01*
X144679342Y-94796554D02*
X144774580Y-94844173D01*
X144774580Y-94844173D02*
X144822200Y-94891792D01*
X144822200Y-94891792D02*
X144869819Y-94987030D01*
X144869819Y-94987030D02*
X144869819Y-95272744D01*
X144869819Y-95272744D02*
X144822200Y-95367982D01*
X144822200Y-95367982D02*
X144774580Y-95415601D01*
X143869819Y-94510839D02*
X144869819Y-94177506D01*
X144869819Y-94177506D02*
X143869819Y-93844173D01*
X121308628Y-123544173D02*
X119808628Y-123544173D01*
X119808628Y-123544173D02*
X119808628Y-123187030D01*
X119808628Y-123187030D02*
X119880057Y-122972744D01*
X119880057Y-122972744D02*
X120022914Y-122829887D01*
X120022914Y-122829887D02*
X120165771Y-122758458D01*
X120165771Y-122758458D02*
X120451485Y-122687030D01*
X120451485Y-122687030D02*
X120665771Y-122687030D01*
X120665771Y-122687030D02*
X120951485Y-122758458D01*
X120951485Y-122758458D02*
X121094342Y-122829887D01*
X121094342Y-122829887D02*
X121237200Y-122972744D01*
X121237200Y-122972744D02*
X121308628Y-123187030D01*
X121308628Y-123187030D02*
X121308628Y-123544173D01*
X120880057Y-122115601D02*
X120880057Y-121401316D01*
X121308628Y-122258458D02*
X119808628Y-121758458D01*
X119808628Y-121758458D02*
X121308628Y-121258458D01*
X119808628Y-120972744D02*
X119808628Y-120115602D01*
X121308628Y-120544173D02*
X119808628Y-120544173D01*
X120880057Y-119687030D02*
X120880057Y-118972745D01*
X121308628Y-119829887D02*
X119808628Y-119329887D01*
X119808628Y-119329887D02*
X121308628Y-118829887D01*
X132454819Y-121333333D02*
X133169104Y-121333333D01*
X133169104Y-121333333D02*
X133311961Y-121380952D01*
X133311961Y-121380952D02*
X133407200Y-121476190D01*
X133407200Y-121476190D02*
X133454819Y-121619047D01*
X133454819Y-121619047D02*
X133454819Y-121714285D01*
X132550057Y-120904761D02*
X132502438Y-120857142D01*
X132502438Y-120857142D02*
X132454819Y-120761904D01*
X132454819Y-120761904D02*
X132454819Y-120523809D01*
X132454819Y-120523809D02*
X132502438Y-120428571D01*
X132502438Y-120428571D02*
X132550057Y-120380952D01*
X132550057Y-120380952D02*
X132645295Y-120333333D01*
X132645295Y-120333333D02*
X132740533Y-120333333D01*
X132740533Y-120333333D02*
X132883390Y-120380952D01*
X132883390Y-120380952D02*
X133454819Y-120952380D01*
X133454819Y-120952380D02*
X133454819Y-120333333D01*
X139454819Y-109761904D02*
X139454819Y-109190476D01*
X140454819Y-109476190D02*
X139454819Y-109476190D01*
X140454819Y-108857142D02*
X139454819Y-108857142D01*
X139454819Y-108857142D02*
X139454819Y-108476190D01*
X139454819Y-108476190D02*
X139502438Y-108380952D01*
X139502438Y-108380952D02*
X139550057Y-108333333D01*
X139550057Y-108333333D02*
X139645295Y-108285714D01*
X139645295Y-108285714D02*
X139788152Y-108285714D01*
X139788152Y-108285714D02*
X139883390Y-108333333D01*
X139883390Y-108333333D02*
X139931009Y-108380952D01*
X139931009Y-108380952D02*
X139978628Y-108476190D01*
X139978628Y-108476190D02*
X139978628Y-108857142D01*
X139454819Y-107952380D02*
X139454819Y-107285714D01*
X139454819Y-107285714D02*
X140454819Y-107714285D01*
X131124819Y-114566666D02*
X130648628Y-114899999D01*
X131124819Y-115138094D02*
X130124819Y-115138094D01*
X130124819Y-115138094D02*
X130124819Y-114757142D01*
X130124819Y-114757142D02*
X130172438Y-114661904D01*
X130172438Y-114661904D02*
X130220057Y-114614285D01*
X130220057Y-114614285D02*
X130315295Y-114566666D01*
X130315295Y-114566666D02*
X130458152Y-114566666D01*
X130458152Y-114566666D02*
X130553390Y-114614285D01*
X130553390Y-114614285D02*
X130601009Y-114661904D01*
X130601009Y-114661904D02*
X130648628Y-114757142D01*
X130648628Y-114757142D02*
X130648628Y-115138094D01*
X130458152Y-113709523D02*
X131124819Y-113709523D01*
X130077200Y-113947618D02*
X130791485Y-114185713D01*
X130791485Y-114185713D02*
X130791485Y-113566666D01*
X121201124Y-114782088D02*
X120867791Y-114305897D01*
X120629696Y-114782088D02*
X120629696Y-113782088D01*
X120629696Y-113782088D02*
X121010648Y-113782088D01*
X121010648Y-113782088D02*
X121105886Y-113829707D01*
X121105886Y-113829707D02*
X121153505Y-113877326D01*
X121153505Y-113877326D02*
X121201124Y-113972564D01*
X121201124Y-113972564D02*
X121201124Y-114115421D01*
X121201124Y-114115421D02*
X121153505Y-114210659D01*
X121153505Y-114210659D02*
X121105886Y-114258278D01*
X121105886Y-114258278D02*
X121010648Y-114305897D01*
X121010648Y-114305897D02*
X120629696Y-114305897D01*
X121582077Y-113877326D02*
X121629696Y-113829707D01*
X121629696Y-113829707D02*
X121724934Y-113782088D01*
X121724934Y-113782088D02*
X121963029Y-113782088D01*
X121963029Y-113782088D02*
X122058267Y-113829707D01*
X122058267Y-113829707D02*
X122105886Y-113877326D01*
X122105886Y-113877326D02*
X122153505Y-113972564D01*
X122153505Y-113972564D02*
X122153505Y-114067802D01*
X122153505Y-114067802D02*
X122105886Y-114210659D01*
X122105886Y-114210659D02*
X121534458Y-114782088D01*
X121534458Y-114782088D02*
X122153505Y-114782088D01*
X151833333Y-88339580D02*
X151785714Y-88387200D01*
X151785714Y-88387200D02*
X151642857Y-88434819D01*
X151642857Y-88434819D02*
X151547619Y-88434819D01*
X151547619Y-88434819D02*
X151404762Y-88387200D01*
X151404762Y-88387200D02*
X151309524Y-88291961D01*
X151309524Y-88291961D02*
X151261905Y-88196723D01*
X151261905Y-88196723D02*
X151214286Y-88006247D01*
X151214286Y-88006247D02*
X151214286Y-87863390D01*
X151214286Y-87863390D02*
X151261905Y-87672914D01*
X151261905Y-87672914D02*
X151309524Y-87577676D01*
X151309524Y-87577676D02*
X151404762Y-87482438D01*
X151404762Y-87482438D02*
X151547619Y-87434819D01*
X151547619Y-87434819D02*
X151642857Y-87434819D01*
X151642857Y-87434819D02*
X151785714Y-87482438D01*
X151785714Y-87482438D02*
X151833333Y-87530057D01*
X152214286Y-87530057D02*
X152261905Y-87482438D01*
X152261905Y-87482438D02*
X152357143Y-87434819D01*
X152357143Y-87434819D02*
X152595238Y-87434819D01*
X152595238Y-87434819D02*
X152690476Y-87482438D01*
X152690476Y-87482438D02*
X152738095Y-87530057D01*
X152738095Y-87530057D02*
X152785714Y-87625295D01*
X152785714Y-87625295D02*
X152785714Y-87720533D01*
X152785714Y-87720533D02*
X152738095Y-87863390D01*
X152738095Y-87863390D02*
X152166667Y-88434819D01*
X152166667Y-88434819D02*
X152785714Y-88434819D01*
X126624819Y-114166666D02*
X126148628Y-114499999D01*
X126624819Y-114738094D02*
X125624819Y-114738094D01*
X125624819Y-114738094D02*
X125624819Y-114357142D01*
X125624819Y-114357142D02*
X125672438Y-114261904D01*
X125672438Y-114261904D02*
X125720057Y-114214285D01*
X125720057Y-114214285D02*
X125815295Y-114166666D01*
X125815295Y-114166666D02*
X125958152Y-114166666D01*
X125958152Y-114166666D02*
X126053390Y-114214285D01*
X126053390Y-114214285D02*
X126101009Y-114261904D01*
X126101009Y-114261904D02*
X126148628Y-114357142D01*
X126148628Y-114357142D02*
X126148628Y-114738094D01*
X125624819Y-113833332D02*
X125624819Y-113214285D01*
X125624819Y-113214285D02*
X126005771Y-113547618D01*
X126005771Y-113547618D02*
X126005771Y-113404761D01*
X126005771Y-113404761D02*
X126053390Y-113309523D01*
X126053390Y-113309523D02*
X126101009Y-113261904D01*
X126101009Y-113261904D02*
X126196247Y-113214285D01*
X126196247Y-113214285D02*
X126434342Y-113214285D01*
X126434342Y-113214285D02*
X126529580Y-113261904D01*
X126529580Y-113261904D02*
X126577200Y-113309523D01*
X126577200Y-113309523D02*
X126624819Y-113404761D01*
X126624819Y-113404761D02*
X126624819Y-113690475D01*
X126624819Y-113690475D02*
X126577200Y-113785713D01*
X126577200Y-113785713D02*
X126529580Y-113833332D01*
X133759932Y-115116407D02*
X133712313Y-115164027D01*
X133712313Y-115164027D02*
X133569456Y-115211646D01*
X133569456Y-115211646D02*
X133474218Y-115211646D01*
X133474218Y-115211646D02*
X133331361Y-115164027D01*
X133331361Y-115164027D02*
X133236123Y-115068788D01*
X133236123Y-115068788D02*
X133188504Y-114973550D01*
X133188504Y-114973550D02*
X133140885Y-114783074D01*
X133140885Y-114783074D02*
X133140885Y-114640217D01*
X133140885Y-114640217D02*
X133188504Y-114449741D01*
X133188504Y-114449741D02*
X133236123Y-114354503D01*
X133236123Y-114354503D02*
X133331361Y-114259265D01*
X133331361Y-114259265D02*
X133474218Y-114211646D01*
X133474218Y-114211646D02*
X133569456Y-114211646D01*
X133569456Y-114211646D02*
X133712313Y-114259265D01*
X133712313Y-114259265D02*
X133759932Y-114306884D01*
X134093266Y-114211646D02*
X134712313Y-114211646D01*
X134712313Y-114211646D02*
X134378980Y-114592598D01*
X134378980Y-114592598D02*
X134521837Y-114592598D01*
X134521837Y-114592598D02*
X134617075Y-114640217D01*
X134617075Y-114640217D02*
X134664694Y-114687836D01*
X134664694Y-114687836D02*
X134712313Y-114783074D01*
X134712313Y-114783074D02*
X134712313Y-115021169D01*
X134712313Y-115021169D02*
X134664694Y-115116407D01*
X134664694Y-115116407D02*
X134617075Y-115164027D01*
X134617075Y-115164027D02*
X134521837Y-115211646D01*
X134521837Y-115211646D02*
X134236123Y-115211646D01*
X134236123Y-115211646D02*
X134140885Y-115164027D01*
X134140885Y-115164027D02*
X134093266Y-115116407D01*
X158454819Y-87561904D02*
X158454819Y-86990476D01*
X159454819Y-87276190D02*
X158454819Y-87276190D01*
X159454819Y-86657142D02*
X158454819Y-86657142D01*
X158454819Y-86657142D02*
X158454819Y-86276190D01*
X158454819Y-86276190D02*
X158502438Y-86180952D01*
X158502438Y-86180952D02*
X158550057Y-86133333D01*
X158550057Y-86133333D02*
X158645295Y-86085714D01*
X158645295Y-86085714D02*
X158788152Y-86085714D01*
X158788152Y-86085714D02*
X158883390Y-86133333D01*
X158883390Y-86133333D02*
X158931009Y-86180952D01*
X158931009Y-86180952D02*
X158978628Y-86276190D01*
X158978628Y-86276190D02*
X158978628Y-86657142D01*
X158454819Y-85228571D02*
X158454819Y-85419047D01*
X158454819Y-85419047D02*
X158502438Y-85514285D01*
X158502438Y-85514285D02*
X158550057Y-85561904D01*
X158550057Y-85561904D02*
X158692914Y-85657142D01*
X158692914Y-85657142D02*
X158883390Y-85704761D01*
X158883390Y-85704761D02*
X159264342Y-85704761D01*
X159264342Y-85704761D02*
X159359580Y-85657142D01*
X159359580Y-85657142D02*
X159407200Y-85609523D01*
X159407200Y-85609523D02*
X159454819Y-85514285D01*
X159454819Y-85514285D02*
X159454819Y-85323809D01*
X159454819Y-85323809D02*
X159407200Y-85228571D01*
X159407200Y-85228571D02*
X159359580Y-85180952D01*
X159359580Y-85180952D02*
X159264342Y-85133333D01*
X159264342Y-85133333D02*
X159026247Y-85133333D01*
X159026247Y-85133333D02*
X158931009Y-85180952D01*
X158931009Y-85180952D02*
X158883390Y-85228571D01*
X158883390Y-85228571D02*
X158835771Y-85323809D01*
X158835771Y-85323809D02*
X158835771Y-85514285D01*
X158835771Y-85514285D02*
X158883390Y-85609523D01*
X158883390Y-85609523D02*
X158931009Y-85657142D01*
X158931009Y-85657142D02*
X159026247Y-85704761D01*
X151259046Y-90398673D02*
X151259046Y-91208196D01*
X151259046Y-91208196D02*
X151306665Y-91303434D01*
X151306665Y-91303434D02*
X151354284Y-91351054D01*
X151354284Y-91351054D02*
X151449522Y-91398673D01*
X151449522Y-91398673D02*
X151639998Y-91398673D01*
X151639998Y-91398673D02*
X151735236Y-91351054D01*
X151735236Y-91351054D02*
X151782855Y-91303434D01*
X151782855Y-91303434D02*
X151830474Y-91208196D01*
X151830474Y-91208196D02*
X151830474Y-90398673D01*
X152830474Y-91398673D02*
X152259046Y-91398673D01*
X152544760Y-91398673D02*
X152544760Y-90398673D01*
X152544760Y-90398673D02*
X152449522Y-90541530D01*
X152449522Y-90541530D02*
X152354284Y-90636768D01*
X152354284Y-90636768D02*
X152259046Y-90684387D01*
X138333333Y-92859580D02*
X138285714Y-92907200D01*
X138285714Y-92907200D02*
X138142857Y-92954819D01*
X138142857Y-92954819D02*
X138047619Y-92954819D01*
X138047619Y-92954819D02*
X137904762Y-92907200D01*
X137904762Y-92907200D02*
X137809524Y-92811961D01*
X137809524Y-92811961D02*
X137761905Y-92716723D01*
X137761905Y-92716723D02*
X137714286Y-92526247D01*
X137714286Y-92526247D02*
X137714286Y-92383390D01*
X137714286Y-92383390D02*
X137761905Y-92192914D01*
X137761905Y-92192914D02*
X137809524Y-92097676D01*
X137809524Y-92097676D02*
X137904762Y-92002438D01*
X137904762Y-92002438D02*
X138047619Y-91954819D01*
X138047619Y-91954819D02*
X138142857Y-91954819D01*
X138142857Y-91954819D02*
X138285714Y-92002438D01*
X138285714Y-92002438D02*
X138333333Y-92050057D01*
X139238095Y-91954819D02*
X138761905Y-91954819D01*
X138761905Y-91954819D02*
X138714286Y-92431009D01*
X138714286Y-92431009D02*
X138761905Y-92383390D01*
X138761905Y-92383390D02*
X138857143Y-92335771D01*
X138857143Y-92335771D02*
X139095238Y-92335771D01*
X139095238Y-92335771D02*
X139190476Y-92383390D01*
X139190476Y-92383390D02*
X139238095Y-92431009D01*
X139238095Y-92431009D02*
X139285714Y-92526247D01*
X139285714Y-92526247D02*
X139285714Y-92764342D01*
X139285714Y-92764342D02*
X139238095Y-92859580D01*
X139238095Y-92859580D02*
X139190476Y-92907200D01*
X139190476Y-92907200D02*
X139095238Y-92954819D01*
X139095238Y-92954819D02*
X138857143Y-92954819D01*
X138857143Y-92954819D02*
X138761905Y-92907200D01*
X138761905Y-92907200D02*
X138714286Y-92859580D01*
X144454819Y-87561904D02*
X144454819Y-86990476D01*
X145454819Y-87276190D02*
X144454819Y-87276190D01*
X145454819Y-86657142D02*
X144454819Y-86657142D01*
X144454819Y-86657142D02*
X144454819Y-86276190D01*
X144454819Y-86276190D02*
X144502438Y-86180952D01*
X144502438Y-86180952D02*
X144550057Y-86133333D01*
X144550057Y-86133333D02*
X144645295Y-86085714D01*
X144645295Y-86085714D02*
X144788152Y-86085714D01*
X144788152Y-86085714D02*
X144883390Y-86133333D01*
X144883390Y-86133333D02*
X144931009Y-86180952D01*
X144931009Y-86180952D02*
X144978628Y-86276190D01*
X144978628Y-86276190D02*
X144978628Y-86657142D01*
X144454819Y-85180952D02*
X144454819Y-85657142D01*
X144454819Y-85657142D02*
X144931009Y-85704761D01*
X144931009Y-85704761D02*
X144883390Y-85657142D01*
X144883390Y-85657142D02*
X144835771Y-85561904D01*
X144835771Y-85561904D02*
X144835771Y-85323809D01*
X144835771Y-85323809D02*
X144883390Y-85228571D01*
X144883390Y-85228571D02*
X144931009Y-85180952D01*
X144931009Y-85180952D02*
X145026247Y-85133333D01*
X145026247Y-85133333D02*
X145264342Y-85133333D01*
X145264342Y-85133333D02*
X145359580Y-85180952D01*
X145359580Y-85180952D02*
X145407200Y-85228571D01*
X145407200Y-85228571D02*
X145454819Y-85323809D01*
X145454819Y-85323809D02*
X145454819Y-85561904D01*
X145454819Y-85561904D02*
X145407200Y-85657142D01*
X145407200Y-85657142D02*
X145359580Y-85704761D01*
X113954819Y-120238094D02*
X112954819Y-120238094D01*
X112954819Y-120238094D02*
X112954819Y-119999999D01*
X112954819Y-119999999D02*
X113002438Y-119857142D01*
X113002438Y-119857142D02*
X113097676Y-119761904D01*
X113097676Y-119761904D02*
X113192914Y-119714285D01*
X113192914Y-119714285D02*
X113383390Y-119666666D01*
X113383390Y-119666666D02*
X113526247Y-119666666D01*
X113526247Y-119666666D02*
X113716723Y-119714285D01*
X113716723Y-119714285D02*
X113811961Y-119761904D01*
X113811961Y-119761904D02*
X113907200Y-119857142D01*
X113907200Y-119857142D02*
X113954819Y-119999999D01*
X113954819Y-119999999D02*
X113954819Y-120238094D01*
X113954819Y-118714285D02*
X113954819Y-119285713D01*
X113954819Y-118999999D02*
X112954819Y-118999999D01*
X112954819Y-118999999D02*
X113097676Y-119095237D01*
X113097676Y-119095237D02*
X113192914Y-119190475D01*
X113192914Y-119190475D02*
X113240533Y-119285713D01*
X138459580Y-78866666D02*
X138507200Y-78914285D01*
X138507200Y-78914285D02*
X138554819Y-79057142D01*
X138554819Y-79057142D02*
X138554819Y-79152380D01*
X138554819Y-79152380D02*
X138507200Y-79295237D01*
X138507200Y-79295237D02*
X138411961Y-79390475D01*
X138411961Y-79390475D02*
X138316723Y-79438094D01*
X138316723Y-79438094D02*
X138126247Y-79485713D01*
X138126247Y-79485713D02*
X137983390Y-79485713D01*
X137983390Y-79485713D02*
X137792914Y-79438094D01*
X137792914Y-79438094D02*
X137697676Y-79390475D01*
X137697676Y-79390475D02*
X137602438Y-79295237D01*
X137602438Y-79295237D02*
X137554819Y-79152380D01*
X137554819Y-79152380D02*
X137554819Y-79057142D01*
X137554819Y-79057142D02*
X137602438Y-78914285D01*
X137602438Y-78914285D02*
X137650057Y-78866666D01*
X137888152Y-78009523D02*
X138554819Y-78009523D01*
X137507200Y-78247618D02*
X138221485Y-78485713D01*
X138221485Y-78485713D02*
X138221485Y-77866666D01*
X146609580Y-120621778D02*
X146657200Y-120669397D01*
X146657200Y-120669397D02*
X146704819Y-120812254D01*
X146704819Y-120812254D02*
X146704819Y-120907492D01*
X146704819Y-120907492D02*
X146657200Y-121050349D01*
X146657200Y-121050349D02*
X146561961Y-121145587D01*
X146561961Y-121145587D02*
X146466723Y-121193206D01*
X146466723Y-121193206D02*
X146276247Y-121240825D01*
X146276247Y-121240825D02*
X146133390Y-121240825D01*
X146133390Y-121240825D02*
X145942914Y-121193206D01*
X145942914Y-121193206D02*
X145847676Y-121145587D01*
X145847676Y-121145587D02*
X145752438Y-121050349D01*
X145752438Y-121050349D02*
X145704819Y-120907492D01*
X145704819Y-120907492D02*
X145704819Y-120812254D01*
X145704819Y-120812254D02*
X145752438Y-120669397D01*
X145752438Y-120669397D02*
X145800057Y-120621778D01*
X145704819Y-119764635D02*
X145704819Y-119955111D01*
X145704819Y-119955111D02*
X145752438Y-120050349D01*
X145752438Y-120050349D02*
X145800057Y-120097968D01*
X145800057Y-120097968D02*
X145942914Y-120193206D01*
X145942914Y-120193206D02*
X146133390Y-120240825D01*
X146133390Y-120240825D02*
X146514342Y-120240825D01*
X146514342Y-120240825D02*
X146609580Y-120193206D01*
X146609580Y-120193206D02*
X146657200Y-120145587D01*
X146657200Y-120145587D02*
X146704819Y-120050349D01*
X146704819Y-120050349D02*
X146704819Y-119859873D01*
X146704819Y-119859873D02*
X146657200Y-119764635D01*
X146657200Y-119764635D02*
X146609580Y-119717016D01*
X146609580Y-119717016D02*
X146514342Y-119669397D01*
X146514342Y-119669397D02*
X146276247Y-119669397D01*
X146276247Y-119669397D02*
X146181009Y-119717016D01*
X146181009Y-119717016D02*
X146133390Y-119764635D01*
X146133390Y-119764635D02*
X146085771Y-119859873D01*
X146085771Y-119859873D02*
X146085771Y-120050349D01*
X146085771Y-120050349D02*
X146133390Y-120145587D01*
X146133390Y-120145587D02*
X146181009Y-120193206D01*
X146181009Y-120193206D02*
X146276247Y-120240825D01*
X159039580Y-115966666D02*
X159087200Y-116014285D01*
X159087200Y-116014285D02*
X159134819Y-116157142D01*
X159134819Y-116157142D02*
X159134819Y-116252380D01*
X159134819Y-116252380D02*
X159087200Y-116395237D01*
X159087200Y-116395237D02*
X158991961Y-116490475D01*
X158991961Y-116490475D02*
X158896723Y-116538094D01*
X158896723Y-116538094D02*
X158706247Y-116585713D01*
X158706247Y-116585713D02*
X158563390Y-116585713D01*
X158563390Y-116585713D02*
X158372914Y-116538094D01*
X158372914Y-116538094D02*
X158277676Y-116490475D01*
X158277676Y-116490475D02*
X158182438Y-116395237D01*
X158182438Y-116395237D02*
X158134819Y-116252380D01*
X158134819Y-116252380D02*
X158134819Y-116157142D01*
X158134819Y-116157142D02*
X158182438Y-116014285D01*
X158182438Y-116014285D02*
X158230057Y-115966666D01*
X159134819Y-115014285D02*
X159134819Y-115585713D01*
X159134819Y-115299999D02*
X158134819Y-115299999D01*
X158134819Y-115299999D02*
X158277676Y-115395237D01*
X158277676Y-115395237D02*
X158372914Y-115490475D01*
X158372914Y-115490475D02*
X158420533Y-115585713D01*
X114670227Y-76869364D02*
X114670227Y-77678887D01*
X114670227Y-77678887D02*
X114717846Y-77774125D01*
X114717846Y-77774125D02*
X114765465Y-77821745D01*
X114765465Y-77821745D02*
X114860703Y-77869364D01*
X114860703Y-77869364D02*
X115051179Y-77869364D01*
X115051179Y-77869364D02*
X115146417Y-77821745D01*
X115146417Y-77821745D02*
X115194036Y-77774125D01*
X115194036Y-77774125D02*
X115241655Y-77678887D01*
X115241655Y-77678887D02*
X115241655Y-76869364D01*
X115670227Y-76964602D02*
X115717846Y-76916983D01*
X115717846Y-76916983D02*
X115813084Y-76869364D01*
X115813084Y-76869364D02*
X116051179Y-76869364D01*
X116051179Y-76869364D02*
X116146417Y-76916983D01*
X116146417Y-76916983D02*
X116194036Y-76964602D01*
X116194036Y-76964602D02*
X116241655Y-77059840D01*
X116241655Y-77059840D02*
X116241655Y-77155078D01*
X116241655Y-77155078D02*
X116194036Y-77297935D01*
X116194036Y-77297935D02*
X115622608Y-77869364D01*
X115622608Y-77869364D02*
X116241655Y-77869364D01*
%TO.C,J2*%
D11*
X122330000Y-121900000D02*
X122330000Y-120200000D01*
X131670000Y-121900000D02*
X131670000Y-120200000D01*
%TO.C,TP7*%
X135670000Y-109710000D02*
X135670000Y-109830000D01*
X135670000Y-109830000D02*
X138330000Y-109830000D01*
X137000000Y-107170000D02*
X138330000Y-107170000D01*
X138330000Y-107170000D02*
X138330000Y-108500000D01*
X138330000Y-109710000D02*
X138330000Y-109830000D01*
%TO.C,R4*%
X129120000Y-114246359D02*
X129120000Y-114553641D01*
X129880000Y-114246359D02*
X129880000Y-114553641D01*
%TO.C,R2*%
X121772936Y-115265000D02*
X122227064Y-115265000D01*
X121772936Y-116735000D02*
X122227064Y-116735000D01*
%TO.C,C2*%
X152261252Y-85565000D02*
X151738748Y-85565000D01*
X152261252Y-87035000D02*
X151738748Y-87035000D01*
%TO.C,R3*%
X124620000Y-113846359D02*
X124620000Y-114153641D01*
X125380000Y-113846359D02*
X125380000Y-114153641D01*
%TO.C,C3*%
X133738748Y-112265000D02*
X134261252Y-112265000D01*
X133738748Y-113735000D02*
X134261252Y-113735000D01*
%TO.C,TP6*%
X155170000Y-87510000D02*
X155170000Y-87630000D01*
X155170000Y-87630000D02*
X157830000Y-87630000D01*
X156500000Y-84970000D02*
X157830000Y-84970000D01*
X157830000Y-84970000D02*
X157830000Y-86300000D01*
X157830000Y-87510000D02*
X157830000Y-87630000D01*
%TO.C,U1*%
D10*
X145750000Y-91900000D02*
X145750000Y-109700000D01*
X145750000Y-91900000D02*
X146500000Y-91900000D01*
X145750000Y-109700000D02*
X146500000Y-109700000D01*
X158250000Y-91900000D02*
X157500000Y-91900000D01*
X158250000Y-109700000D02*
X157500000Y-109700000D01*
X158250000Y-109700000D02*
X158250000Y-91900000D01*
%TO.C,C5*%
D11*
X135920000Y-96415113D02*
X137460000Y-96415113D01*
X135920000Y-96455113D02*
X137460000Y-96455113D01*
X135921000Y-96375113D02*
X137460000Y-96375113D01*
X135923000Y-96335113D02*
X137460000Y-96335113D01*
X135925000Y-96295113D02*
X137460000Y-96295113D01*
X135928000Y-96255113D02*
X137460000Y-96255113D01*
X135931000Y-96215113D02*
X137460000Y-96215113D01*
X135935000Y-96175113D02*
X137460000Y-96175113D01*
X135940000Y-96135113D02*
X137460000Y-96135113D01*
X135945000Y-96095113D02*
X137460000Y-96095113D01*
X135951000Y-96055113D02*
X137460000Y-96055113D01*
X135957000Y-96015113D02*
X137460000Y-96015113D01*
X135964000Y-95975113D02*
X137460000Y-95975113D01*
X135972000Y-95935113D02*
X137460000Y-95935113D01*
X135981000Y-95895113D02*
X137460000Y-95895113D01*
X135990000Y-95855113D02*
X137460000Y-95855113D01*
X135999000Y-95815113D02*
X137460000Y-95815113D01*
X136010000Y-95775113D02*
X137460000Y-95775113D01*
X136021000Y-95735113D02*
X137460000Y-95735113D01*
X136033000Y-95695113D02*
X137460000Y-95695113D01*
X136045000Y-95655113D02*
X137460000Y-95655113D01*
X136058000Y-95615113D02*
X137460000Y-95615113D01*
X136072000Y-95575113D02*
X137460000Y-95575113D01*
X136087000Y-95535113D02*
X137460000Y-95535113D01*
X136102000Y-95495113D02*
X137460000Y-95495113D01*
X136118000Y-95455113D02*
X137460000Y-95455113D01*
X136135000Y-95415113D02*
X137460000Y-95415113D01*
X136153000Y-95375113D02*
X137460000Y-95375113D01*
X136171000Y-95335113D02*
X137460000Y-95335113D01*
X136191000Y-95295113D02*
X137460000Y-95295113D01*
X136211000Y-95255113D02*
X137460000Y-95255113D01*
X136232000Y-95215113D02*
X137460000Y-95215113D01*
X136254000Y-95175113D02*
X137460000Y-95175113D01*
X136277000Y-95135113D02*
X137460000Y-95135113D01*
X136301000Y-95095113D02*
X137460000Y-95095113D01*
X136325000Y-95055113D02*
X137460000Y-95055113D01*
X136351000Y-95015113D02*
X137460000Y-95015113D01*
X136378000Y-94975113D02*
X137460000Y-94975113D01*
X136406000Y-94935113D02*
X137460000Y-94935113D01*
X136435000Y-94895113D02*
X137460000Y-94895113D01*
X136465000Y-94855113D02*
X137460000Y-94855113D01*
X136497000Y-94815113D02*
X137460000Y-94815113D01*
X136530000Y-94775113D02*
X137460000Y-94775113D01*
X136564000Y-94735113D02*
X137460000Y-94735113D01*
X136599000Y-94695113D02*
X137460000Y-94695113D01*
X136636000Y-94655113D02*
X137460000Y-94655113D01*
X136675000Y-94615113D02*
X137460000Y-94615113D01*
X136715000Y-94575113D02*
X137460000Y-94575113D01*
X136757000Y-94535113D02*
X137460000Y-94535113D01*
X136775000Y-99009888D02*
X137275000Y-99009888D01*
X136801000Y-94495113D02*
X137460000Y-94495113D01*
X136848000Y-94455113D02*
X137460000Y-94455113D01*
X136896000Y-94415113D02*
X140104000Y-94415113D01*
X136947000Y-94375113D02*
X140053000Y-94375113D01*
X137001000Y-94335113D02*
X139999000Y-94335113D01*
X137025000Y-99259888D02*
X137025000Y-98759888D01*
X137057000Y-94295113D02*
X139943000Y-94295113D01*
X137117000Y-94255113D02*
X139883000Y-94255113D01*
X137181000Y-94215113D02*
X139819000Y-94215113D01*
X137249000Y-94175113D02*
X139751000Y-94175113D01*
X137323000Y-94135113D02*
X139677000Y-94135113D01*
X137402000Y-94095113D02*
X139598000Y-94095113D01*
X137489000Y-94055113D02*
X139511000Y-94055113D01*
X137586000Y-94015113D02*
X139414000Y-94015113D01*
X137695000Y-93975113D02*
X139305000Y-93975113D01*
X137823000Y-93935113D02*
X139177000Y-93935113D01*
X137983000Y-93895113D02*
X139017000Y-93895113D01*
X138217000Y-93855113D02*
X138783000Y-93855113D01*
X139540000Y-94455113D02*
X140152000Y-94455113D01*
X139540000Y-94495113D02*
X140199000Y-94495113D01*
X139540000Y-94535113D02*
X140243000Y-94535113D01*
X139540000Y-94575113D02*
X140285000Y-94575113D01*
X139540000Y-94615113D02*
X140325000Y-94615113D01*
X139540000Y-94655113D02*
X140364000Y-94655113D01*
X139540000Y-94695113D02*
X140401000Y-94695113D01*
X139540000Y-94735113D02*
X140436000Y-94735113D01*
X139540000Y-94775113D02*
X140470000Y-94775113D01*
X139540000Y-94815113D02*
X140503000Y-94815113D01*
X139540000Y-94855113D02*
X140535000Y-94855113D01*
X139540000Y-94895113D02*
X140565000Y-94895113D01*
X139540000Y-94935113D02*
X140594000Y-94935113D01*
X139540000Y-94975113D02*
X140622000Y-94975113D01*
X139540000Y-95015113D02*
X140649000Y-95015113D01*
X139540000Y-95055113D02*
X140675000Y-95055113D01*
X139540000Y-95095113D02*
X140699000Y-95095113D01*
X139540000Y-95135113D02*
X140723000Y-95135113D01*
X139540000Y-95175113D02*
X140746000Y-95175113D01*
X139540000Y-95215113D02*
X140768000Y-95215113D01*
X139540000Y-95255113D02*
X140789000Y-95255113D01*
X139540000Y-95295113D02*
X140809000Y-95295113D01*
X139540000Y-95335113D02*
X140829000Y-95335113D01*
X139540000Y-95375113D02*
X140847000Y-95375113D01*
X139540000Y-95415113D02*
X140865000Y-95415113D01*
X139540000Y-95455113D02*
X140882000Y-95455113D01*
X139540000Y-95495113D02*
X140898000Y-95495113D01*
X139540000Y-95535113D02*
X140913000Y-95535113D01*
X139540000Y-95575113D02*
X140928000Y-95575113D01*
X139540000Y-95615113D02*
X140942000Y-95615113D01*
X139540000Y-95655113D02*
X140955000Y-95655113D01*
X139540000Y-95695113D02*
X140967000Y-95695113D01*
X139540000Y-95735113D02*
X140979000Y-95735113D01*
X139540000Y-95775113D02*
X140990000Y-95775113D01*
X139540000Y-95815113D02*
X141001000Y-95815113D01*
X139540000Y-95855113D02*
X141010000Y-95855113D01*
X139540000Y-95895113D02*
X141019000Y-95895113D01*
X139540000Y-95935113D02*
X141028000Y-95935113D01*
X139540000Y-95975113D02*
X141036000Y-95975113D01*
X139540000Y-96015113D02*
X141043000Y-96015113D01*
X139540000Y-96055113D02*
X141049000Y-96055113D01*
X139540000Y-96095113D02*
X141055000Y-96095113D01*
X139540000Y-96135113D02*
X141060000Y-96135113D01*
X139540000Y-96175113D02*
X141065000Y-96175113D01*
X139540000Y-96215113D02*
X141069000Y-96215113D01*
X139540000Y-96255113D02*
X141072000Y-96255113D01*
X139540000Y-96295113D02*
X141075000Y-96295113D01*
X139540000Y-96335113D02*
X141077000Y-96335113D01*
X139540000Y-96375113D02*
X141079000Y-96375113D01*
X139540000Y-96415113D02*
X141080000Y-96415113D01*
X139540000Y-96455113D02*
X141080000Y-96455113D01*
X141120000Y-96455113D02*
G75*
G02*
X135880000Y-96455113I-2620000J0D01*
G01*
X135880000Y-96455113D02*
G75*
G02*
X141120000Y-96455113I2620000J0D01*
G01*
%TO.C,TP5*%
X146170000Y-87510000D02*
X146170000Y-87630000D01*
X146170000Y-87630000D02*
X148830000Y-87630000D01*
X147500000Y-84970000D02*
X148830000Y-84970000D01*
X148830000Y-84970000D02*
X148830000Y-86300000D01*
X148830000Y-87510000D02*
X148830000Y-87630000D01*
%TO.C,D1*%
X114350000Y-115290000D02*
X114350000Y-122700000D01*
X118650000Y-115290000D02*
X114350000Y-115290000D01*
X118650000Y-115290000D02*
X118650000Y-122700000D01*
%TO.C,C4*%
X135570000Y-78956252D02*
X135570000Y-78433748D01*
X137040000Y-78956252D02*
X137040000Y-78433748D01*
%TO.C,C6*%
X147420000Y-120415112D02*
X148960000Y-120415112D01*
X147420000Y-120455112D02*
X148960000Y-120455112D01*
X147421000Y-120375112D02*
X148960000Y-120375112D01*
X147423000Y-120335112D02*
X148960000Y-120335112D01*
X147425000Y-120295112D02*
X148960000Y-120295112D01*
X147428000Y-120255112D02*
X148960000Y-120255112D01*
X147431000Y-120215112D02*
X148960000Y-120215112D01*
X147435000Y-120175112D02*
X148960000Y-120175112D01*
X147440000Y-120135112D02*
X148960000Y-120135112D01*
X147445000Y-120095112D02*
X148960000Y-120095112D01*
X147451000Y-120055112D02*
X148960000Y-120055112D01*
X147457000Y-120015112D02*
X148960000Y-120015112D01*
X147464000Y-119975112D02*
X148960000Y-119975112D01*
X147472000Y-119935112D02*
X148960000Y-119935112D01*
X147481000Y-119895112D02*
X148960000Y-119895112D01*
X147490000Y-119855112D02*
X148960000Y-119855112D01*
X147499000Y-119815112D02*
X148960000Y-119815112D01*
X147510000Y-119775112D02*
X148960000Y-119775112D01*
X147521000Y-119735112D02*
X148960000Y-119735112D01*
X147533000Y-119695112D02*
X148960000Y-119695112D01*
X147545000Y-119655112D02*
X148960000Y-119655112D01*
X147558000Y-119615112D02*
X148960000Y-119615112D01*
X147572000Y-119575112D02*
X148960000Y-119575112D01*
X147587000Y-119535112D02*
X148960000Y-119535112D01*
X147602000Y-119495112D02*
X148960000Y-119495112D01*
X147618000Y-119455112D02*
X148960000Y-119455112D01*
X147635000Y-119415112D02*
X148960000Y-119415112D01*
X147653000Y-119375112D02*
X148960000Y-119375112D01*
X147671000Y-119335112D02*
X148960000Y-119335112D01*
X147691000Y-119295112D02*
X148960000Y-119295112D01*
X147711000Y-119255112D02*
X148960000Y-119255112D01*
X147732000Y-119215112D02*
X148960000Y-119215112D01*
X147754000Y-119175112D02*
X148960000Y-119175112D01*
X147777000Y-119135112D02*
X148960000Y-119135112D01*
X147801000Y-119095112D02*
X148960000Y-119095112D01*
X147825000Y-119055112D02*
X148960000Y-119055112D01*
X147851000Y-119015112D02*
X148960000Y-119015112D01*
X147878000Y-118975112D02*
X148960000Y-118975112D01*
X147906000Y-118935112D02*
X148960000Y-118935112D01*
X147935000Y-118895112D02*
X148960000Y-118895112D01*
X147965000Y-118855112D02*
X148960000Y-118855112D01*
X147997000Y-118815112D02*
X148960000Y-118815112D01*
X148030000Y-118775112D02*
X148960000Y-118775112D01*
X148064000Y-118735112D02*
X148960000Y-118735112D01*
X148099000Y-118695112D02*
X148960000Y-118695112D01*
X148136000Y-118655112D02*
X148960000Y-118655112D01*
X148175000Y-118615112D02*
X148960000Y-118615112D01*
X148215000Y-118575112D02*
X148960000Y-118575112D01*
X148257000Y-118535112D02*
X148960000Y-118535112D01*
X148275000Y-123009887D02*
X148775000Y-123009887D01*
X148301000Y-118495112D02*
X148960000Y-118495112D01*
X148348000Y-118455112D02*
X148960000Y-118455112D01*
X148396000Y-118415112D02*
X151604000Y-118415112D01*
X148447000Y-118375112D02*
X151553000Y-118375112D01*
X148501000Y-118335112D02*
X151499000Y-118335112D01*
X148525000Y-123259887D02*
X148525000Y-122759887D01*
X148557000Y-118295112D02*
X151443000Y-118295112D01*
X148617000Y-118255112D02*
X151383000Y-118255112D01*
X148681000Y-118215112D02*
X151319000Y-118215112D01*
X148749000Y-118175112D02*
X151251000Y-118175112D01*
X148823000Y-118135112D02*
X151177000Y-118135112D01*
X148902000Y-118095112D02*
X151098000Y-118095112D01*
X148989000Y-118055112D02*
X151011000Y-118055112D01*
X149086000Y-118015112D02*
X150914000Y-118015112D01*
X149195000Y-117975112D02*
X150805000Y-117975112D01*
X149323000Y-117935112D02*
X150677000Y-117935112D01*
X149483000Y-117895112D02*
X150517000Y-117895112D01*
X149717000Y-117855112D02*
X150283000Y-117855112D01*
X151040000Y-118455112D02*
X151652000Y-118455112D01*
X151040000Y-118495112D02*
X151699000Y-118495112D01*
X151040000Y-118535112D02*
X151743000Y-118535112D01*
X151040000Y-118575112D02*
X151785000Y-118575112D01*
X151040000Y-118615112D02*
X151825000Y-118615112D01*
X151040000Y-118655112D02*
X151864000Y-118655112D01*
X151040000Y-118695112D02*
X151901000Y-118695112D01*
X151040000Y-118735112D02*
X151936000Y-118735112D01*
X151040000Y-118775112D02*
X151970000Y-118775112D01*
X151040000Y-118815112D02*
X152003000Y-118815112D01*
X151040000Y-118855112D02*
X152035000Y-118855112D01*
X151040000Y-118895112D02*
X152065000Y-118895112D01*
X151040000Y-118935112D02*
X152094000Y-118935112D01*
X151040000Y-118975112D02*
X152122000Y-118975112D01*
X151040000Y-119015112D02*
X152149000Y-119015112D01*
X151040000Y-119055112D02*
X152175000Y-119055112D01*
X151040000Y-119095112D02*
X152199000Y-119095112D01*
X151040000Y-119135112D02*
X152223000Y-119135112D01*
X151040000Y-119175112D02*
X152246000Y-119175112D01*
X151040000Y-119215112D02*
X152268000Y-119215112D01*
X151040000Y-119255112D02*
X152289000Y-119255112D01*
X151040000Y-119295112D02*
X152309000Y-119295112D01*
X151040000Y-119335112D02*
X152329000Y-119335112D01*
X151040000Y-119375112D02*
X152347000Y-119375112D01*
X151040000Y-119415112D02*
X152365000Y-119415112D01*
X151040000Y-119455112D02*
X152382000Y-119455112D01*
X151040000Y-119495112D02*
X152398000Y-119495112D01*
X151040000Y-119535112D02*
X152413000Y-119535112D01*
X151040000Y-119575112D02*
X152428000Y-119575112D01*
X151040000Y-119615112D02*
X152442000Y-119615112D01*
X151040000Y-119655112D02*
X152455000Y-119655112D01*
X151040000Y-119695112D02*
X152467000Y-119695112D01*
X151040000Y-119735112D02*
X152479000Y-119735112D01*
X151040000Y-119775112D02*
X152490000Y-119775112D01*
X151040000Y-119815112D02*
X152501000Y-119815112D01*
X151040000Y-119855112D02*
X152510000Y-119855112D01*
X151040000Y-119895112D02*
X152519000Y-119895112D01*
X151040000Y-119935112D02*
X152528000Y-119935112D01*
X151040000Y-119975112D02*
X152536000Y-119975112D01*
X151040000Y-120015112D02*
X152543000Y-120015112D01*
X151040000Y-120055112D02*
X152549000Y-120055112D01*
X151040000Y-120095112D02*
X152555000Y-120095112D01*
X151040000Y-120135112D02*
X152560000Y-120135112D01*
X151040000Y-120175112D02*
X152565000Y-120175112D01*
X151040000Y-120215112D02*
X152569000Y-120215112D01*
X151040000Y-120255112D02*
X152572000Y-120255112D01*
X151040000Y-120295112D02*
X152575000Y-120295112D01*
X151040000Y-120335112D02*
X152577000Y-120335112D01*
X151040000Y-120375112D02*
X152579000Y-120375112D01*
X151040000Y-120415112D02*
X152580000Y-120415112D01*
X151040000Y-120455112D02*
X152580000Y-120455112D01*
X152620000Y-120455112D02*
G75*
G02*
X147380000Y-120455112I-2620000J0D01*
G01*
X147380000Y-120455112D02*
G75*
G02*
X152620000Y-120455112I2620000J0D01*
G01*
%TO.C,C1*%
X156265000Y-115538748D02*
X156265000Y-116061252D01*
X157735000Y-115538748D02*
X157735000Y-116061252D01*
%TO.C,U2*%
D10*
X113900000Y-78400000D02*
X113900000Y-109600000D01*
X113900000Y-109600000D02*
X114900000Y-109600000D01*
X117400000Y-78400000D02*
X113900000Y-78400000D01*
X133100000Y-109600000D02*
X134100000Y-109600000D01*
X134100000Y-78400000D02*
X130600000Y-78400000D01*
X134100000Y-78400000D02*
X134100000Y-109600000D01*
D11*
X129700000Y-76000000D02*
X129502010Y-75802010D01*
X129897990Y-75802010D01*
X129700000Y-76000000D01*
G36*
X129700000Y-76000000D02*
G01*
X129502010Y-75802010D01*
X129897990Y-75802010D01*
X129700000Y-76000000D01*
G37*
%TD*%
M02*
