%TF.GenerationSoftware,KiCad,Pcbnew,10.0.6*%
%TF.CreationDate,2026-10-06T13:55:22-04:00*%
%TF.ProjectId,E103-RTL8812CU-Breakout-Board,45313033-2d52-4544-9c38-38313243552d,rev?*%
%TF.SameCoordinates,Original*%
%TF.FileFunction,Copper,L1,Top*%
%TF.FilePolarity,Positive*%
%FSLAX46Y46*%
G04 Gerber Fmt 4.6, Leading zero omitted, Abs format (unit mm)*
G04 Created by KiCad (PCBNEW 10.0.6) date 2026-10-06 13:55:22*
%MOMM*%
%LPD*%
G01*
G04 APERTURE LIST*
G04 Aperture macros list*
%AMRoundRect*
0 Rectangle with rounded corners*
0 $1 Rounding radius*
0 $2 $3 $4 $5 $6 $7 $8 $9 X,Y pos of 4 corners*
0 Add a 4 corners polygon primitive as box body*
4,1,4,$2,$3,$4,$5,$6,$7,$8,$9,$2,$3,0*
0 Add four circle primitives for the rounded corners*
1,1,$1+$1,$2,$3*
1,1,$1+$1,$4,$5*
1,1,$1+$1,$6,$7*
1,1,$1+$1,$8,$9*
0 Add four rect primitives between the rounded corners*
20,1,$1+$1,$2,$3,$4,$5,0*
20,1,$1+$1,$4,$5,$6,$7,0*
20,1,$1+$1,$6,$7,$8,$9,0*
20,1,$1+$1,$8,$9,$2,$3,0*%
G04 Aperture macros list end*
%TA.AperFunction,SMDPad,CuDef*%
%ADD10RoundRect,0.150000X-0.150000X-0.425000X0.150000X-0.425000X0.150000X0.425000X-0.150000X0.425000X0*%
%TD*%
%TA.AperFunction,SMDPad,CuDef*%
%ADD11RoundRect,0.075000X-0.075000X-0.500000X0.075000X-0.500000X0.075000X0.500000X-0.075000X0.500000X0*%
%TD*%
%TA.AperFunction,ComponentPad*%
%ADD12O,1.000000X2.100000*%
%TD*%
%TA.AperFunction,ComponentPad*%
%ADD13O,1.000000X1.800000*%
%TD*%
%TA.AperFunction,ComponentPad*%
%ADD14R,1.700000X1.700000*%
%TD*%
%TA.AperFunction,SMDPad,CuDef*%
%ADD15RoundRect,0.135000X-0.185000X0.135000X-0.185000X-0.135000X0.185000X-0.135000X0.185000X0.135000X0*%
%TD*%
%TA.AperFunction,SMDPad,CuDef*%
%ADD16RoundRect,0.250000X-0.262500X-0.450000X0.262500X-0.450000X0.262500X0.450000X-0.262500X0.450000X0*%
%TD*%
%TA.AperFunction,SMDPad,CuDef*%
%ADD17RoundRect,0.250000X0.337500X0.475000X-0.337500X0.475000X-0.337500X-0.475000X0.337500X-0.475000X0*%
%TD*%
%TA.AperFunction,SMDPad,CuDef*%
%ADD18RoundRect,0.250000X-0.337500X-0.475000X0.337500X-0.475000X0.337500X0.475000X-0.337500X0.475000X0*%
%TD*%
%TA.AperFunction,SMDPad,CuDef*%
%ADD19RoundRect,0.381000X0.889000X2.119000X-0.889000X2.119000X-0.889000X-2.119000X0.889000X-2.119000X0*%
%TD*%
%TA.AperFunction,ComponentPad*%
%ADD20RoundRect,0.250000X0.550000X-0.550000X0.550000X0.550000X-0.550000X0.550000X-0.550000X-0.550000X0*%
%TD*%
%TA.AperFunction,ComponentPad*%
%ADD21C,1.600000*%
%TD*%
%TA.AperFunction,SMDPad,CuDef*%
%ADD22RoundRect,0.250000X-0.900000X1.500000X-0.900000X-1.500000X0.900000X-1.500000X0.900000X1.500000X0*%
%TD*%
%TA.AperFunction,SMDPad,CuDef*%
%ADD23RoundRect,0.250000X0.475000X-0.337500X0.475000X0.337500X-0.475000X0.337500X-0.475000X-0.337500X0*%
%TD*%
%TA.AperFunction,SMDPad,CuDef*%
%ADD24RoundRect,0.250000X-0.475000X0.337500X-0.475000X-0.337500X0.475000X-0.337500X0.475000X0.337500X0*%
%TD*%
%TA.AperFunction,SMDPad,CuDef*%
%ADD25RoundRect,0.135000X-0.315000X-1.115000X0.315000X-1.115000X0.315000X1.115000X-0.315000X1.115000X0*%
%TD*%
%TA.AperFunction,SMDPad,CuDef*%
%ADD26RoundRect,0.225000X-0.525000X-1.275000X0.525000X-1.275000X0.525000X1.275000X-0.525000X1.275000X0*%
%TD*%
%TA.AperFunction,ViaPad*%
%ADD27C,0.600000*%
%TD*%
%TA.AperFunction,Conductor*%
%ADD28C,0.358600*%
%TD*%
%TA.AperFunction,Conductor*%
%ADD29C,0.200000*%
%TD*%
G04 APERTURE END LIST*
D10*
%TO.P,J2,A1,GND_A1*%
%TO.N,GND*%
X123800000Y-118320000D03*
%TO.P,J2,A4,VBUS_A4*%
%TO.N,Net-(J2-VBUS-PadA4)*%
X124600000Y-118320000D03*
D11*
%TO.P,J2,A5,CC1_A5*%
%TO.N,/CC1*%
X125750000Y-118320000D03*
%TO.P,J2,A6,D+_A6*%
%TO.N,/USB +*%
X126750000Y-118320000D03*
%TO.P,J2,A7,D-_A7*%
%TO.N,/USB -*%
X127250000Y-118320000D03*
%TO.P,J2,A8,SBU1_A8*%
%TO.N,unconnected-(J2-SBU1-PadA8)*%
X128250000Y-118320000D03*
D10*
%TO.P,J2,A9,VBUS_A9*%
%TO.N,Net-(J2-VBUS-PadA4)*%
X129400000Y-118320000D03*
%TO.P,J2,A12,GND_A12*%
%TO.N,GND*%
X130200000Y-118320000D03*
%TO.P,J2,B1,GND_B1*%
X130200000Y-118320000D03*
%TO.P,J2,B4,VBUS_B4*%
%TO.N,Net-(J2-VBUS-PadA4)*%
X129400000Y-118320000D03*
D11*
%TO.P,J2,B5,CC2_B5*%
%TO.N,/CC2*%
X128750000Y-118320000D03*
%TO.P,J2,B6,D+_B6*%
%TO.N,/USB +*%
X127750000Y-118320000D03*
%TO.P,J2,B7,D-_B7*%
%TO.N,/USB -*%
X126250000Y-118320000D03*
%TO.P,J2,B8,SBU2_B8*%
%TO.N,unconnected-(J2-SBU2-PadB8)*%
X125250000Y-118320000D03*
D10*
%TO.P,J2,B9,VBUS_B9*%
%TO.N,Net-(J2-VBUS-PadA4)*%
X124600000Y-118320000D03*
%TO.P,J2,B12,GND_B12*%
%TO.N,GND*%
X123800000Y-118320000D03*
D12*
%TO.P,J2,SH,SHIELD_SH*%
X122680000Y-118895000D03*
D13*
X122680000Y-123075000D03*
D12*
X131320000Y-118895000D03*
D13*
X131320000Y-123075000D03*
%TD*%
D14*
%TO.P,TP7,1,1_1*%
%TO.N,Net-(U2-RESET)*%
X137000000Y-108500000D03*
%TD*%
D15*
%TO.P,R4,1*%
%TO.N,GND*%
X129500000Y-113890000D03*
%TO.P,R4,2*%
%TO.N,/CC2*%
X129500000Y-114910000D03*
%TD*%
D16*
%TO.P,R2,1*%
%TO.N,Net-(D1-A)*%
X121087500Y-116000000D03*
%TO.P,R2,2*%
%TO.N,Net-(J2-VBUS-PadA4)*%
X122912500Y-116000000D03*
%TD*%
D17*
%TO.P,C2,1*%
%TO.N,+3.3V*%
X153037500Y-86300000D03*
%TO.P,C2,2*%
%TO.N,GND*%
X150962500Y-86300000D03*
%TD*%
D15*
%TO.P,R3,1*%
%TO.N,GND*%
X125000000Y-113490000D03*
%TO.P,R3,2*%
%TO.N,/CC1*%
X125000000Y-114510000D03*
%TD*%
D18*
%TO.P,C3,1*%
%TO.N,+3.3V*%
X132962500Y-113000000D03*
%TO.P,C3,2*%
%TO.N,GND*%
X135037500Y-113000000D03*
%TD*%
D14*
%TO.P,TP6,1,1_1*%
%TO.N,GND*%
X156500000Y-86300000D03*
%TD*%
D19*
%TO.P,U1,1,IN_1*%
%TO.N,/V_IN*%
X156000000Y-109300000D03*
%TO.P,U1,2,OUT_2*%
%TO.N,+3.3V*%
X156000000Y-92300000D03*
%TO.P,U1,3,GND_3*%
%TO.N,GND*%
X148000000Y-92300000D03*
%TO.P,U1,4,GND_4*%
X148000000Y-109300000D03*
%TD*%
D20*
%TO.P,C5,1*%
%TO.N,+3.3V*%
X138500000Y-97455113D03*
D21*
%TO.P,C5,2*%
%TO.N,GND*%
X138500000Y-95455113D03*
%TD*%
D14*
%TO.P,TP5,1,1_1*%
%TO.N,+3.3V*%
X147500000Y-86300000D03*
%TD*%
D22*
%TO.P,D1,1,K_1*%
%TO.N,/V_IN*%
X116500000Y-117300000D03*
%TO.P,D1,2,A_2*%
%TO.N,Net-(D1-A)*%
X116500000Y-122700000D03*
%TD*%
D23*
%TO.P,C4,1*%
%TO.N,+3.3V*%
X136305000Y-79732500D03*
%TO.P,C4,2*%
%TO.N,GND*%
X136305000Y-77657500D03*
%TD*%
D20*
%TO.P,C6,1*%
%TO.N,/V_IN*%
X150000000Y-121455112D03*
D21*
%TO.P,C6,2*%
%TO.N,GND*%
X150000000Y-119455112D03*
%TD*%
D24*
%TO.P,C1,1*%
%TO.N,/V_IN*%
X157000000Y-114762500D03*
%TO.P,C1,2*%
%TO.N,GND*%
X157000000Y-116837500D03*
%TD*%
D25*
%TO.P,U2,1,GND_1*%
%TO.N,GND*%
X129700000Y-78000000D03*
%TO.P,U2,2,NC_2*%
%TO.N,unconnected-(U2-NC-Pad2)*%
X128200000Y-78000000D03*
%TO.P,U2,3,GND_3*%
%TO.N,GND*%
X126700000Y-78000000D03*
D26*
%TO.P,U2,4,GND_4*%
X125000000Y-78000000D03*
%TO.P,U2,5,GND_5*%
X123000000Y-78000000D03*
D25*
%TO.P,U2,6,GND_6*%
X121300000Y-78000000D03*
%TO.P,U2,7,NC_7*%
%TO.N,unconnected-(U2-NC-Pad7)*%
X119800000Y-78000000D03*
%TO.P,U2,8,GND_8*%
%TO.N,GND*%
X118300000Y-78000000D03*
D26*
%TO.P,U2,9,GND_9*%
X116000000Y-110000000D03*
%TO.P,U2,10,NC_10*%
%TO.N,unconnected-(U2-NC-Pad10)*%
X118000000Y-110000000D03*
%TO.P,U2,11,NC_11*%
%TO.N,unconnected-(U2-NC-Pad11)*%
X120000000Y-110000000D03*
%TO.P,U2,12,NC_12*%
%TO.N,unconnected-(U2-NC-Pad12)*%
X122000000Y-110000000D03*
%TO.P,U2,13,GND_13*%
%TO.N,GND*%
X124000000Y-110000000D03*
%TO.P,U2,14,DM_14*%
%TO.N,/USB -*%
X126000000Y-110000000D03*
%TO.P,U2,15,DP_15*%
%TO.N,/USB +*%
X128000000Y-110000000D03*
%TO.P,U2,16,VDD_16*%
%TO.N,+3.3V*%
X130000000Y-110000000D03*
%TO.P,U2,17,RESET_17*%
%TO.N,Net-(U2-RESET)*%
X132000000Y-110000000D03*
%TD*%
D14*
%TO.P,TP3,1,1_1*%
%TO.N,GND*%
X136000000Y-123500000D03*
%TD*%
%TO.P,TP1,1,1_1*%
%TO.N,/V_IN*%
X142000000Y-118000000D03*
%TD*%
%TO.P,TP4,1,1_1*%
%TO.N,GND*%
X142000000Y-123500000D03*
%TD*%
%TO.P,TP2,1,1_1*%
%TO.N,/V_IN*%
X136000000Y-118000000D03*
%TD*%
D27*
%TO.N,GND*%
X151000000Y-111300000D03*
X129701013Y-76144079D03*
X118500000Y-86000000D03*
X123500000Y-108000000D03*
X144000000Y-78500000D03*
X129500000Y-102500000D03*
X121273554Y-79750000D03*
X115500000Y-108000000D03*
X131000000Y-114000000D03*
X124500000Y-108000000D03*
X148624787Y-112309065D03*
X149875213Y-109290935D03*
X149875213Y-111290935D03*
X150000000Y-90300000D03*
X149875213Y-110290935D03*
X139000000Y-87000000D03*
X156000000Y-78500000D03*
X126674372Y-79750000D03*
X136300000Y-76600000D03*
X149875213Y-112290935D03*
X151000000Y-112300000D03*
X119500000Y-102500000D03*
X150000000Y-94300000D03*
X146000000Y-90300000D03*
X129500000Y-86000000D03*
X136000000Y-113000000D03*
X146000000Y-91300000D03*
X150500000Y-87800000D03*
X151000000Y-109300000D03*
X123000000Y-80000000D03*
X150000000Y-91300000D03*
X151000000Y-110300000D03*
X146000000Y-93300000D03*
X146000000Y-94300000D03*
X149875213Y-113290935D03*
X149875213Y-107290935D03*
X157000000Y-118300000D03*
X125000000Y-80250000D03*
X148624787Y-113309065D03*
X116500000Y-108000000D03*
X121293389Y-76250000D03*
X147500000Y-113300000D03*
X118250000Y-76250000D03*
X150000000Y-93300000D03*
X125000000Y-76000000D03*
X151000000Y-107300000D03*
X147500000Y-112300000D03*
X129700000Y-79764603D03*
X123000000Y-76000000D03*
X151000000Y-108300000D03*
X126700000Y-76250000D03*
X118266393Y-79750000D03*
X150000000Y-92300000D03*
X149875213Y-108290935D03*
X123500000Y-113500000D03*
X146000000Y-92300000D03*
X151000000Y-113300000D03*
%TO.N,+3.3V*%
X130500000Y-108000000D03*
X136300000Y-81000000D03*
X154000000Y-94300000D03*
X158000000Y-93300000D03*
X154000000Y-92300000D03*
X154000000Y-90300000D03*
X158000000Y-90300000D03*
X158000000Y-94300000D03*
X158000000Y-91300000D03*
X132000000Y-113000000D03*
X153500000Y-87800000D03*
X158000000Y-92300000D03*
X154000000Y-93300000D03*
X129500000Y-108000000D03*
X154000000Y-91300000D03*
X130500000Y-112000000D03*
X129500000Y-112000000D03*
%TO.N,/V_IN*%
X157400000Y-113600000D03*
X155100000Y-114700000D03*
X155100000Y-112400000D03*
X114500000Y-116000000D03*
X156200000Y-113600000D03*
X155100000Y-113600000D03*
X114500000Y-117300000D03*
X157400000Y-112400000D03*
X114500000Y-118500000D03*
X156200000Y-112400000D03*
%TD*%
%TO.N,/USB -*%
D28*
X127250000Y-116647254D02*
X127250000Y-117250000D01*
X126719100Y-116116354D02*
X127250000Y-116647254D01*
X127250000Y-117250000D02*
X127024300Y-117475700D01*
X126719100Y-111469100D02*
X126719100Y-116116354D01*
X127024300Y-117475700D02*
X126980699Y-117475700D01*
X126000000Y-110750000D02*
X126719100Y-111469100D01*
X126000000Y-110000000D02*
X126000000Y-110750000D01*
X126250000Y-117750000D02*
X126250000Y-118320000D01*
X126524300Y-117475700D02*
X126250000Y-117750000D01*
X127250000Y-117745001D02*
X126980699Y-117475700D01*
X127250000Y-118320000D02*
X127250000Y-117745001D01*
X126980699Y-117475700D02*
X126524300Y-117475700D01*
%TO.N,/USB +*%
X126750000Y-118894999D02*
X126750000Y-118320000D01*
X127019301Y-119164300D02*
X126750000Y-118894999D01*
X127469692Y-119164300D02*
X127019301Y-119164300D01*
X127750000Y-118883992D02*
X127469692Y-119164300D01*
X127750000Y-118320000D02*
X127750000Y-118883992D01*
X127750000Y-116352746D02*
X127750000Y-118320000D01*
X127280900Y-115883646D02*
X127750000Y-116352746D01*
X127280900Y-111469100D02*
X127280900Y-115883646D01*
X128000000Y-110750000D02*
X127280900Y-111469100D01*
X128000000Y-110000000D02*
X128000000Y-110750000D01*
%TO.N,GND*%
D29*
X121273554Y-79750000D02*
X121273554Y-78026446D01*
X118250000Y-77950000D02*
X118300000Y-78000000D01*
X116500000Y-108000000D02*
X116000000Y-108500000D01*
X123255000Y-118320000D02*
X122680000Y-118895000D01*
X126674372Y-79750000D02*
X126674372Y-78025628D01*
X124500000Y-108000000D02*
X124000000Y-108500000D01*
X125000000Y-113520000D02*
X123520000Y-113520000D01*
X129701013Y-76144079D02*
X129701013Y-77998987D01*
X125000000Y-76000000D02*
X125000000Y-78000000D01*
X121293389Y-77993389D02*
X121300000Y-78000000D01*
X123000000Y-76000000D02*
X123000000Y-78000000D01*
X123000000Y-80000000D02*
X123000000Y-78000000D01*
X121293389Y-76250000D02*
X121293389Y-77993389D01*
X123520000Y-113520000D02*
X123500000Y-113500000D01*
X129701013Y-77998987D02*
X129700000Y-78000000D01*
X121273554Y-78026446D02*
X121300000Y-78000000D01*
X126700000Y-76250000D02*
X126700000Y-78000000D01*
X125000000Y-80250000D02*
X125000000Y-78000000D01*
X123800000Y-118320000D02*
X123255000Y-118320000D01*
X118250000Y-76250000D02*
X118250000Y-77950000D01*
X129700000Y-79764603D02*
X129700000Y-78000000D01*
X118266393Y-78033607D02*
X118300000Y-78000000D01*
X130745000Y-118320000D02*
X131320000Y-118895000D01*
X116000000Y-108500000D02*
X116000000Y-110000000D01*
X124000000Y-108500000D02*
X124000000Y-110000000D01*
X115500000Y-108000000D02*
X116000000Y-108500000D01*
X130920000Y-113920000D02*
X131000000Y-114000000D01*
X136305000Y-76605000D02*
X136300000Y-76600000D01*
X150962500Y-87337500D02*
X150500000Y-87800000D01*
X123500000Y-108000000D02*
X124000000Y-108500000D01*
X126674372Y-78025628D02*
X126700000Y-78000000D01*
X118266393Y-79750000D02*
X118266393Y-78033607D01*
X135037500Y-113000000D02*
X136000000Y-113000000D01*
X129500000Y-113920000D02*
X130920000Y-113920000D01*
X136305000Y-77657500D02*
X136305000Y-76605000D01*
X157000000Y-116837500D02*
X157000000Y-118300000D01*
X150962500Y-86300000D02*
X150962500Y-87337500D01*
X130200000Y-118320000D02*
X130745000Y-118320000D01*
%TO.N,/CC1*%
X125750000Y-117424622D02*
X125000000Y-116674622D01*
X125750000Y-118320000D02*
X125750000Y-117424622D01*
X125000000Y-116674622D02*
X125000000Y-114480000D01*
%TO.N,/CC2*%
X128750000Y-118320000D02*
X128750000Y-115662500D01*
X128750000Y-115662500D02*
X129500000Y-114912500D01*
%TO.N,Net-(U2-RESET)*%
X137000000Y-108500000D02*
X135500000Y-110000000D01*
X135500000Y-110000000D02*
X132000000Y-110000000D01*
%TO.N,+3.3V*%
X130000000Y-108500000D02*
X130000000Y-110000000D01*
X153037500Y-87337500D02*
X153500000Y-87800000D01*
X132962500Y-113000000D02*
X132000000Y-113000000D01*
X136305000Y-80995000D02*
X136300000Y-81000000D01*
X130000000Y-111500000D02*
X130000000Y-110000000D01*
X136305000Y-79732500D02*
X136305000Y-80995000D01*
X130500000Y-110500000D02*
X130000000Y-110000000D01*
X153037500Y-86300000D02*
X153037500Y-87337500D01*
X130500000Y-108000000D02*
X130000000Y-108500000D01*
X130500000Y-112000000D02*
X130500000Y-110500000D01*
X129500000Y-108000000D02*
X130000000Y-108500000D01*
X129500000Y-112000000D02*
X130000000Y-111500000D01*
%TD*%
%TA.AperFunction,Conductor*%
%TO.N,/CC2*%
G36*
X128848919Y-117598427D02*
G01*
X128852059Y-117604125D01*
X128893649Y-117788457D01*
X128893525Y-117794107D01*
X128761289Y-118279557D01*
X128755808Y-118286639D01*
X128746925Y-118287771D01*
X128739843Y-118282290D01*
X128738711Y-118279557D01*
X128606474Y-117794107D01*
X128606350Y-117788457D01*
X128647941Y-117604125D01*
X128653105Y-117596809D01*
X128659354Y-117595000D01*
X128840646Y-117595000D01*
X128848919Y-117598427D01*
G37*
%TD.AperFunction*%
%TD*%
%TA.AperFunction,Conductor*%
%TO.N,GND*%
G36*
X122916235Y-117981235D02*
G01*
X123184288Y-118249289D01*
X123184289Y-118249289D01*
X123252849Y-118220891D01*
X123257326Y-118220000D01*
X123637234Y-118220000D01*
X123645507Y-118223427D01*
X123648934Y-118231700D01*
X123648934Y-118407192D01*
X123645507Y-118415465D01*
X123637234Y-118418892D01*
X123636178Y-118418844D01*
X123325711Y-118390711D01*
X123325710Y-118390711D01*
X123182839Y-119088244D01*
X123177822Y-119095661D01*
X123169029Y-119097358D01*
X123166918Y-119096713D01*
X122688538Y-118899517D01*
X122682195Y-118893196D01*
X122681618Y-118885980D01*
X122896584Y-117986785D01*
X122901839Y-117979538D01*
X122910682Y-117978129D01*
X122916235Y-117981235D01*
G37*
%TD.AperFunction*%
%TD*%
%TA.AperFunction,Conductor*%
%TO.N,GND*%
G36*
X126801854Y-76303427D02*
G01*
X126803449Y-76305414D01*
X127136581Y-76828404D01*
X127138135Y-76837223D01*
X127137662Y-76838813D01*
X126710949Y-77971925D01*
X126704827Y-77978460D01*
X126695877Y-77978751D01*
X126689342Y-77972629D01*
X126689051Y-77971925D01*
X126600910Y-77737874D01*
X126262337Y-76838811D01*
X126262628Y-76829863D01*
X126263413Y-76828412D01*
X126596551Y-76305413D01*
X126603886Y-76300278D01*
X126606419Y-76300000D01*
X126793581Y-76300000D01*
X126801854Y-76303427D01*
G37*
%TD.AperFunction*%
%TD*%
%TA.AperFunction,Conductor*%
%TO.N,+3.3V*%
G36*
X129857513Y-111512616D02*
G01*
X129987383Y-111642486D01*
X129990810Y-111650759D01*
X129989727Y-111655675D01*
X129781831Y-112104724D01*
X129775246Y-112110791D01*
X129766855Y-112110666D01*
X129502115Y-112004383D01*
X129495714Y-111998120D01*
X129495616Y-111997884D01*
X129389333Y-111733144D01*
X129389431Y-111724190D01*
X129395272Y-111718170D01*
X129844327Y-111510271D01*
X129853272Y-111509906D01*
X129857513Y-111512616D01*
G37*
%TD.AperFunction*%
%TD*%
%TA.AperFunction,Conductor*%
%TO.N,+3.3V*%
G36*
X129775809Y-107889431D02*
G01*
X129781830Y-107895274D01*
X129960794Y-108281831D01*
X129989727Y-108344324D01*
X129990093Y-108353272D01*
X129987383Y-108357513D01*
X129857513Y-108487383D01*
X129849240Y-108490810D01*
X129844325Y-108489727D01*
X129395274Y-108281830D01*
X129389208Y-108275246D01*
X129389332Y-108266856D01*
X129495616Y-108002114D01*
X129501879Y-107995714D01*
X129502084Y-107995628D01*
X129766856Y-107889333D01*
X129775809Y-107889431D01*
G37*
%TD.AperFunction*%
%TD*%
%TA.AperFunction,Conductor*%
%TO.N,GND*%
G36*
X124233143Y-107889332D02*
G01*
X124497884Y-107995616D01*
X124504285Y-108001879D01*
X124504383Y-108002115D01*
X124610666Y-108266855D01*
X124610568Y-108275809D01*
X124604724Y-108281831D01*
X124155675Y-108489727D01*
X124146727Y-108490093D01*
X124142486Y-108487383D01*
X124012616Y-108357513D01*
X124009189Y-108349240D01*
X124010270Y-108344329D01*
X124218170Y-107895272D01*
X124224753Y-107889208D01*
X124233143Y-107889332D01*
G37*
%TD.AperFunction*%
%TD*%
%TA.AperFunction,Conductor*%
%TO.N,/V_IN*%
G36*
X158593106Y-106505023D02*
G01*
X158608104Y-106509427D01*
X158666855Y-106547172D01*
X158668042Y-106548541D01*
X158695518Y-106603402D01*
X158697163Y-106610960D01*
X158700000Y-106637331D01*
X158700000Y-115558170D01*
X158694975Y-115593114D01*
X158690570Y-115608112D01*
X158652827Y-115666855D01*
X158651458Y-115668042D01*
X158596597Y-115695518D01*
X158589039Y-115697163D01*
X158562668Y-115700000D01*
X153941830Y-115700000D01*
X153906889Y-115694975D01*
X153891890Y-115690570D01*
X153833144Y-115652827D01*
X153831957Y-115651458D01*
X153804477Y-115596583D01*
X153802832Y-115589021D01*
X153800000Y-115562668D01*
X153800000Y-106641829D01*
X153805023Y-106606893D01*
X153809427Y-106591895D01*
X153847172Y-106533144D01*
X153848541Y-106531957D01*
X153903420Y-106504477D01*
X153910979Y-106502833D01*
X153937332Y-106500000D01*
X158558170Y-106500000D01*
X158593106Y-106505023D01*
G37*
%TD.AperFunction*%
%TD*%
%TA.AperFunction,Conductor*%
%TO.N,GND*%
G36*
X130747151Y-118220891D02*
G01*
X130815710Y-118249289D01*
X130815710Y-118249288D01*
X130815711Y-118249289D01*
X130828833Y-118236165D01*
X130837104Y-118232740D01*
X130845378Y-118236166D01*
X130846596Y-118237599D01*
X130975247Y-118416178D01*
X131312052Y-118883693D01*
X131314107Y-118892409D01*
X131309398Y-118900025D01*
X131307018Y-118901349D01*
X130833081Y-119096713D01*
X130824126Y-119096698D01*
X130817805Y-119090355D01*
X130817162Y-119088251D01*
X130674289Y-118390711D01*
X130674288Y-118390711D01*
X130363822Y-118418844D01*
X130355273Y-118416178D01*
X130351114Y-118408248D01*
X130351066Y-118407192D01*
X130351066Y-118231700D01*
X130354493Y-118223427D01*
X130362766Y-118220000D01*
X130742674Y-118220000D01*
X130747151Y-118220891D01*
G37*
%TD.AperFunction*%
%TD*%
%TA.AperFunction,Conductor*%
%TO.N,GND*%
G36*
X118352306Y-76303427D02*
G01*
X118353504Y-76304831D01*
X118696330Y-76777493D01*
X118698413Y-76786202D01*
X118697834Y-76788415D01*
X118261533Y-77969771D01*
X118255453Y-77976345D01*
X118246505Y-77976693D01*
X118239931Y-77970613D01*
X118239460Y-77969422D01*
X117861885Y-76838160D01*
X117862516Y-76829228D01*
X117862687Y-76828897D01*
X118146678Y-76306114D01*
X118153638Y-76300481D01*
X118156959Y-76300000D01*
X118344033Y-76300000D01*
X118352306Y-76303427D01*
G37*
%TD.AperFunction*%
%TD*%
%TA.AperFunction,Conductor*%
%TO.N,GND*%
G36*
X121373659Y-79155994D02*
G01*
X121376369Y-79160235D01*
X121546889Y-79624766D01*
X121546523Y-79633714D01*
X121540501Y-79639558D01*
X121278149Y-79751604D01*
X121269195Y-79751702D01*
X121268959Y-79751604D01*
X121006606Y-79639558D01*
X121000343Y-79633157D01*
X121000218Y-79624766D01*
X121170739Y-79160235D01*
X121176806Y-79153650D01*
X121181722Y-79152567D01*
X121365386Y-79152567D01*
X121373659Y-79155994D01*
G37*
%TD.AperFunction*%
%TD*%
%TA.AperFunction,Conductor*%
%TO.N,GND*%
G36*
X151443039Y-106819685D02*
G01*
X151488794Y-106872489D01*
X151500000Y-106924000D01*
X151500000Y-113676000D01*
X151480315Y-113743039D01*
X151427511Y-113788794D01*
X151376000Y-113800000D01*
X145624000Y-113800000D01*
X145556961Y-113780315D01*
X145511206Y-113727511D01*
X145500000Y-113676000D01*
X145500000Y-106924000D01*
X145519685Y-106856961D01*
X145572489Y-106811206D01*
X145624000Y-106800000D01*
X151376000Y-106800000D01*
X151443039Y-106819685D01*
G37*
%TD.AperFunction*%
%TD*%
%TA.AperFunction,Conductor*%
%TO.N,Net-(U2-RESET)*%
G36*
X132758227Y-109257130D02*
G01*
X133495963Y-109896501D01*
X133499970Y-109904509D01*
X133500000Y-109905343D01*
X133500000Y-110094656D01*
X133496573Y-110102929D01*
X133495963Y-110103498D01*
X132758227Y-110742869D01*
X132749730Y-110745697D01*
X132742296Y-110742306D01*
X132007290Y-110008279D01*
X132003858Y-110000008D01*
X132007279Y-109991732D01*
X132007290Y-109991721D01*
X132102637Y-109896501D01*
X132742297Y-109257692D01*
X132750572Y-109254272D01*
X132758227Y-109257130D01*
G37*
%TD.AperFunction*%
%TD*%
%TA.AperFunction,Conductor*%
%TO.N,GND*%
G36*
X135602200Y-112421618D02*
G01*
X135603138Y-112422620D01*
X135997297Y-112896748D01*
X136000000Y-112904228D01*
X136000000Y-113095771D01*
X135997297Y-113103251D01*
X135603138Y-113577379D01*
X135595214Y-113581550D01*
X135586661Y-113578896D01*
X135585659Y-113577958D01*
X135131517Y-113100000D01*
X135044156Y-113008058D01*
X135040943Y-112999701D01*
X135044157Y-112991941D01*
X135585659Y-112422040D01*
X135593842Y-112418404D01*
X135602200Y-112421618D01*
G37*
%TD.AperFunction*%
%TD*%
%TA.AperFunction,Conductor*%
%TO.N,GND*%
G36*
X129705570Y-76142458D02*
G01*
X129967960Y-76254520D01*
X129974223Y-76260921D01*
X129974348Y-76269312D01*
X129803828Y-76733844D01*
X129797761Y-76740429D01*
X129792845Y-76741512D01*
X129609181Y-76741512D01*
X129600908Y-76738085D01*
X129598198Y-76733844D01*
X129427677Y-76269312D01*
X129428043Y-76260364D01*
X129434063Y-76254521D01*
X129696419Y-76142473D01*
X129705372Y-76142376D01*
X129705570Y-76142458D01*
G37*
%TD.AperFunction*%
%TD*%
%TA.AperFunction,Conductor*%
%TO.N,GND*%
G36*
X124435576Y-107935577D02*
G01*
X124568564Y-108068565D01*
X124571542Y-108073627D01*
X124730004Y-108628846D01*
X124728979Y-108637742D01*
X124723208Y-108642875D01*
X123270661Y-109241075D01*
X123261707Y-109241057D01*
X123255388Y-109234712D01*
X123254709Y-109228087D01*
X123387888Y-108522465D01*
X123392789Y-108514974D01*
X123393615Y-108514460D01*
X124421548Y-107933664D01*
X124430436Y-107932577D01*
X124435576Y-107935577D01*
G37*
%TD.AperFunction*%
%TD*%
%TA.AperFunction,Conductor*%
%TO.N,GND*%
G36*
X136408373Y-76608427D02*
G01*
X136408438Y-76608493D01*
X136884146Y-77091787D01*
X136887508Y-77100087D01*
X136884015Y-77108332D01*
X136883867Y-77108476D01*
X136313059Y-77650842D01*
X136304701Y-77654056D01*
X136296941Y-77650842D01*
X135726132Y-77108476D01*
X135722495Y-77100293D01*
X135725709Y-77091935D01*
X135725785Y-77091856D01*
X136201562Y-76608493D01*
X136209807Y-76605000D01*
X136400100Y-76605000D01*
X136408373Y-76608427D01*
G37*
%TD.AperFunction*%
%TD*%
%TA.AperFunction,Conductor*%
%TO.N,+3.3V*%
G36*
X130600105Y-111405994D02*
G01*
X130602815Y-111410235D01*
X130773335Y-111874766D01*
X130772969Y-111883714D01*
X130766947Y-111889558D01*
X130504595Y-112001604D01*
X130495641Y-112001702D01*
X130495405Y-112001604D01*
X130233052Y-111889558D01*
X130226789Y-111883157D01*
X130226664Y-111874766D01*
X130397185Y-111410235D01*
X130403252Y-111403650D01*
X130408168Y-111402567D01*
X130591832Y-111402567D01*
X130600105Y-111405994D01*
G37*
%TD.AperFunction*%
%TD*%
%TA.AperFunction,Conductor*%
%TO.N,GND*%
G36*
X115578451Y-107933664D02*
G01*
X116606370Y-108514452D01*
X116611888Y-108521505D01*
X116612112Y-108522468D01*
X116745290Y-109228087D01*
X116743457Y-109236852D01*
X116735963Y-109241754D01*
X116729338Y-109241075D01*
X115276791Y-108642875D01*
X115270446Y-108636556D01*
X115269995Y-108628846D01*
X115300631Y-108521505D01*
X115428458Y-108073624D01*
X115431433Y-108068567D01*
X115564424Y-107935576D01*
X115572696Y-107932150D01*
X115578451Y-107933664D01*
G37*
%TD.AperFunction*%
%TD*%
%TA.AperFunction,Conductor*%
%TO.N,GND*%
G36*
X150969741Y-86308715D02*
G01*
X150971686Y-86310660D01*
X151470109Y-86943313D01*
X151472537Y-86951933D01*
X151468892Y-86959117D01*
X151062499Y-87337500D01*
X151062498Y-87337501D01*
X151034101Y-87406060D01*
X151031565Y-87409856D01*
X150847030Y-87594392D01*
X150838757Y-87597819D01*
X150830484Y-87594392D01*
X150706879Y-87470787D01*
X150703452Y-87462514D01*
X150706879Y-87454241D01*
X150708137Y-87453150D01*
X150862500Y-87337500D01*
X150456107Y-86959117D01*
X150452387Y-86950971D01*
X150454889Y-86943315D01*
X150953311Y-86310663D01*
X150961121Y-86306287D01*
X150969741Y-86308715D01*
G37*
%TD.AperFunction*%
%TD*%
%TA.AperFunction,Conductor*%
%TO.N,GND*%
G36*
X123507478Y-118027453D02*
G01*
X123792685Y-118311713D01*
X123796126Y-118319981D01*
X123792713Y-118328259D01*
X123792685Y-118328287D01*
X123507478Y-118612546D01*
X123499200Y-118615959D01*
X123491821Y-118613323D01*
X123364486Y-118509377D01*
X123270166Y-118432380D01*
X123265924Y-118424493D01*
X123268501Y-118415917D01*
X123270527Y-118414410D01*
X123270708Y-118413492D01*
X123270710Y-118413492D01*
X123153671Y-118296453D01*
X123150244Y-118288180D01*
X123153669Y-118279909D01*
X123182644Y-118250933D01*
X123186440Y-118248398D01*
X123255000Y-118220000D01*
X123491823Y-118026675D01*
X123500396Y-118024099D01*
X123507478Y-118027453D01*
G37*
%TD.AperFunction*%
%TD*%
%TA.AperFunction,Conductor*%
%TO.N,+3.3V*%
G36*
X130437561Y-107937563D02*
G01*
X130562437Y-108062439D01*
X130565864Y-108070712D01*
X130562437Y-108078985D01*
X130070711Y-108570711D01*
X130514339Y-109014339D01*
X130517766Y-109022612D01*
X130514339Y-109030885D01*
X130508039Y-109034144D01*
X129269297Y-109246111D01*
X129260565Y-109244129D01*
X129255792Y-109236552D01*
X129256114Y-109231227D01*
X129472884Y-108507068D01*
X129478539Y-108500127D01*
X129482288Y-108498865D01*
X129929289Y-108429289D01*
X130421015Y-107937563D01*
X130429288Y-107934136D01*
X130437561Y-107937563D01*
G37*
%TD.AperFunction*%
%TD*%
%TA.AperFunction,Conductor*%
%TO.N,GND*%
G36*
X126774477Y-79155994D02*
G01*
X126777187Y-79160235D01*
X126947707Y-79624766D01*
X126947341Y-79633714D01*
X126941319Y-79639558D01*
X126678967Y-79751604D01*
X126670013Y-79751702D01*
X126669777Y-79751604D01*
X126407424Y-79639558D01*
X126401161Y-79633157D01*
X126401036Y-79624766D01*
X126571557Y-79160235D01*
X126577624Y-79153650D01*
X126582540Y-79152567D01*
X126766204Y-79152567D01*
X126774477Y-79155994D01*
G37*
%TD.AperFunction*%
%TD*%
%TA.AperFunction,Conductor*%
%TO.N,Net-(D1-A)*%
G36*
X121915908Y-115004843D02*
G01*
X121928595Y-115008966D01*
X121978095Y-115044927D01*
X121978096Y-115044928D01*
X121981091Y-115049050D01*
X122000000Y-115107240D01*
X122000000Y-118158335D01*
X121999523Y-118168042D01*
X121998575Y-118177664D01*
X121997150Y-118187271D01*
X121979500Y-118276001D01*
X121979500Y-119513997D01*
X121997150Y-119602728D01*
X121998574Y-119612331D01*
X121999523Y-119621967D01*
X122000000Y-119631662D01*
X122000000Y-122488335D01*
X121999523Y-122498042D01*
X121998575Y-122507664D01*
X121997150Y-122517271D01*
X121979500Y-122606001D01*
X121979500Y-123543997D01*
X121997150Y-123632728D01*
X121998574Y-123642331D01*
X121999523Y-123651967D01*
X122000000Y-123661662D01*
X122000000Y-124885319D01*
X121995154Y-124915912D01*
X121991032Y-124928598D01*
X121955080Y-124978089D01*
X121950959Y-124981084D01*
X121892771Y-125000000D01*
X114114680Y-125000000D01*
X114084087Y-124995154D01*
X114071401Y-124991032D01*
X114021901Y-124955068D01*
X114021894Y-124955058D01*
X114018900Y-124950936D01*
X114000000Y-124892756D01*
X114000000Y-120114680D01*
X114004843Y-120084094D01*
X114008965Y-120071405D01*
X114044923Y-120021906D01*
X114045522Y-120021471D01*
X114049063Y-120018900D01*
X114107243Y-120000000D01*
X119499999Y-120000000D01*
X119500000Y-120000000D01*
X119500000Y-115114680D01*
X119504843Y-115084094D01*
X119508965Y-115071405D01*
X119544923Y-115021906D01*
X119545522Y-115021471D01*
X119549063Y-115018900D01*
X119607243Y-115000000D01*
X121885320Y-115000000D01*
X121915908Y-115004843D01*
G37*
%TD.AperFunction*%
%TD*%
%TA.AperFunction,Conductor*%
%TO.N,+3.3V*%
G36*
X158459191Y-89318907D02*
G01*
X158495155Y-89368407D01*
X158500000Y-89399000D01*
X158500000Y-95201000D01*
X158481093Y-95259191D01*
X158431593Y-95295155D01*
X158401000Y-95300000D01*
X153099000Y-95300000D01*
X153040809Y-95281093D01*
X153004845Y-95231593D01*
X153000000Y-95201000D01*
X153000000Y-89399000D01*
X153018907Y-89340809D01*
X153068407Y-89304845D01*
X153099000Y-89300000D01*
X158401000Y-89300000D01*
X158459191Y-89318907D01*
G37*
%TD.AperFunction*%
%TD*%
%TA.AperFunction,Conductor*%
%TO.N,GND*%
G36*
X118366498Y-79155994D02*
G01*
X118369208Y-79160235D01*
X118539728Y-79624766D01*
X118539362Y-79633714D01*
X118533340Y-79639558D01*
X118270988Y-79751604D01*
X118262034Y-79751702D01*
X118261798Y-79751604D01*
X117999445Y-79639558D01*
X117993182Y-79633157D01*
X117993057Y-79624766D01*
X118163578Y-79160235D01*
X118169645Y-79153650D01*
X118174561Y-79152567D01*
X118358225Y-79152567D01*
X118366498Y-79155994D01*
G37*
%TD.AperFunction*%
%TD*%
%TA.AperFunction,Conductor*%
%TO.N,GND*%
G36*
X126685017Y-78028740D02*
G01*
X126685462Y-78029809D01*
X127108427Y-79204816D01*
X127108005Y-79213761D01*
X127107065Y-79215401D01*
X126777858Y-79694922D01*
X126770350Y-79699803D01*
X126768212Y-79700000D01*
X126581060Y-79700000D01*
X126572787Y-79696573D01*
X126570978Y-79694237D01*
X126263044Y-79171363D01*
X126261800Y-79162497D01*
X126262093Y-79161535D01*
X126663427Y-78029859D01*
X126669422Y-78023209D01*
X126678365Y-78022745D01*
X126685017Y-78028740D01*
G37*
%TD.AperFunction*%
%TD*%
%TA.AperFunction,Conductor*%
%TO.N,GND*%
G36*
X157100105Y-117705994D02*
G01*
X157102815Y-117710235D01*
X157273335Y-118174766D01*
X157272969Y-118183714D01*
X157266947Y-118189558D01*
X157004595Y-118301604D01*
X156995641Y-118301702D01*
X156995405Y-118301604D01*
X156733052Y-118189558D01*
X156726789Y-118183157D01*
X156726664Y-118174766D01*
X156897185Y-117710235D01*
X156903252Y-117703650D01*
X156908168Y-117702567D01*
X157091832Y-117702567D01*
X157100105Y-117705994D01*
G37*
%TD.AperFunction*%
%TD*%
%TA.AperFunction,Conductor*%
%TO.N,+3.3V*%
G36*
X136313059Y-79739157D02*
G01*
X136884762Y-80282373D01*
X136888399Y-80290556D01*
X136885888Y-80298103D01*
X136408513Y-80903048D01*
X136400698Y-80907420D01*
X136399328Y-80907500D01*
X136210672Y-80907500D01*
X136202399Y-80904073D01*
X136201487Y-80903048D01*
X135724111Y-80298103D01*
X135721676Y-80289485D01*
X135725236Y-80282374D01*
X136296941Y-79739156D01*
X136305299Y-79735943D01*
X136313059Y-79739157D01*
G37*
%TD.AperFunction*%
%TD*%
%TA.AperFunction,Conductor*%
%TO.N,GND*%
G36*
X130508177Y-118026675D02*
G01*
X130745000Y-118220000D01*
X130745005Y-118220002D01*
X130813559Y-118248398D01*
X130817355Y-118250934D01*
X130835156Y-118268735D01*
X130846328Y-118279907D01*
X130849755Y-118288180D01*
X130846328Y-118296453D01*
X130729289Y-118413491D01*
X130729634Y-118415229D01*
X130733243Y-118418838D01*
X130733244Y-118427793D01*
X130729833Y-118432380D01*
X130508179Y-118613323D01*
X130499603Y-118615900D01*
X130492521Y-118612546D01*
X130207313Y-118328285D01*
X130203873Y-118320019D01*
X130207285Y-118311741D01*
X130492522Y-118027452D01*
X130500799Y-118024040D01*
X130508177Y-118026675D01*
G37*
%TD.AperFunction*%
%TD*%
%TA.AperFunction,Conductor*%
%TO.N,GND*%
G36*
X121395309Y-76303427D02*
G01*
X121396849Y-76305328D01*
X121736483Y-76828347D01*
X121738114Y-76837152D01*
X121737599Y-76838896D01*
X121304482Y-77971977D01*
X121298327Y-77978482D01*
X121289376Y-77978729D01*
X121282871Y-77972574D01*
X121282589Y-77971885D01*
X120862275Y-76838727D01*
X120862611Y-76829778D01*
X120863317Y-76828468D01*
X121189953Y-76305502D01*
X121197242Y-76300300D01*
X121199876Y-76300000D01*
X121387036Y-76300000D01*
X121395309Y-76303427D01*
G37*
%TD.AperFunction*%
%TD*%
%TA.AperFunction,Conductor*%
%TO.N,/V_IN*%
G36*
X117959191Y-115518907D02*
G01*
X117995155Y-115568407D01*
X118000000Y-115599000D01*
X118000000Y-119401000D01*
X117981093Y-119459191D01*
X117931593Y-119495155D01*
X117901000Y-119500000D01*
X114099000Y-119500000D01*
X114040809Y-119481093D01*
X114004845Y-119431593D01*
X114000000Y-119401000D01*
X114000000Y-115599000D01*
X114018907Y-115540809D01*
X114068407Y-115504845D01*
X114099000Y-115500000D01*
X117901000Y-115500000D01*
X117959191Y-115518907D01*
G37*
%TD.AperFunction*%
%TD*%
%TA.AperFunction,Conductor*%
%TO.N,GND*%
G36*
X126704557Y-76248379D02*
G01*
X126966947Y-76360441D01*
X126973210Y-76366842D01*
X126973335Y-76375233D01*
X126802815Y-76839765D01*
X126796748Y-76846350D01*
X126791832Y-76847433D01*
X126608168Y-76847433D01*
X126599895Y-76844006D01*
X126597185Y-76839765D01*
X126426664Y-76375233D01*
X126427030Y-76366285D01*
X126433050Y-76360442D01*
X126695406Y-76248394D01*
X126704359Y-76248297D01*
X126704557Y-76248379D01*
G37*
%TD.AperFunction*%
%TD*%
%TA.AperFunction,Conductor*%
%TO.N,GND*%
G36*
X136309551Y-76598412D02*
G01*
X136567136Y-76710443D01*
X136573356Y-76716885D01*
X136573490Y-76725103D01*
X136407771Y-77189664D01*
X136401764Y-77196305D01*
X136396751Y-77197433D01*
X136213090Y-77197433D01*
X136204817Y-77194006D01*
X136202144Y-77189865D01*
X136026820Y-76725361D01*
X136027104Y-76716410D01*
X136033239Y-76710440D01*
X136300392Y-76598365D01*
X136309346Y-76598325D01*
X136309551Y-76598412D01*
G37*
%TD.AperFunction*%
%TD*%
%TA.AperFunction,Conductor*%
%TO.N,+3.3V*%
G36*
X153155670Y-87310271D02*
G01*
X153604725Y-87518169D01*
X153610791Y-87524753D01*
X153610666Y-87533144D01*
X153504383Y-87797884D01*
X153498120Y-87804285D01*
X153497884Y-87804383D01*
X153233144Y-87910666D01*
X153224190Y-87910568D01*
X153218169Y-87904725D01*
X153010271Y-87455672D01*
X153009906Y-87446727D01*
X153012614Y-87442488D01*
X153142487Y-87312615D01*
X153150759Y-87309189D01*
X153155670Y-87310271D01*
G37*
%TD.AperFunction*%
%TD*%
%TA.AperFunction,Conductor*%
%TO.N,GND*%
G36*
X150959191Y-89318907D02*
G01*
X150995155Y-89368407D01*
X151000000Y-89399000D01*
X151000000Y-95201000D01*
X150981093Y-95259191D01*
X150931593Y-95295155D01*
X150901000Y-95300000D01*
X145599000Y-95300000D01*
X145540809Y-95281093D01*
X145504845Y-95231593D01*
X145500000Y-95201000D01*
X145500000Y-89399000D01*
X145518907Y-89340809D01*
X145568407Y-89304845D01*
X145599000Y-89300000D01*
X150901000Y-89300000D01*
X150959191Y-89318907D01*
G37*
%TD.AperFunction*%
%TD*%
%TA.AperFunction,Conductor*%
%TO.N,Net-(U2-RESET)*%
G36*
X136161052Y-108152483D02*
G01*
X136270694Y-108197769D01*
X136996216Y-108497438D01*
X137002553Y-108503763D01*
X137002562Y-108503784D01*
X137347516Y-109338947D01*
X137347507Y-109347902D01*
X137341169Y-109354228D01*
X137340932Y-109354323D01*
X135626780Y-110018994D01*
X135617827Y-110018790D01*
X135614277Y-110016358D01*
X135483641Y-109885722D01*
X135480214Y-109877449D01*
X135481003Y-109873225D01*
X136145677Y-108159065D01*
X136151862Y-108152592D01*
X136160815Y-108152388D01*
X136161052Y-108152483D01*
G37*
%TD.AperFunction*%
%TD*%
%TA.AperFunction,Conductor*%
%TO.N,GND*%
G36*
X130508177Y-118026675D02*
G01*
X130745000Y-118220000D01*
X130745005Y-118220002D01*
X130813559Y-118248398D01*
X130817355Y-118250934D01*
X130835156Y-118268735D01*
X130846328Y-118279907D01*
X130849755Y-118288180D01*
X130846328Y-118296453D01*
X130729289Y-118413491D01*
X130729634Y-118415229D01*
X130733243Y-118418838D01*
X130733244Y-118427793D01*
X130729833Y-118432380D01*
X130508179Y-118613323D01*
X130499603Y-118615900D01*
X130492521Y-118612546D01*
X130207313Y-118328285D01*
X130203873Y-118320019D01*
X130207285Y-118311741D01*
X130492522Y-118027452D01*
X130500799Y-118024040D01*
X130508177Y-118026675D01*
G37*
%TD.AperFunction*%
%TD*%
%TA.AperFunction,Conductor*%
%TO.N,+3.3V*%
G36*
X136405024Y-80405994D02*
G01*
X136407771Y-80410336D01*
X136573490Y-80874896D01*
X136573042Y-80883840D01*
X136567136Y-80889556D01*
X136309583Y-81001573D01*
X136300630Y-81001730D01*
X136300391Y-81001633D01*
X136033240Y-80889559D01*
X136026936Y-80883199D01*
X136026820Y-80874639D01*
X136202144Y-80410135D01*
X136208271Y-80403605D01*
X136213090Y-80402567D01*
X136396751Y-80402567D01*
X136405024Y-80405994D01*
G37*
%TD.AperFunction*%
%TD*%
%TA.AperFunction,Conductor*%
%TO.N,GND*%
G36*
X125005035Y-78015628D02*
G01*
X125010561Y-78021154D01*
X125681128Y-79427866D01*
X125681595Y-79436809D01*
X125680080Y-79439712D01*
X125103500Y-80245111D01*
X125095898Y-80249843D01*
X125093987Y-80250000D01*
X124906013Y-80250000D01*
X124897740Y-80246573D01*
X124896500Y-80245111D01*
X124319919Y-79439712D01*
X124317889Y-79430990D01*
X124318868Y-79427873D01*
X124989439Y-78021153D01*
X124996092Y-78015161D01*
X125005035Y-78015628D01*
G37*
%TD.AperFunction*%
%TD*%
%TA.AperFunction,Conductor*%
%TO.N,GND*%
G36*
X157008059Y-116844157D02*
G01*
X157579762Y-117387373D01*
X157583399Y-117395556D01*
X157580888Y-117403103D01*
X157103513Y-118008048D01*
X157095698Y-118012420D01*
X157094328Y-118012500D01*
X156905672Y-118012500D01*
X156897399Y-118009073D01*
X156896487Y-118008048D01*
X156419111Y-117403103D01*
X156416676Y-117394485D01*
X156420236Y-117387374D01*
X156991941Y-116844156D01*
X157000299Y-116840943D01*
X157008059Y-116844157D01*
G37*
%TD.AperFunction*%
%TD*%
%TA.AperFunction,Conductor*%
%TO.N,GND*%
G36*
X115775809Y-107889431D02*
G01*
X115781830Y-107895274D01*
X115960794Y-108281831D01*
X115989727Y-108344324D01*
X115990093Y-108353272D01*
X115987383Y-108357513D01*
X115857513Y-108487383D01*
X115849240Y-108490810D01*
X115844325Y-108489727D01*
X115395274Y-108281830D01*
X115389208Y-108275246D01*
X115389332Y-108266856D01*
X115495616Y-108002114D01*
X115501879Y-107995714D01*
X115502084Y-107995628D01*
X115766856Y-107889333D01*
X115775809Y-107889431D01*
G37*
%TD.AperFunction*%
%TD*%
%TA.AperFunction,Conductor*%
%TO.N,GND*%
G36*
X123578985Y-107937563D02*
G01*
X124070711Y-108429289D01*
X124517707Y-108498864D01*
X124525354Y-108503523D01*
X124527116Y-108507070D01*
X124743884Y-109231224D01*
X124742973Y-109240132D01*
X124736030Y-109245788D01*
X124730702Y-109246111D01*
X123491960Y-109034144D01*
X123484383Y-109029371D01*
X123482401Y-109020639D01*
X123485658Y-109014341D01*
X123929289Y-108570711D01*
X123437563Y-108078985D01*
X123434136Y-108070712D01*
X123437563Y-108062439D01*
X123562439Y-107937563D01*
X123570712Y-107934136D01*
X123578985Y-107937563D01*
G37*
%TD.AperFunction*%
%TD*%
%TA.AperFunction,Conductor*%
%TO.N,GND*%
G36*
X123004557Y-75998379D02*
G01*
X123266947Y-76110441D01*
X123273210Y-76116842D01*
X123273335Y-76125233D01*
X123102815Y-76589765D01*
X123096748Y-76596350D01*
X123091832Y-76597433D01*
X122908168Y-76597433D01*
X122899895Y-76594006D01*
X122897185Y-76589765D01*
X122726664Y-76125233D01*
X122727030Y-76116285D01*
X122733050Y-76110442D01*
X122995406Y-75998394D01*
X123004359Y-75998297D01*
X123004557Y-75998379D01*
G37*
%TD.AperFunction*%
%TD*%
%TA.AperFunction,Conductor*%
%TO.N,GND*%
G36*
X129802856Y-76303427D02*
G01*
X129804460Y-76305428D01*
X130136596Y-76828413D01*
X130138138Y-76837234D01*
X130137671Y-76838800D01*
X129711939Y-77971917D01*
X129705822Y-77978456D01*
X129696872Y-77978754D01*
X129690333Y-77972637D01*
X129690051Y-77971959D01*
X129262347Y-76838824D01*
X129262631Y-76829875D01*
X129263427Y-76828404D01*
X129597562Y-76305400D01*
X129604904Y-76300274D01*
X129607422Y-76300000D01*
X129794583Y-76300000D01*
X129802856Y-76303427D01*
G37*
%TD.AperFunction*%
%TD*%
%TA.AperFunction,Conductor*%
%TO.N,GND*%
G36*
X123507478Y-118027453D02*
G01*
X123792685Y-118311713D01*
X123796126Y-118319981D01*
X123792713Y-118328259D01*
X123792685Y-118328287D01*
X123507478Y-118612546D01*
X123499200Y-118615959D01*
X123491821Y-118613323D01*
X123364486Y-118509377D01*
X123270166Y-118432380D01*
X123265924Y-118424493D01*
X123268501Y-118415917D01*
X123270527Y-118414410D01*
X123270708Y-118413492D01*
X123270710Y-118413492D01*
X123153671Y-118296453D01*
X123150244Y-118288180D01*
X123153669Y-118279909D01*
X123182644Y-118250933D01*
X123186440Y-118248398D01*
X123255000Y-118220000D01*
X123491823Y-118026675D01*
X123500396Y-118024099D01*
X123507478Y-118027453D01*
G37*
%TD.AperFunction*%
%TD*%
%TA.AperFunction,Conductor*%
%TO.N,GND*%
G36*
X123775809Y-107889431D02*
G01*
X123781830Y-107895274D01*
X123960794Y-108281831D01*
X123989727Y-108344324D01*
X123990093Y-108353272D01*
X123987383Y-108357513D01*
X123857513Y-108487383D01*
X123849240Y-108490810D01*
X123844325Y-108489727D01*
X123395274Y-108281830D01*
X123389208Y-108275246D01*
X123389332Y-108266856D01*
X123495616Y-108002114D01*
X123501879Y-107995714D01*
X123502084Y-107995628D01*
X123766856Y-107889333D01*
X123775809Y-107889431D01*
G37*
%TD.AperFunction*%
%TD*%
%TA.AperFunction,Conductor*%
%TO.N,+3.3V*%
G36*
X153044741Y-86308715D02*
G01*
X153046686Y-86310660D01*
X153545109Y-86943313D01*
X153547537Y-86951933D01*
X153543892Y-86959117D01*
X153137499Y-87337500D01*
X153291862Y-87453150D01*
X153296429Y-87460854D01*
X153294211Y-87469529D01*
X153293120Y-87470787D01*
X153169516Y-87594392D01*
X153161243Y-87597819D01*
X153152970Y-87594392D01*
X152968434Y-87409856D01*
X152965898Y-87406060D01*
X152937500Y-87337501D01*
X152937500Y-87337500D01*
X152531107Y-86959117D01*
X152527387Y-86950971D01*
X152529889Y-86943315D01*
X153028311Y-86310663D01*
X153036121Y-86306287D01*
X153044741Y-86308715D01*
G37*
%TD.AperFunction*%
%TD*%
%TA.AperFunction,Conductor*%
%TO.N,+3.3V*%
G36*
X130233143Y-107889332D02*
G01*
X130497884Y-107995616D01*
X130504285Y-108001879D01*
X130504383Y-108002115D01*
X130610666Y-108266855D01*
X130610568Y-108275809D01*
X130604724Y-108281831D01*
X130155675Y-108489727D01*
X130146727Y-108490093D01*
X130142486Y-108487383D01*
X130012616Y-108357513D01*
X130009189Y-108349240D01*
X130010270Y-108344329D01*
X130218170Y-107895272D01*
X130224753Y-107889208D01*
X130233143Y-107889332D01*
G37*
%TD.AperFunction*%
%TD*%
%TA.AperFunction,Conductor*%
%TO.N,+3.3V*%
G36*
X129578451Y-107933664D02*
G01*
X130606370Y-108514452D01*
X130611888Y-108521505D01*
X130612112Y-108522468D01*
X130745290Y-109228087D01*
X130743457Y-109236852D01*
X130735963Y-109241754D01*
X130729338Y-109241075D01*
X129276791Y-108642875D01*
X129270446Y-108636556D01*
X129269995Y-108628846D01*
X129300631Y-108521505D01*
X129428458Y-108073624D01*
X129431433Y-108068567D01*
X129564424Y-107935576D01*
X129572696Y-107932150D01*
X129578451Y-107933664D01*
G37*
%TD.AperFunction*%
%TD*%
%TA.AperFunction,Conductor*%
%TO.N,GND*%
G36*
X129800105Y-79170597D02*
G01*
X129802815Y-79174838D01*
X129973335Y-79639369D01*
X129972969Y-79648317D01*
X129966947Y-79654161D01*
X129704595Y-79766207D01*
X129695641Y-79766305D01*
X129695405Y-79766207D01*
X129433052Y-79654161D01*
X129426789Y-79647760D01*
X129426664Y-79639369D01*
X129597185Y-79174838D01*
X129603252Y-79168253D01*
X129608168Y-79167170D01*
X129791832Y-79167170D01*
X129800105Y-79170597D01*
G37*
%TD.AperFunction*%
%TD*%
%TA.AperFunction,Conductor*%
%TO.N,GND*%
G36*
X115578985Y-107937563D02*
G01*
X116070711Y-108429289D01*
X116517707Y-108498864D01*
X116525354Y-108503523D01*
X116527116Y-108507070D01*
X116743884Y-109231224D01*
X116742973Y-109240132D01*
X116736030Y-109245788D01*
X116730702Y-109246111D01*
X115491960Y-109034144D01*
X115484383Y-109029371D01*
X115482401Y-109020639D01*
X115485658Y-109014341D01*
X115929289Y-108570711D01*
X115437563Y-108078985D01*
X115434136Y-108070712D01*
X115437563Y-108062439D01*
X115562439Y-107937563D01*
X115570712Y-107934136D01*
X115578985Y-107937563D01*
G37*
%TD.AperFunction*%
%TD*%
%TA.AperFunction,Conductor*%
%TO.N,GND*%
G36*
X135883714Y-112727030D02*
G01*
X135889558Y-112733052D01*
X136001604Y-112995405D01*
X136001702Y-113004359D01*
X136001604Y-113004595D01*
X135889558Y-113266947D01*
X135883157Y-113273210D01*
X135874766Y-113273335D01*
X135410235Y-113102814D01*
X135403650Y-113096747D01*
X135402567Y-113091831D01*
X135402567Y-112908168D01*
X135405994Y-112899895D01*
X135410234Y-112897185D01*
X135874766Y-112726664D01*
X135883714Y-112727030D01*
G37*
%TD.AperFunction*%
%TD*%
%TA.AperFunction,Conductor*%
%TO.N,GND*%
G36*
X123578451Y-107933664D02*
G01*
X124606370Y-108514452D01*
X124611888Y-108521505D01*
X124612112Y-108522468D01*
X124745290Y-109228087D01*
X124743457Y-109236852D01*
X124735963Y-109241754D01*
X124729338Y-109241075D01*
X123276791Y-108642875D01*
X123270446Y-108636556D01*
X123269995Y-108628846D01*
X123300631Y-108521505D01*
X123428458Y-108073624D01*
X123431433Y-108068567D01*
X123564424Y-107935576D01*
X123572696Y-107932150D01*
X123578451Y-107933664D01*
G37*
%TD.AperFunction*%
%TD*%
%TA.AperFunction,Conductor*%
%TO.N,GND*%
G36*
X116233143Y-107889332D02*
G01*
X116497884Y-107995616D01*
X116504285Y-108001879D01*
X116504383Y-108002115D01*
X116610666Y-108266855D01*
X116610568Y-108275809D01*
X116604724Y-108281831D01*
X116155675Y-108489727D01*
X116146727Y-108490093D01*
X116142486Y-108487383D01*
X116012616Y-108357513D01*
X116009189Y-108349240D01*
X116010270Y-108344329D01*
X116218170Y-107895272D01*
X116224753Y-107889208D01*
X116233143Y-107889332D01*
G37*
%TD.AperFunction*%
%TD*%
%TA.AperFunction,Conductor*%
%TO.N,/CC1*%
G36*
X125848919Y-117598427D02*
G01*
X125852059Y-117604125D01*
X125893649Y-117788457D01*
X125893525Y-117794107D01*
X125761289Y-118279557D01*
X125755808Y-118286639D01*
X125746925Y-118287771D01*
X125739843Y-118282290D01*
X125738711Y-118279557D01*
X125606474Y-117794107D01*
X125606350Y-117788457D01*
X125647941Y-117604125D01*
X125653105Y-117596809D01*
X125659354Y-117595000D01*
X125840646Y-117595000D01*
X125848919Y-117598427D01*
G37*
%TD.AperFunction*%
%TD*%
%TA.AperFunction,Conductor*%
%TO.N,+3.3V*%
G36*
X130738292Y-110758942D02*
G01*
X130744611Y-110765287D01*
X130745290Y-110771912D01*
X130612112Y-111477531D01*
X130607210Y-111485025D01*
X130606370Y-111485547D01*
X129578451Y-112066335D01*
X129569563Y-112067422D01*
X129564423Y-112064422D01*
X129431435Y-111931434D01*
X129428457Y-111926372D01*
X129301880Y-111482873D01*
X129269995Y-111371152D01*
X129271020Y-111362257D01*
X129276791Y-111357124D01*
X130729340Y-110758924D01*
X130738292Y-110758942D01*
G37*
%TD.AperFunction*%
%TD*%
%TA.AperFunction,Conductor*%
%TO.N,GND*%
G36*
X121284216Y-78028735D02*
G01*
X121284663Y-78029805D01*
X121708420Y-79204806D01*
X121708003Y-79213751D01*
X121707052Y-79215408D01*
X121377041Y-79694933D01*
X121369528Y-79699805D01*
X121367403Y-79700000D01*
X121180250Y-79700000D01*
X121171977Y-79696573D01*
X121170162Y-79694226D01*
X120887935Y-79213751D01*
X120863033Y-79171357D01*
X120861798Y-79162489D01*
X120862084Y-79161551D01*
X121262628Y-78029868D01*
X121268618Y-78023215D01*
X121277561Y-78022744D01*
X121284216Y-78028735D01*
G37*
%TD.AperFunction*%
%TD*%
%TA.AperFunction,Conductor*%
%TO.N,GND*%
G36*
X129710658Y-78027370D02*
G01*
X129710949Y-78028074D01*
X130137662Y-79161186D01*
X130137371Y-79170136D01*
X130136581Y-79171595D01*
X129803449Y-79694586D01*
X129796114Y-79699722D01*
X129793581Y-79700000D01*
X129606419Y-79700000D01*
X129598146Y-79696573D01*
X129596551Y-79694586D01*
X129263418Y-79171595D01*
X129261864Y-79162776D01*
X129262332Y-79161200D01*
X129689051Y-78028073D01*
X129695173Y-78021539D01*
X129704123Y-78021248D01*
X129710658Y-78027370D01*
G37*
%TD.AperFunction*%
%TD*%
%TA.AperFunction,Conductor*%
%TO.N,GND*%
G36*
X123103403Y-76003297D02*
G01*
X123678061Y-76560051D01*
X123681619Y-76568269D01*
X123680481Y-76573489D01*
X123010561Y-77978845D01*
X123003908Y-77984838D01*
X122994965Y-77984371D01*
X122989439Y-77978845D01*
X122319518Y-76573489D01*
X122319051Y-76564546D01*
X122321936Y-76560053D01*
X122896597Y-76003297D01*
X122904738Y-76000000D01*
X123095262Y-76000000D01*
X123103403Y-76003297D01*
G37*
%TD.AperFunction*%
%TD*%
%TA.AperFunction,Conductor*%
%TO.N,GND*%
G36*
X123625671Y-113227275D02*
G01*
X124090158Y-113417028D01*
X124096520Y-113423329D01*
X124097433Y-113427859D01*
X124097433Y-113611505D01*
X124094006Y-113619778D01*
X124089356Y-113622630D01*
X123624703Y-113773940D01*
X123615775Y-113773243D01*
X123610452Y-113767707D01*
X123498531Y-113524558D01*
X123498185Y-113515610D01*
X123498268Y-113515392D01*
X123610438Y-113233798D01*
X123616682Y-113227383D01*
X123625636Y-113227261D01*
X123625671Y-113227275D01*
G37*
%TD.AperFunction*%
%TD*%
%TA.AperFunction,Conductor*%
%TO.N,GND*%
G36*
X123100105Y-79405994D02*
G01*
X123102815Y-79410235D01*
X123273335Y-79874766D01*
X123272969Y-79883714D01*
X123266947Y-79889558D01*
X123004595Y-80001604D01*
X122995641Y-80001702D01*
X122995405Y-80001604D01*
X122733052Y-79889558D01*
X122726789Y-79883157D01*
X122726664Y-79874766D01*
X122897185Y-79410235D01*
X122903252Y-79403650D01*
X122908168Y-79402567D01*
X123091832Y-79402567D01*
X123100105Y-79405994D01*
G37*
%TD.AperFunction*%
%TD*%
%TA.AperFunction,Conductor*%
%TO.N,GND*%
G36*
X123005035Y-78015628D02*
G01*
X123010561Y-78021154D01*
X123680481Y-79426510D01*
X123680948Y-79435453D01*
X123678061Y-79439948D01*
X123103403Y-79996703D01*
X123095262Y-80000000D01*
X122904738Y-80000000D01*
X122896597Y-79996703D01*
X122321938Y-79439948D01*
X122318380Y-79431730D01*
X122319517Y-79426512D01*
X122989439Y-78021153D01*
X122996092Y-78015161D01*
X123005035Y-78015628D01*
G37*
%TD.AperFunction*%
%TD*%
%TA.AperFunction,Conductor*%
%TO.N,GND*%
G36*
X125100105Y-79655994D02*
G01*
X125102815Y-79660235D01*
X125273335Y-80124766D01*
X125272969Y-80133714D01*
X125266947Y-80139558D01*
X125004595Y-80251604D01*
X124995641Y-80251702D01*
X124995405Y-80251604D01*
X124733052Y-80139558D01*
X124726789Y-80133157D01*
X124726664Y-80124766D01*
X124897185Y-79660235D01*
X124903252Y-79653650D01*
X124908168Y-79652567D01*
X125091832Y-79652567D01*
X125100105Y-79655994D01*
G37*
%TD.AperFunction*%
%TD*%
%TA.AperFunction,Conductor*%
%TO.N,GND*%
G36*
X116435576Y-107935577D02*
G01*
X116568564Y-108068565D01*
X116571542Y-108073627D01*
X116730004Y-108628846D01*
X116728979Y-108637742D01*
X116723208Y-108642875D01*
X115270661Y-109241075D01*
X115261707Y-109241057D01*
X115255388Y-109234712D01*
X115254709Y-109228087D01*
X115387888Y-108522465D01*
X115392789Y-108514974D01*
X115393615Y-108514460D01*
X116421548Y-107933664D01*
X116430436Y-107932577D01*
X116435576Y-107935577D01*
G37*
%TD.AperFunction*%
%TD*%
%TA.AperFunction,Conductor*%
%TO.N,GND*%
G36*
X118277214Y-78028688D02*
G01*
X118277667Y-78029757D01*
X118708352Y-79204711D01*
X118707982Y-79213658D01*
X118706939Y-79215466D01*
X118369887Y-79695028D01*
X118362326Y-79699826D01*
X118360315Y-79700000D01*
X118173167Y-79700000D01*
X118164894Y-79696573D01*
X118163020Y-79694124D01*
X117888287Y-79215466D01*
X117862931Y-79171289D01*
X117861785Y-79162409D01*
X117862023Y-79161638D01*
X118255632Y-78029939D01*
X118261586Y-78023252D01*
X118270525Y-78022733D01*
X118277214Y-78028688D01*
G37*
%TD.AperFunction*%
%TD*%
%TA.AperFunction,Conductor*%
%TO.N,GND*%
G36*
X118254557Y-76248379D02*
G01*
X118516947Y-76360441D01*
X118523210Y-76366842D01*
X118523335Y-76375233D01*
X118352815Y-76839765D01*
X118346748Y-76846350D01*
X118341832Y-76847433D01*
X118158168Y-76847433D01*
X118149895Y-76844006D01*
X118147185Y-76839765D01*
X117976664Y-76375233D01*
X117977030Y-76366285D01*
X117983050Y-76360442D01*
X118245406Y-76248394D01*
X118254359Y-76248297D01*
X118254557Y-76248379D01*
G37*
%TD.AperFunction*%
%TD*%
%TA.AperFunction,Conductor*%
%TO.N,+3.3V*%
G36*
X132413338Y-112421103D02*
G01*
X132414340Y-112422041D01*
X132955842Y-112991941D01*
X132959056Y-113000299D01*
X132955842Y-113008059D01*
X132414340Y-113577958D01*
X132406157Y-113581595D01*
X132397799Y-113578381D01*
X132396861Y-113577379D01*
X132002703Y-113103251D01*
X132000000Y-113095771D01*
X132000000Y-112904228D01*
X132002703Y-112896748D01*
X132396862Y-112422619D01*
X132404785Y-112418449D01*
X132413338Y-112421103D01*
G37*
%TD.AperFunction*%
%TD*%
%TA.AperFunction,Conductor*%
%TO.N,GND*%
G36*
X125103403Y-76003297D02*
G01*
X125678061Y-76560051D01*
X125681619Y-76568269D01*
X125680481Y-76573489D01*
X125010561Y-77978845D01*
X125003908Y-77984838D01*
X124994965Y-77984371D01*
X124989439Y-77978845D01*
X124319518Y-76573489D01*
X124319051Y-76564546D01*
X124321936Y-76560053D01*
X124896597Y-76003297D01*
X124904738Y-76000000D01*
X125095262Y-76000000D01*
X125103403Y-76003297D01*
G37*
%TD.AperFunction*%
%TD*%
%TA.AperFunction,Conductor*%
%TO.N,GND*%
G36*
X130995654Y-113704387D02*
G01*
X131000670Y-113711806D01*
X131000882Y-113713381D01*
X131014104Y-113913844D01*
X131011229Y-113922325D01*
X131009660Y-113923812D01*
X130739838Y-114135937D01*
X130731216Y-114138356D01*
X130728512Y-114137699D01*
X130421115Y-114022841D01*
X130414564Y-114016735D01*
X130413510Y-114011881D01*
X130413510Y-113829548D01*
X130416937Y-113821275D01*
X130422862Y-113818086D01*
X130986862Y-113702688D01*
X130995654Y-113704387D01*
G37*
%TD.AperFunction*%
%TD*%
%TA.AperFunction,Conductor*%
%TO.N,+3.3V*%
G36*
X130435576Y-107935577D02*
G01*
X130568564Y-108068565D01*
X130571542Y-108073627D01*
X130730004Y-108628846D01*
X130728979Y-108637742D01*
X130723208Y-108642875D01*
X129270661Y-109241075D01*
X129261707Y-109241057D01*
X129255388Y-109234712D01*
X129254709Y-109228087D01*
X129387888Y-108522465D01*
X129392789Y-108514974D01*
X129393615Y-108514460D01*
X130421548Y-107933664D01*
X130430436Y-107932577D01*
X130435576Y-107935577D01*
G37*
%TD.AperFunction*%
%TD*%
%TA.AperFunction,Conductor*%
%TO.N,GND*%
G36*
X150857513Y-87312616D02*
G01*
X150987383Y-87442486D01*
X150990810Y-87450759D01*
X150989727Y-87455675D01*
X150781831Y-87904724D01*
X150775246Y-87910791D01*
X150766855Y-87910666D01*
X150502115Y-87804383D01*
X150495714Y-87798120D01*
X150495616Y-87797884D01*
X150389333Y-87533144D01*
X150389431Y-87524190D01*
X150395272Y-87518170D01*
X150844327Y-87310271D01*
X150853272Y-87309906D01*
X150857513Y-87312616D01*
G37*
%TD.AperFunction*%
%TD*%
%TA.AperFunction,Conductor*%
%TO.N,Net-(J2-VBUS-PadA4)*%
G36*
X124725408Y-115004843D02*
G01*
X124738095Y-115008966D01*
X124787595Y-115044927D01*
X124787596Y-115044928D01*
X124790591Y-115049050D01*
X124809500Y-115107240D01*
X124809500Y-116712515D01*
X124838499Y-116782528D01*
X124838500Y-116782529D01*
X124838501Y-116782530D01*
X124838502Y-116782532D01*
X124892090Y-116836120D01*
X124892091Y-116836120D01*
X124945734Y-116889763D01*
X124963939Y-116914822D01*
X124975327Y-116937172D01*
X124986083Y-116979471D01*
X125000987Y-117536983D01*
X124996961Y-117567692D01*
X124989100Y-117594286D01*
X124976476Y-117621225D01*
X124915487Y-117712500D01*
X124915484Y-117712507D01*
X124915483Y-117712508D01*
X124913154Y-117724222D01*
X124913154Y-117724225D01*
X124899500Y-117792867D01*
X124899500Y-118847129D01*
X124899501Y-118847136D01*
X124915484Y-118927494D01*
X124915485Y-118927496D01*
X124976373Y-119018620D01*
X124976376Y-119018624D01*
X125067505Y-119079515D01*
X125147867Y-119095500D01*
X125352132Y-119095499D01*
X125352135Y-119095498D01*
X125352139Y-119095498D01*
X125432492Y-119079516D01*
X125432493Y-119079515D01*
X125432495Y-119079515D01*
X125432495Y-119079514D01*
X125434898Y-119078519D01*
X125460082Y-119066905D01*
X125474981Y-119062703D01*
X125532442Y-119063829D01*
X125541979Y-119066928D01*
X125566387Y-119078768D01*
X125567505Y-119079515D01*
X125647867Y-119095500D01*
X125852132Y-119095499D01*
X125932495Y-119079515D01*
X125932498Y-119079512D01*
X125941509Y-119075781D01*
X125941539Y-119075854D01*
X125958162Y-119068189D01*
X125977506Y-119062732D01*
X126026720Y-119061569D01*
X126028972Y-119062090D01*
X126046612Y-119067970D01*
X126110086Y-119095997D01*
X126133385Y-119098700D01*
X126366614Y-119098699D01*
X126389914Y-119095997D01*
X126438074Y-119074731D01*
X126468012Y-119066808D01*
X126482787Y-119065301D01*
X126540193Y-119076855D01*
X126549865Y-119082125D01*
X126572494Y-119099049D01*
X126597170Y-119123725D01*
X126597171Y-119123725D01*
X126790574Y-119317128D01*
X126790574Y-119317129D01*
X126866469Y-119393025D01*
X126866470Y-119393025D01*
X126866471Y-119393026D01*
X126873046Y-119395749D01*
X126873048Y-119395751D01*
X126895513Y-119405056D01*
X126895514Y-119405056D01*
X126895516Y-119405057D01*
X126936591Y-119422070D01*
X126936592Y-119422071D01*
X126965634Y-119434101D01*
X127084490Y-119434101D01*
X127087553Y-119434101D01*
X127087585Y-119434100D01*
X127401407Y-119434100D01*
X127401439Y-119434101D01*
X127404502Y-119434101D01*
X127416025Y-119434101D01*
X127523358Y-119434101D01*
X127523359Y-119434101D01*
X127593477Y-119405056D01*
X127622522Y-119393026D01*
X127698418Y-119317130D01*
X127698418Y-119317128D01*
X127712339Y-119303207D01*
X127712341Y-119303204D01*
X127889853Y-119125690D01*
X127889876Y-119125670D01*
X127893317Y-119122228D01*
X127893323Y-119122225D01*
X127902830Y-119112718D01*
X127923416Y-119092130D01*
X127937469Y-119080462D01*
X127940285Y-119078533D01*
X127986170Y-119061723D01*
X127997519Y-119060565D01*
X128046177Y-119067891D01*
X128048308Y-119068794D01*
X128064701Y-119077641D01*
X128067505Y-119079515D01*
X128147867Y-119095500D01*
X128352132Y-119095499D01*
X128352135Y-119095498D01*
X128352139Y-119095498D01*
X128432492Y-119079516D01*
X128432493Y-119079515D01*
X128432495Y-119079515D01*
X128432495Y-119079514D01*
X128434898Y-119078519D01*
X128460082Y-119066905D01*
X128474981Y-119062703D01*
X128532442Y-119063829D01*
X128541979Y-119066928D01*
X128566387Y-119078768D01*
X128567505Y-119079515D01*
X128647867Y-119095500D01*
X128852132Y-119095499D01*
X128932495Y-119079515D01*
X129023624Y-119018624D01*
X129084515Y-118927495D01*
X129100500Y-118847133D01*
X129100499Y-118052702D01*
X129105342Y-118022117D01*
X129105755Y-118020845D01*
X129109464Y-118009428D01*
X129145422Y-117959929D01*
X129146021Y-117959494D01*
X129149562Y-117956923D01*
X129207742Y-117938023D01*
X129584820Y-117938023D01*
X129615408Y-117942866D01*
X129628095Y-117946989D01*
X129677595Y-117982950D01*
X129677596Y-117982951D01*
X129680591Y-117987073D01*
X129699500Y-118045263D01*
X129699500Y-118778263D01*
X129703676Y-118806930D01*
X129703292Y-118837897D01*
X129700745Y-118852782D01*
X129674552Y-118904676D01*
X129667198Y-118912330D01*
X129645309Y-118929475D01*
X129567340Y-118974490D01*
X129567331Y-118974497D01*
X129567327Y-118974502D01*
X129469497Y-119072332D01*
X129469495Y-119072334D01*
X129469495Y-119072335D01*
X129400312Y-119192164D01*
X129364500Y-119325817D01*
X129364500Y-119464183D01*
X129400312Y-119597836D01*
X129469495Y-119717665D01*
X129567335Y-119815505D01*
X129687164Y-119884688D01*
X129820817Y-119920500D01*
X129820819Y-119920500D01*
X129883407Y-119920500D01*
X129913995Y-119925343D01*
X129926682Y-119929466D01*
X129976182Y-119965427D01*
X129976188Y-119965434D01*
X129978889Y-119969152D01*
X129996760Y-120013074D01*
X129996843Y-120013644D01*
X129997845Y-120030383D01*
X129977959Y-120825822D01*
X129972351Y-120856282D01*
X129967914Y-120868860D01*
X129930730Y-120917444D01*
X129926236Y-120920541D01*
X129870059Y-120938023D01*
X124114680Y-120938023D01*
X124084087Y-120933177D01*
X124071401Y-120929055D01*
X124021901Y-120893091D01*
X124021894Y-120893081D01*
X124018900Y-120888959D01*
X124000000Y-120830779D01*
X124000000Y-120035180D01*
X124004843Y-120004594D01*
X124008965Y-119991905D01*
X124044923Y-119942406D01*
X124045522Y-119941971D01*
X124049063Y-119939400D01*
X124107243Y-119920500D01*
X124179181Y-119920500D01*
X124179183Y-119920500D01*
X124312836Y-119884688D01*
X124432665Y-119815505D01*
X124530505Y-119717665D01*
X124599688Y-119597836D01*
X124635500Y-119464183D01*
X124635500Y-119325817D01*
X124599688Y-119192164D01*
X124530505Y-119072335D01*
X124432665Y-118974495D01*
X124432662Y-118974493D01*
X124356108Y-118930294D01*
X124332041Y-118910805D01*
X124321933Y-118899580D01*
X124297430Y-118846864D01*
X124295980Y-118836346D01*
X124296085Y-118808552D01*
X124300500Y-118778260D01*
X124300500Y-117861740D01*
X124290573Y-117793607D01*
X124290211Y-117792867D01*
X124240537Y-117691258D01*
X124239387Y-117688707D01*
X124239198Y-117688518D01*
X124239198Y-117688517D01*
X124156483Y-117605802D01*
X124132927Y-117594286D01*
X124069605Y-117563330D01*
X124044253Y-117545544D01*
X124040906Y-117542306D01*
X124031930Y-117533622D01*
X124004693Y-117486365D01*
X124002927Y-117479266D01*
X124000000Y-117455373D01*
X124000000Y-117000001D01*
X124000000Y-117000000D01*
X123999999Y-117000000D01*
X122304500Y-117000000D01*
X122246309Y-116981093D01*
X122210345Y-116931593D01*
X122205500Y-116901000D01*
X122205500Y-115107251D01*
X122205500Y-115107240D01*
X122205498Y-115107229D01*
X122205463Y-115106782D01*
X122205500Y-115106627D01*
X122205500Y-115103350D01*
X122206286Y-115103350D01*
X122219738Y-115047285D01*
X122266258Y-115007542D01*
X122304157Y-115000000D01*
X124694820Y-115000000D01*
X124725408Y-115004843D01*
G37*
%TD.AperFunction*%
%TD*%
%TA.AperFunction,Conductor*%
%TO.N,+3.3V*%
G36*
X132589765Y-112897185D02*
G01*
X132596350Y-112903252D01*
X132597433Y-112908168D01*
X132597433Y-113091831D01*
X132594006Y-113100104D01*
X132589765Y-113102814D01*
X132125233Y-113273335D01*
X132116285Y-113272969D01*
X132110441Y-113266947D01*
X132039185Y-113100104D01*
X131998394Y-113004593D01*
X131998297Y-112995641D01*
X131998395Y-112995405D01*
X132110442Y-112733050D01*
X132116842Y-112726789D01*
X132125233Y-112726664D01*
X132589765Y-112897185D01*
G37*
%TD.AperFunction*%
%TD*%
%TA.AperFunction,Conductor*%
%TO.N,+3.3V*%
G36*
X130499720Y-110025736D02*
G01*
X130505589Y-110032499D01*
X130506023Y-110034230D01*
X130732499Y-111358920D01*
X130732421Y-111363274D01*
X130601938Y-111990682D01*
X130596898Y-111998084D01*
X130590483Y-112000000D01*
X130403980Y-112000000D01*
X130396846Y-111997574D01*
X129757640Y-111505877D01*
X129753173Y-111498117D01*
X129754308Y-111491377D01*
X130484025Y-110030971D01*
X130490787Y-110025103D01*
X130499720Y-110025736D01*
G37*
%TD.AperFunction*%
%TD*%
%TA.AperFunction,Conductor*%
%TO.N,GND*%
G36*
X125004557Y-75998379D02*
G01*
X125266947Y-76110441D01*
X125273210Y-76116842D01*
X125273335Y-76125233D01*
X125102815Y-76589765D01*
X125096748Y-76596350D01*
X125091832Y-76597433D01*
X124908168Y-76597433D01*
X124899895Y-76594006D01*
X124897185Y-76589765D01*
X124726664Y-76125233D01*
X124727030Y-76116285D01*
X124733050Y-76110442D01*
X124995406Y-75998394D01*
X125004359Y-75998297D01*
X125004557Y-75998379D01*
G37*
%TD.AperFunction*%
%TD*%
%TA.AperFunction,Conductor*%
%TO.N,GND*%
G36*
X121297946Y-76248379D02*
G01*
X121560336Y-76360441D01*
X121566599Y-76366842D01*
X121566724Y-76375233D01*
X121396204Y-76839765D01*
X121390137Y-76846350D01*
X121385221Y-76847433D01*
X121201557Y-76847433D01*
X121193284Y-76844006D01*
X121190574Y-76839765D01*
X121020053Y-76375233D01*
X121020419Y-76366285D01*
X121026439Y-76360442D01*
X121288795Y-76248394D01*
X121297748Y-76248297D01*
X121297946Y-76248379D01*
G37*
%TD.AperFunction*%
%TD*%
%TA.AperFunction,Conductor*%
%TO.N,/USB +*%
G36*
X128364786Y-110375813D02*
G01*
X128366472Y-110376400D01*
X128373158Y-110382353D01*
X128373158Y-110382354D01*
X128373694Y-110383462D01*
X128374843Y-110389232D01*
X128311366Y-111487765D01*
X128310218Y-111492183D01*
X128309203Y-111494282D01*
X128303398Y-111499891D01*
X128302454Y-111500308D01*
X128298961Y-111501241D01*
X127407682Y-111595884D01*
X127458818Y-112154514D01*
X127458340Y-112159052D01*
X127457811Y-112160755D01*
X127452085Y-112167639D01*
X127450912Y-112168256D01*
X127445465Y-112169601D01*
X127115627Y-112169601D01*
X127111150Y-112168710D01*
X127109501Y-112168027D01*
X127103172Y-112161696D01*
X127102489Y-112160046D01*
X127101600Y-112155573D01*
X127101600Y-111472578D01*
X127101824Y-111470298D01*
X127102268Y-111468067D01*
X127102928Y-111465892D01*
X127154003Y-111342586D01*
X127154254Y-111342024D01*
X127154651Y-111341192D01*
X127154763Y-111340754D01*
X127155046Y-111340070D01*
X127154562Y-111338108D01*
X127248705Y-110451525D01*
X127250064Y-110447167D01*
X127251179Y-110445119D01*
X127257233Y-110439801D01*
X127258197Y-110439429D01*
X127261737Y-110438661D01*
X128360272Y-110375184D01*
X128364786Y-110375813D01*
G37*
%TD.AperFunction*%
%TD*%
%TA.AperFunction,Conductor*%
%TO.N,/USB -*%
G36*
X126740088Y-110438767D02*
G01*
X126748150Y-110442666D01*
X126751048Y-110449213D01*
X126845884Y-111342318D01*
X126897509Y-111466948D01*
X126898400Y-111471425D01*
X126898400Y-112157901D01*
X126894973Y-112166174D01*
X126886700Y-112169601D01*
X126552620Y-112169601D01*
X126544347Y-112166174D01*
X126540920Y-112157901D01*
X126540969Y-112156834D01*
X126592316Y-111595884D01*
X125699213Y-111501048D01*
X125691348Y-111496766D01*
X125688767Y-111490088D01*
X125687430Y-111466948D01*
X125625050Y-110387404D01*
X125627994Y-110378949D01*
X125636056Y-110375050D01*
X125637394Y-110375050D01*
X126740088Y-110438767D01*
G37*
%TD.AperFunction*%
%TD*%
M02*
