M48
; DRILL file KiCad 10.0.6 date 2026-10-06T13:55:27
; FORMAT={-:-/ absolute / metric / decimal}
; #@! TF.CreationDate,2026-10-06T13:55:27-04:00
; #@! TF.GenerationSoftware,Kicad,Pcbnew,10.0.6
; #@! TF.FileFunction,Plated,1,4,PTH
FMAT,2
METRIC
; #@! TA.AperFunction,Plated,PTH,ViaDrill
T1C0.300
; #@! TA.AperFunction,Plated,PTH,ComponentDrill
T2C0.600
; #@! TA.AperFunction,Plated,PTH,ComponentDrill
T3C0.800
; #@! TA.AperFunction,Plated,PTH,ComponentDrill
T4C1.000
%
G90
G05
T1
X114.5Y-116.0
X114.5Y-117.3
X114.5Y-118.5
X115.5Y-108.0
X116.5Y-108.0
X118.25Y-76.25
X118.266Y-79.75
X118.5Y-86.0
X119.5Y-102.5
X121.274Y-79.75
X121.293Y-76.25
X123.0Y-76.0
X123.0Y-80.0
X123.5Y-108.0
X123.5Y-113.5
X124.5Y-108.0
X125.0Y-76.0
X125.0Y-80.25
X126.674Y-79.75
X126.7Y-76.25
X129.5Y-86.0
X129.5Y-102.5
X129.5Y-108.0
X129.5Y-112.0
X129.7Y-79.765
X129.701Y-76.144
X130.5Y-108.0
X130.5Y-112.0
X131.0Y-114.0
X132.0Y-113.0
X136.0Y-113.0
X136.3Y-76.6
X136.3Y-81.0
X139.0Y-87.0
X144.0Y-78.5
X146.0Y-90.3
X146.0Y-91.3
X146.0Y-92.3
X146.0Y-93.3
X146.0Y-94.3
X147.5Y-112.3
X147.5Y-113.3
X148.625Y-112.309
X148.625Y-113.309
X149.875Y-107.291
X149.875Y-108.291
X149.875Y-109.291
X149.875Y-110.291
X149.875Y-111.291
X149.875Y-112.291
X149.875Y-113.291
X150.0Y-90.3
X150.0Y-91.3
X150.0Y-92.3
X150.0Y-93.3
X150.0Y-94.3
X150.5Y-87.8
X151.0Y-107.3
X151.0Y-108.3
X151.0Y-109.3
X151.0Y-110.3
X151.0Y-111.3
X151.0Y-112.3
X151.0Y-113.3
X153.5Y-87.8
X154.0Y-90.3
X154.0Y-91.3
X154.0Y-92.3
X154.0Y-93.3
X154.0Y-94.3
X155.1Y-112.4
X155.1Y-113.6
X155.1Y-114.7
X156.0Y-78.5
X156.2Y-112.4
X156.2Y-113.6
X157.0Y-118.3
X157.4Y-112.4
X157.4Y-113.6
X158.0Y-90.3
X158.0Y-91.3
X158.0Y-92.3
X158.0Y-93.3
X158.0Y-94.3
T3
X138.5Y-95.455
X138.5Y-97.455
X150.0Y-119.455
X150.0Y-121.455
T4
X136.0Y-118.0
X136.0Y-123.5
X137.0Y-108.5
X142.0Y-118.0
X142.0Y-123.5
X147.5Y-86.3
X156.5Y-86.3
T2
G00X122.68Y-118.345
M15
G01X122.68Y-119.445
M16
G05
G00X122.68Y-122.675
M15
G01X122.68Y-123.475
M16
G05
G00X131.32Y-118.345
M15
G01X131.32Y-119.445
M16
G05
G00X131.32Y-122.675
M15
G01X131.32Y-123.475
M16
G05
M30
