%TF.GenerationSoftware,KiCad,Pcbnew,10.0.6*%
%TF.CreationDate,2026-10-06T13:55:22-04:00*%
%TF.ProjectId,E103-RTL8812CU-Breakout-Board,45313033-2d52-4544-9c38-38313243552d,rev?*%
%TF.SameCoordinates,Original*%
%TF.FileFunction,Copper,L4,Bot*%
%TF.FilePolarity,Positive*%
%FSLAX46Y46*%
G04 Gerber Fmt 4.6, Leading zero omitted, Abs format (unit mm)*
G04 Created by KiCad (PCBNEW 10.0.6) date 2026-10-06 13:55:22*
%MOMM*%
%LPD*%
G01*
G04 APERTURE LIST*
G04 Aperture macros list*
%AMRoundRect*
0 Rectangle with rounded corners*
0 $1 Rounding radius*
0 $2 $3 $4 $5 $6 $7 $8 $9 X,Y pos of 4 corners*
0 Add a 4 corners polygon primitive as box body*
4,1,4,$2,$3,$4,$5,$6,$7,$8,$9,$2,$3,0*
0 Add four circle primitives for the rounded corners*
1,1,$1+$1,$2,$3*
1,1,$1+$1,$4,$5*
1,1,$1+$1,$6,$7*
1,1,$1+$1,$8,$9*
0 Add four rect primitives between the rounded corners*
20,1,$1+$1,$2,$3,$4,$5,0*
20,1,$1+$1,$4,$5,$6,$7,0*
20,1,$1+$1,$6,$7,$8,$9,0*
20,1,$1+$1,$8,$9,$2,$3,0*%
G04 Aperture macros list end*
%TA.AperFunction,ComponentPad*%
%ADD10O,1.000000X2.100000*%
%TD*%
%TA.AperFunction,ComponentPad*%
%ADD11O,1.000000X1.800000*%
%TD*%
%TA.AperFunction,ComponentPad*%
%ADD12R,1.700000X1.700000*%
%TD*%
%TA.AperFunction,ComponentPad*%
%ADD13RoundRect,0.250000X0.550000X-0.550000X0.550000X0.550000X-0.550000X0.550000X-0.550000X-0.550000X0*%
%TD*%
%TA.AperFunction,ComponentPad*%
%ADD14C,1.600000*%
%TD*%
%TA.AperFunction,ViaPad*%
%ADD15C,0.600000*%
%TD*%
G04 APERTURE END LIST*
D10*
%TO.P,J2,SH,SHIELD_SH*%
%TO.N,GND*%
X122680000Y-118895000D03*
D11*
X122680000Y-123075000D03*
D10*
X131320000Y-118895000D03*
D11*
X131320000Y-123075000D03*
%TD*%
D12*
%TO.P,TP7,1,1_1*%
%TO.N,Net-(U2-RESET)*%
X137000000Y-108500000D03*
%TD*%
%TO.P,TP6,1,1_1*%
%TO.N,GND*%
X156500000Y-86300000D03*
%TD*%
D13*
%TO.P,C5,1*%
%TO.N,+3.3V*%
X138500000Y-97455113D03*
D14*
%TO.P,C5,2*%
%TO.N,GND*%
X138500000Y-95455113D03*
%TD*%
D12*
%TO.P,TP5,1,1_1*%
%TO.N,+3.3V*%
X147500000Y-86300000D03*
%TD*%
D13*
%TO.P,C6,1*%
%TO.N,/V_IN*%
X150000000Y-121455112D03*
D14*
%TO.P,C6,2*%
%TO.N,GND*%
X150000000Y-119455112D03*
%TD*%
D12*
%TO.P,TP3,1,1_1*%
%TO.N,GND*%
X136000000Y-123500000D03*
%TD*%
%TO.P,TP1,1,1_1*%
%TO.N,/V_IN*%
X142000000Y-118000000D03*
%TD*%
%TO.P,TP4,1,1_1*%
%TO.N,GND*%
X142000000Y-123500000D03*
%TD*%
%TO.P,TP2,1,1_1*%
%TO.N,/V_IN*%
X136000000Y-118000000D03*
%TD*%
D15*
%TO.N,GND*%
X151000000Y-111300000D03*
X129701013Y-76144079D03*
X118500000Y-86000000D03*
X123500000Y-108000000D03*
X144000000Y-78500000D03*
X129500000Y-102500000D03*
X121273554Y-79750000D03*
X115500000Y-108000000D03*
X131000000Y-114000000D03*
X124500000Y-108000000D03*
X148624787Y-112309065D03*
X149875213Y-109290935D03*
X149875213Y-111290935D03*
X150000000Y-90300000D03*
X149875213Y-110290935D03*
X139000000Y-87000000D03*
X156000000Y-78500000D03*
X126674372Y-79750000D03*
X136300000Y-76600000D03*
X149875213Y-112290935D03*
X151000000Y-112300000D03*
X119500000Y-102500000D03*
X150000000Y-94300000D03*
X146000000Y-90300000D03*
X129500000Y-86000000D03*
X136000000Y-113000000D03*
X146000000Y-91300000D03*
X150500000Y-87800000D03*
X151000000Y-109300000D03*
X123000000Y-80000000D03*
X150000000Y-91300000D03*
X151000000Y-110300000D03*
X146000000Y-93300000D03*
X146000000Y-94300000D03*
X149875213Y-113290935D03*
X149875213Y-107290935D03*
X157000000Y-118300000D03*
X125000000Y-80250000D03*
X148624787Y-113309065D03*
X116500000Y-108000000D03*
X121293389Y-76250000D03*
X147500000Y-113300000D03*
X118250000Y-76250000D03*
X150000000Y-93300000D03*
X125000000Y-76000000D03*
X151000000Y-107300000D03*
X147500000Y-112300000D03*
X129700000Y-79764603D03*
X123000000Y-76000000D03*
X151000000Y-108300000D03*
X126700000Y-76250000D03*
X118266393Y-79750000D03*
X150000000Y-92300000D03*
X149875213Y-108290935D03*
X123500000Y-113500000D03*
X146000000Y-92300000D03*
X151000000Y-113300000D03*
%TO.N,+3.3V*%
X130500000Y-108000000D03*
X136300000Y-81000000D03*
X154000000Y-94300000D03*
X158000000Y-93300000D03*
X154000000Y-92300000D03*
X154000000Y-90300000D03*
X158000000Y-90300000D03*
X158000000Y-94300000D03*
X158000000Y-91300000D03*
X132000000Y-113000000D03*
X153500000Y-87800000D03*
X158000000Y-92300000D03*
X154000000Y-93300000D03*
X129500000Y-108000000D03*
X154000000Y-91300000D03*
X130500000Y-112000000D03*
X129500000Y-112000000D03*
%TO.N,/V_IN*%
X157400000Y-113600000D03*
X155100000Y-114700000D03*
X155100000Y-112400000D03*
X114500000Y-116000000D03*
X156200000Y-113600000D03*
X155100000Y-113600000D03*
X114500000Y-117300000D03*
X157400000Y-112400000D03*
X114500000Y-118500000D03*
X156200000Y-112400000D03*
%TD*%
%TA.AperFunction,Conductor*%
%TO.N,+3.3V*%
G36*
X122610870Y-75519407D02*
G01*
X122646834Y-75568907D01*
X122646834Y-75630093D01*
X122622684Y-75669501D01*
X122606950Y-75685236D01*
X122599497Y-75692689D01*
X122599496Y-75692690D01*
X122533609Y-75806809D01*
X122516207Y-75871757D01*
X122499500Y-75934108D01*
X122499500Y-76065892D01*
X122513540Y-76118290D01*
X122533609Y-76193190D01*
X122599496Y-76307309D01*
X122599498Y-76307311D01*
X122599500Y-76307314D01*
X122692686Y-76400500D01*
X122692688Y-76400501D01*
X122692690Y-76400503D01*
X122806810Y-76466390D01*
X122806808Y-76466390D01*
X122806812Y-76466391D01*
X122806814Y-76466392D01*
X122934108Y-76500500D01*
X122934110Y-76500500D01*
X123065890Y-76500500D01*
X123065892Y-76500500D01*
X123193186Y-76466392D01*
X123193188Y-76466390D01*
X123193190Y-76466390D01*
X123307309Y-76400503D01*
X123307309Y-76400502D01*
X123307314Y-76400500D01*
X123400500Y-76307314D01*
X123456701Y-76209971D01*
X123466390Y-76193190D01*
X123466390Y-76193188D01*
X123466392Y-76193186D01*
X123500500Y-76065892D01*
X123500500Y-75934108D01*
X123466392Y-75806814D01*
X123466390Y-75806811D01*
X123466390Y-75806809D01*
X123400503Y-75692690D01*
X123400501Y-75692688D01*
X123400500Y-75692686D01*
X123377315Y-75669501D01*
X123349540Y-75614987D01*
X123359111Y-75554555D01*
X123402376Y-75511290D01*
X123447321Y-75500500D01*
X124552679Y-75500500D01*
X124610870Y-75519407D01*
X124646834Y-75568907D01*
X124646834Y-75630093D01*
X124622684Y-75669501D01*
X124606950Y-75685236D01*
X124599497Y-75692689D01*
X124599496Y-75692690D01*
X124533609Y-75806809D01*
X124516207Y-75871757D01*
X124499500Y-75934108D01*
X124499500Y-76065892D01*
X124513540Y-76118290D01*
X124533609Y-76193190D01*
X124599496Y-76307309D01*
X124599498Y-76307311D01*
X124599500Y-76307314D01*
X124692686Y-76400500D01*
X124692688Y-76400501D01*
X124692690Y-76400503D01*
X124806810Y-76466390D01*
X124806808Y-76466390D01*
X124806812Y-76466391D01*
X124806814Y-76466392D01*
X124934108Y-76500500D01*
X124934110Y-76500500D01*
X125065890Y-76500500D01*
X125065892Y-76500500D01*
X125193186Y-76466392D01*
X125193188Y-76466390D01*
X125193190Y-76466390D01*
X125307309Y-76400503D01*
X125307309Y-76400502D01*
X125307314Y-76400500D01*
X125400500Y-76307314D01*
X125466392Y-76193186D01*
X125468824Y-76184108D01*
X126199500Y-76184108D01*
X126199500Y-76315892D01*
X126222171Y-76400503D01*
X126233609Y-76443190D01*
X126299496Y-76557309D01*
X126299498Y-76557311D01*
X126299500Y-76557314D01*
X126392686Y-76650500D01*
X126392688Y-76650501D01*
X126392690Y-76650503D01*
X126506810Y-76716390D01*
X126506808Y-76716390D01*
X126506812Y-76716391D01*
X126506814Y-76716392D01*
X126634108Y-76750500D01*
X126634110Y-76750500D01*
X126765890Y-76750500D01*
X126765892Y-76750500D01*
X126893186Y-76716392D01*
X126893188Y-76716390D01*
X126893190Y-76716390D01*
X127007309Y-76650503D01*
X127007309Y-76650502D01*
X127007314Y-76650500D01*
X127100500Y-76557314D01*
X127107851Y-76544582D01*
X127166390Y-76443190D01*
X127166390Y-76443188D01*
X127166392Y-76443186D01*
X127200500Y-76315892D01*
X127200500Y-76184108D01*
X127166392Y-76056814D01*
X127166390Y-76056811D01*
X127166390Y-76056809D01*
X127100503Y-75942690D01*
X127100501Y-75942688D01*
X127100500Y-75942686D01*
X127007314Y-75849500D01*
X127007311Y-75849498D01*
X127007309Y-75849496D01*
X126893189Y-75783609D01*
X126893191Y-75783609D01*
X126843799Y-75770375D01*
X126765892Y-75749500D01*
X126634108Y-75749500D01*
X126556200Y-75770375D01*
X126506809Y-75783609D01*
X126392690Y-75849496D01*
X126299496Y-75942690D01*
X126233609Y-76056809D01*
X126227881Y-76078187D01*
X126199500Y-76184108D01*
X125468824Y-76184108D01*
X125500500Y-76065892D01*
X125500500Y-75934108D01*
X125466392Y-75806814D01*
X125466390Y-75806811D01*
X125466390Y-75806809D01*
X125400503Y-75692690D01*
X125400501Y-75692688D01*
X125400500Y-75692686D01*
X125377315Y-75669501D01*
X125349540Y-75614987D01*
X125359111Y-75554555D01*
X125402376Y-75511290D01*
X125447321Y-75500500D01*
X129445250Y-75500500D01*
X129503441Y-75519407D01*
X129539405Y-75568907D01*
X129539405Y-75630093D01*
X129503441Y-75679593D01*
X129494750Y-75685236D01*
X129393703Y-75743575D01*
X129300509Y-75836769D01*
X129234622Y-75950888D01*
X129217971Y-76013031D01*
X129200513Y-76078187D01*
X129200513Y-76209971D01*
X129212507Y-76254734D01*
X129234622Y-76337269D01*
X129300509Y-76451388D01*
X129300511Y-76451390D01*
X129300513Y-76451393D01*
X129393699Y-76544579D01*
X129393701Y-76544580D01*
X129393703Y-76544582D01*
X129507823Y-76610469D01*
X129507821Y-76610469D01*
X129507825Y-76610470D01*
X129507827Y-76610471D01*
X129635121Y-76644579D01*
X129635123Y-76644579D01*
X129766903Y-76644579D01*
X129766905Y-76644579D01*
X129894199Y-76610471D01*
X129894201Y-76610469D01*
X129894203Y-76610469D01*
X130008322Y-76544582D01*
X130008322Y-76544581D01*
X130008327Y-76544579D01*
X130018798Y-76534108D01*
X135799500Y-76534108D01*
X135799500Y-76665892D01*
X135829579Y-76778151D01*
X135833609Y-76793190D01*
X135899496Y-76907309D01*
X135899498Y-76907311D01*
X135899500Y-76907314D01*
X135992686Y-77000500D01*
X135992688Y-77000501D01*
X135992690Y-77000503D01*
X136106810Y-77066390D01*
X136106808Y-77066390D01*
X136106812Y-77066391D01*
X136106814Y-77066392D01*
X136234108Y-77100500D01*
X136234110Y-77100500D01*
X136365890Y-77100500D01*
X136365892Y-77100500D01*
X136493186Y-77066392D01*
X136493188Y-77066390D01*
X136493190Y-77066390D01*
X136607309Y-77000503D01*
X136607309Y-77000502D01*
X136607314Y-77000500D01*
X136700500Y-76907314D01*
X136766392Y-76793186D01*
X136800500Y-76665892D01*
X136800500Y-76534108D01*
X136766392Y-76406814D01*
X136766390Y-76406811D01*
X136766390Y-76406809D01*
X136700503Y-76292690D01*
X136700501Y-76292688D01*
X136700500Y-76292686D01*
X136607314Y-76199500D01*
X136607311Y-76199498D01*
X136607309Y-76199496D01*
X136493189Y-76133609D01*
X136493191Y-76133609D01*
X136443799Y-76120375D01*
X136365892Y-76099500D01*
X136234108Y-76099500D01*
X136156200Y-76120375D01*
X136106809Y-76133609D01*
X135992690Y-76199496D01*
X135899496Y-76292690D01*
X135833609Y-76406809D01*
X135821664Y-76451389D01*
X135799500Y-76534108D01*
X130018798Y-76534108D01*
X130101513Y-76451393D01*
X130127254Y-76406809D01*
X130167403Y-76337269D01*
X130167403Y-76337267D01*
X130167405Y-76337265D01*
X130201513Y-76209971D01*
X130201513Y-76078187D01*
X130167405Y-75950893D01*
X130167403Y-75950890D01*
X130167403Y-75950888D01*
X130101516Y-75836769D01*
X130101514Y-75836767D01*
X130101513Y-75836765D01*
X130008327Y-75743579D01*
X130008324Y-75743577D01*
X130008322Y-75743575D01*
X129907276Y-75685236D01*
X129866335Y-75639767D01*
X129859939Y-75578916D01*
X129890532Y-75525928D01*
X129946428Y-75501042D01*
X129956776Y-75500500D01*
X157934108Y-75500500D01*
X157996460Y-75500500D01*
X158003522Y-75500752D01*
X158028505Y-75502538D01*
X158206345Y-75515258D01*
X158220308Y-75517265D01*
X158415549Y-75559737D01*
X158429089Y-75563713D01*
X158616288Y-75633534D01*
X158629122Y-75639395D01*
X158804479Y-75735148D01*
X158816355Y-75742780D01*
X158901888Y-75806809D01*
X158976292Y-75862507D01*
X158986968Y-75871757D01*
X159128242Y-76013031D01*
X159137492Y-76023707D01*
X159257217Y-76183641D01*
X159264853Y-76195523D01*
X159360600Y-76370869D01*
X159366468Y-76383718D01*
X159436284Y-76570904D01*
X159440264Y-76584457D01*
X159482732Y-76779681D01*
X159484742Y-76793662D01*
X159499248Y-76996476D01*
X159499500Y-77003539D01*
X159499500Y-96401000D01*
X159480593Y-96459191D01*
X159431093Y-96495155D01*
X159400500Y-96500000D01*
X145400000Y-96500000D01*
X145400000Y-96500001D01*
X145400000Y-113653890D01*
X145381093Y-113712081D01*
X145331593Y-113748045D01*
X145301000Y-113752890D01*
X131492417Y-113752890D01*
X131434226Y-113733983D01*
X131406681Y-113703391D01*
X131400501Y-113692688D01*
X131400500Y-113692686D01*
X131307314Y-113599500D01*
X131307311Y-113599498D01*
X131307309Y-113599496D01*
X131193189Y-113533609D01*
X131193191Y-113533609D01*
X131143799Y-113520375D01*
X131065892Y-113499500D01*
X130934108Y-113499500D01*
X130856200Y-113520375D01*
X130806809Y-113533609D01*
X130692690Y-113599496D01*
X130599498Y-113692688D01*
X130593319Y-113703391D01*
X130547849Y-113744332D01*
X130507583Y-113752890D01*
X124079413Y-113752890D01*
X124021222Y-113733983D01*
X123985258Y-113684483D01*
X123983786Y-113628269D01*
X124000500Y-113565892D01*
X124000500Y-113434108D01*
X123966392Y-113306814D01*
X123966390Y-113306811D01*
X123966390Y-113306809D01*
X123900503Y-113192690D01*
X123900501Y-113192688D01*
X123900500Y-113192686D01*
X123807314Y-113099500D01*
X123807311Y-113099498D01*
X123807309Y-113099496D01*
X123693189Y-113033609D01*
X123693191Y-113033609D01*
X123678722Y-113029732D01*
X123565892Y-112999500D01*
X123434108Y-112999500D01*
X123356200Y-113020375D01*
X123306809Y-113033609D01*
X123192690Y-113099496D01*
X123099496Y-113192690D01*
X123033609Y-113306809D01*
X123033608Y-113306814D01*
X122999500Y-113434108D01*
X122999500Y-113565892D01*
X123016213Y-113628269D01*
X123013012Y-113689368D01*
X122974506Y-113736918D01*
X122920587Y-113752890D01*
X113099500Y-113752890D01*
X113041309Y-113733983D01*
X113005345Y-113684483D01*
X113000500Y-113653890D01*
X113000500Y-112934108D01*
X135499500Y-112934108D01*
X135499500Y-113065892D01*
X135510465Y-113106814D01*
X135533609Y-113193190D01*
X135599496Y-113307309D01*
X135599498Y-113307311D01*
X135599500Y-113307314D01*
X135692686Y-113400500D01*
X135692688Y-113400501D01*
X135692690Y-113400503D01*
X135806810Y-113466390D01*
X135806808Y-113466390D01*
X135806812Y-113466391D01*
X135806814Y-113466392D01*
X135934108Y-113500500D01*
X135934110Y-113500500D01*
X136065890Y-113500500D01*
X136065892Y-113500500D01*
X136193186Y-113466392D01*
X136193188Y-113466390D01*
X136193190Y-113466390D01*
X136307309Y-113400503D01*
X136307309Y-113400502D01*
X136307314Y-113400500D01*
X136400500Y-113307314D01*
X136442766Y-113234108D01*
X136466390Y-113193190D01*
X136466390Y-113193188D01*
X136466392Y-113193186D01*
X136500500Y-113065892D01*
X136500500Y-112934108D01*
X136466392Y-112806814D01*
X136466390Y-112806811D01*
X136466390Y-112806809D01*
X136400503Y-112692690D01*
X136400501Y-112692688D01*
X136400500Y-112692686D01*
X136307314Y-112599500D01*
X136307311Y-112599498D01*
X136307309Y-112599496D01*
X136193189Y-112533609D01*
X136193191Y-112533609D01*
X136143799Y-112520375D01*
X136065892Y-112499500D01*
X135934108Y-112499500D01*
X135856200Y-112520375D01*
X135806809Y-112533609D01*
X135692690Y-112599496D01*
X135599496Y-112692690D01*
X135533609Y-112806809D01*
X135524000Y-112842673D01*
X135499500Y-112934108D01*
X113000500Y-112934108D01*
X113000500Y-107934108D01*
X114999500Y-107934108D01*
X114999500Y-108065892D01*
X115008036Y-108097749D01*
X115033609Y-108193190D01*
X115099496Y-108307309D01*
X115099498Y-108307311D01*
X115099500Y-108307314D01*
X115192686Y-108400500D01*
X115192688Y-108400501D01*
X115192690Y-108400503D01*
X115306810Y-108466390D01*
X115306808Y-108466390D01*
X115306812Y-108466391D01*
X115306814Y-108466392D01*
X115434108Y-108500500D01*
X115434110Y-108500500D01*
X115565890Y-108500500D01*
X115565892Y-108500500D01*
X115693186Y-108466392D01*
X115693188Y-108466390D01*
X115693190Y-108466390D01*
X115807309Y-108400503D01*
X115807309Y-108400502D01*
X115807314Y-108400500D01*
X115900500Y-108307314D01*
X115914264Y-108283474D01*
X115959733Y-108242534D01*
X116020583Y-108236138D01*
X116073571Y-108266731D01*
X116085734Y-108283471D01*
X116099500Y-108307314D01*
X116192686Y-108400500D01*
X116192688Y-108400501D01*
X116192690Y-108400503D01*
X116306810Y-108466390D01*
X116306808Y-108466390D01*
X116306812Y-108466391D01*
X116306814Y-108466392D01*
X116434108Y-108500500D01*
X116434110Y-108500500D01*
X116565890Y-108500500D01*
X116565892Y-108500500D01*
X116693186Y-108466392D01*
X116693188Y-108466390D01*
X116693190Y-108466390D01*
X116807309Y-108400503D01*
X116807309Y-108400502D01*
X116807314Y-108400500D01*
X116900500Y-108307314D01*
X116900503Y-108307309D01*
X116966390Y-108193190D01*
X116966390Y-108193188D01*
X116966392Y-108193186D01*
X117000500Y-108065892D01*
X117000500Y-107934108D01*
X122999500Y-107934108D01*
X122999500Y-108065892D01*
X123008036Y-108097749D01*
X123033609Y-108193190D01*
X123099496Y-108307309D01*
X123099498Y-108307311D01*
X123099500Y-108307314D01*
X123192686Y-108400500D01*
X123192688Y-108400501D01*
X123192690Y-108400503D01*
X123306810Y-108466390D01*
X123306808Y-108466390D01*
X123306812Y-108466391D01*
X123306814Y-108466392D01*
X123434108Y-108500500D01*
X123434110Y-108500500D01*
X123565890Y-108500500D01*
X123565892Y-108500500D01*
X123693186Y-108466392D01*
X123693188Y-108466390D01*
X123693190Y-108466390D01*
X123807309Y-108400503D01*
X123807309Y-108400502D01*
X123807314Y-108400500D01*
X123900500Y-108307314D01*
X123914264Y-108283474D01*
X123959733Y-108242534D01*
X124020583Y-108236138D01*
X124073571Y-108266731D01*
X124085734Y-108283471D01*
X124099500Y-108307314D01*
X124192686Y-108400500D01*
X124192688Y-108400501D01*
X124192690Y-108400503D01*
X124306810Y-108466390D01*
X124306808Y-108466390D01*
X124306812Y-108466391D01*
X124306814Y-108466392D01*
X124434108Y-108500500D01*
X124434110Y-108500500D01*
X124565890Y-108500500D01*
X124565892Y-108500500D01*
X124693186Y-108466392D01*
X124693188Y-108466390D01*
X124693190Y-108466390D01*
X124807309Y-108400503D01*
X124807309Y-108400502D01*
X124807314Y-108400500D01*
X124900500Y-108307314D01*
X124900503Y-108307309D01*
X124966390Y-108193190D01*
X124966390Y-108193188D01*
X124966392Y-108193186D01*
X125000500Y-108065892D01*
X125000500Y-107934108D01*
X124966392Y-107806814D01*
X124966390Y-107806811D01*
X124966390Y-107806809D01*
X124900503Y-107692690D01*
X124900501Y-107692688D01*
X124900500Y-107692686D01*
X124838067Y-107630253D01*
X135949500Y-107630253D01*
X135949500Y-109369746D01*
X135949501Y-109369758D01*
X135961132Y-109428227D01*
X135961133Y-109428231D01*
X136005448Y-109494552D01*
X136071769Y-109538867D01*
X136116231Y-109547711D01*
X136130241Y-109550498D01*
X136130246Y-109550498D01*
X136130252Y-109550500D01*
X136130253Y-109550500D01*
X137869747Y-109550500D01*
X137869748Y-109550500D01*
X137928231Y-109538867D01*
X137994552Y-109494552D01*
X138038867Y-109428231D01*
X138050500Y-109369748D01*
X138050500Y-107630252D01*
X138038867Y-107571769D01*
X137994552Y-107505448D01*
X137994548Y-107505445D01*
X137928233Y-107461134D01*
X137928231Y-107461133D01*
X137928228Y-107461132D01*
X137928227Y-107461132D01*
X137869758Y-107449501D01*
X137869748Y-107449500D01*
X136130252Y-107449500D01*
X136130251Y-107449500D01*
X136130241Y-107449501D01*
X136071772Y-107461132D01*
X136071766Y-107461134D01*
X136005451Y-107505445D01*
X136005445Y-107505451D01*
X135961134Y-107571766D01*
X135961132Y-107571772D01*
X135949501Y-107630241D01*
X135949500Y-107630253D01*
X124838067Y-107630253D01*
X124807314Y-107599500D01*
X124807311Y-107599498D01*
X124807309Y-107599496D01*
X124693189Y-107533609D01*
X124693191Y-107533609D01*
X124643799Y-107520375D01*
X124565892Y-107499500D01*
X124434108Y-107499500D01*
X124356200Y-107520375D01*
X124306809Y-107533609D01*
X124192690Y-107599496D01*
X124099498Y-107692688D01*
X124085736Y-107716525D01*
X124040266Y-107757465D01*
X123979416Y-107763860D01*
X123926428Y-107733267D01*
X123914264Y-107716525D01*
X123900501Y-107692688D01*
X123900500Y-107692686D01*
X123807314Y-107599500D01*
X123807311Y-107599498D01*
X123807309Y-107599496D01*
X123693189Y-107533609D01*
X123693191Y-107533609D01*
X123643799Y-107520375D01*
X123565892Y-107499500D01*
X123434108Y-107499500D01*
X123356200Y-107520375D01*
X123306809Y-107533609D01*
X123192690Y-107599496D01*
X123099496Y-107692690D01*
X123033609Y-107806809D01*
X123014539Y-107877978D01*
X122999500Y-107934108D01*
X117000500Y-107934108D01*
X116966392Y-107806814D01*
X116966390Y-107806811D01*
X116966390Y-107806809D01*
X116900503Y-107692690D01*
X116900501Y-107692688D01*
X116900500Y-107692686D01*
X116807314Y-107599500D01*
X116807311Y-107599498D01*
X116807309Y-107599496D01*
X116693189Y-107533609D01*
X116693191Y-107533609D01*
X116643799Y-107520375D01*
X116565892Y-107499500D01*
X116434108Y-107499500D01*
X116356200Y-107520375D01*
X116306809Y-107533609D01*
X116192690Y-107599496D01*
X116099498Y-107692688D01*
X116085736Y-107716525D01*
X116040266Y-107757465D01*
X115979416Y-107763860D01*
X115926428Y-107733267D01*
X115914264Y-107716525D01*
X115900501Y-107692688D01*
X115900500Y-107692686D01*
X115807314Y-107599500D01*
X115807311Y-107599498D01*
X115807309Y-107599496D01*
X115693189Y-107533609D01*
X115693191Y-107533609D01*
X115643799Y-107520375D01*
X115565892Y-107499500D01*
X115434108Y-107499500D01*
X115356200Y-107520375D01*
X115306809Y-107533609D01*
X115192690Y-107599496D01*
X115099496Y-107692690D01*
X115033609Y-107806809D01*
X115014539Y-107877978D01*
X114999500Y-107934108D01*
X113000500Y-107934108D01*
X113000500Y-102434108D01*
X118999500Y-102434108D01*
X118999500Y-102565892D01*
X119029579Y-102678151D01*
X119033609Y-102693190D01*
X119099496Y-102807309D01*
X119099498Y-102807311D01*
X119099500Y-102807314D01*
X119192686Y-102900500D01*
X119192688Y-102900501D01*
X119192690Y-102900503D01*
X119306810Y-102966390D01*
X119306808Y-102966390D01*
X119306812Y-102966391D01*
X119306814Y-102966392D01*
X119434108Y-103000500D01*
X119434110Y-103000500D01*
X119565890Y-103000500D01*
X119565892Y-103000500D01*
X119693186Y-102966392D01*
X119693188Y-102966390D01*
X119693190Y-102966390D01*
X119807309Y-102900503D01*
X119807309Y-102900502D01*
X119807314Y-102900500D01*
X119900500Y-102807314D01*
X119966392Y-102693186D01*
X120000500Y-102565892D01*
X120000500Y-102434108D01*
X128999500Y-102434108D01*
X128999500Y-102565892D01*
X129029579Y-102678151D01*
X129033609Y-102693190D01*
X129099496Y-102807309D01*
X129099498Y-102807311D01*
X129099500Y-102807314D01*
X129192686Y-102900500D01*
X129192688Y-102900501D01*
X129192690Y-102900503D01*
X129306810Y-102966390D01*
X129306808Y-102966390D01*
X129306812Y-102966391D01*
X129306814Y-102966392D01*
X129434108Y-103000500D01*
X129434110Y-103000500D01*
X129565890Y-103000500D01*
X129565892Y-103000500D01*
X129693186Y-102966392D01*
X129693188Y-102966390D01*
X129693190Y-102966390D01*
X129807309Y-102900503D01*
X129807309Y-102900502D01*
X129807314Y-102900500D01*
X129900500Y-102807314D01*
X129966392Y-102693186D01*
X130000500Y-102565892D01*
X130000500Y-102434108D01*
X129966392Y-102306814D01*
X129966390Y-102306811D01*
X129966390Y-102306809D01*
X129900503Y-102192690D01*
X129900501Y-102192688D01*
X129900500Y-102192686D01*
X129807314Y-102099500D01*
X129807311Y-102099498D01*
X129807309Y-102099496D01*
X129693189Y-102033609D01*
X129693191Y-102033609D01*
X129643799Y-102020375D01*
X129565892Y-101999500D01*
X129434108Y-101999500D01*
X129356200Y-102020375D01*
X129306809Y-102033609D01*
X129192690Y-102099496D01*
X129099496Y-102192690D01*
X129033609Y-102306809D01*
X129033608Y-102306814D01*
X128999500Y-102434108D01*
X120000500Y-102434108D01*
X119966392Y-102306814D01*
X119966390Y-102306811D01*
X119966390Y-102306809D01*
X119900503Y-102192690D01*
X119900501Y-102192688D01*
X119900500Y-102192686D01*
X119807314Y-102099500D01*
X119807311Y-102099498D01*
X119807309Y-102099496D01*
X119693189Y-102033609D01*
X119693191Y-102033609D01*
X119643799Y-102020375D01*
X119565892Y-101999500D01*
X119434108Y-101999500D01*
X119356200Y-102020375D01*
X119306809Y-102033609D01*
X119192690Y-102099496D01*
X119099496Y-102192690D01*
X119033609Y-102306809D01*
X119033608Y-102306814D01*
X118999500Y-102434108D01*
X113000500Y-102434108D01*
X113000500Y-89994108D01*
X120229500Y-89994108D01*
X120229500Y-96645892D01*
X120259579Y-96758151D01*
X120263609Y-96773190D01*
X120329496Y-96887309D01*
X120329498Y-96887311D01*
X120329500Y-96887314D01*
X120422686Y-96980500D01*
X120422688Y-96980501D01*
X120422690Y-96980503D01*
X120536810Y-97046390D01*
X120536808Y-97046390D01*
X120536812Y-97046391D01*
X120536814Y-97046392D01*
X120664108Y-97080500D01*
X120664110Y-97080500D01*
X127825890Y-97080500D01*
X127825892Y-97080500D01*
X127953186Y-97046392D01*
X127953188Y-97046390D01*
X127953190Y-97046390D01*
X128067309Y-96980503D01*
X128067309Y-96980502D01*
X128067314Y-96980500D01*
X128160500Y-96887314D01*
X128226392Y-96773186D01*
X128260500Y-96645892D01*
X128260500Y-95356569D01*
X137499500Y-95356569D01*
X137499500Y-95553656D01*
X137537949Y-95746947D01*
X137537949Y-95746949D01*
X137613367Y-95929026D01*
X137613368Y-95929027D01*
X137722861Y-96092895D01*
X137862218Y-96232252D01*
X138026086Y-96341745D01*
X138208165Y-96417164D01*
X138401459Y-96455613D01*
X138401460Y-96455613D01*
X138598540Y-96455613D01*
X138598541Y-96455613D01*
X138791835Y-96417164D01*
X138973914Y-96341745D01*
X139137782Y-96232252D01*
X139277139Y-96092895D01*
X139386632Y-95929027D01*
X139462051Y-95746948D01*
X139500500Y-95553654D01*
X139500500Y-95356572D01*
X139462051Y-95163278D01*
X139386632Y-94981199D01*
X139277139Y-94817331D01*
X139137782Y-94677974D01*
X138973914Y-94568481D01*
X138973915Y-94568481D01*
X138973913Y-94568480D01*
X138791835Y-94493062D01*
X138598543Y-94454613D01*
X138598541Y-94454613D01*
X138401459Y-94454613D01*
X138401456Y-94454613D01*
X138208165Y-94493062D01*
X138208163Y-94493062D01*
X138026086Y-94568480D01*
X137862218Y-94677974D01*
X137862214Y-94677977D01*
X137722864Y-94817327D01*
X137722861Y-94817331D01*
X137613367Y-94981199D01*
X137537949Y-95163276D01*
X137537949Y-95163278D01*
X137499500Y-95356569D01*
X128260500Y-95356569D01*
X128260500Y-90234108D01*
X145499500Y-90234108D01*
X145499500Y-90365892D01*
X145529579Y-90478151D01*
X145533609Y-90493190D01*
X145599496Y-90607309D01*
X145599498Y-90607311D01*
X145599500Y-90607314D01*
X145692686Y-90700500D01*
X145692688Y-90700501D01*
X145716525Y-90714264D01*
X145757465Y-90759734D01*
X145763860Y-90820584D01*
X145733267Y-90873572D01*
X145716525Y-90885736D01*
X145692688Y-90899498D01*
X145599496Y-90992690D01*
X145533609Y-91106809D01*
X145533608Y-91106814D01*
X145499500Y-91234108D01*
X145499500Y-91365892D01*
X145529579Y-91478151D01*
X145533609Y-91493190D01*
X145599496Y-91607309D01*
X145599498Y-91607311D01*
X145599500Y-91607314D01*
X145692686Y-91700500D01*
X145692688Y-91700501D01*
X145716525Y-91714264D01*
X145757465Y-91759734D01*
X145763860Y-91820584D01*
X145733267Y-91873572D01*
X145716525Y-91885736D01*
X145692688Y-91899498D01*
X145599496Y-91992690D01*
X145533609Y-92106809D01*
X145533608Y-92106814D01*
X145499500Y-92234108D01*
X145499500Y-92365892D01*
X145529579Y-92478151D01*
X145533609Y-92493190D01*
X145599496Y-92607309D01*
X145599498Y-92607311D01*
X145599500Y-92607314D01*
X145692686Y-92700500D01*
X145692688Y-92700501D01*
X145716525Y-92714264D01*
X145757465Y-92759734D01*
X145763860Y-92820584D01*
X145733267Y-92873572D01*
X145716525Y-92885736D01*
X145692688Y-92899498D01*
X145599496Y-92992690D01*
X145533609Y-93106809D01*
X145533608Y-93106814D01*
X145499500Y-93234108D01*
X145499500Y-93365892D01*
X145529579Y-93478151D01*
X145533609Y-93493190D01*
X145599496Y-93607309D01*
X145599498Y-93607311D01*
X145599500Y-93607314D01*
X145692686Y-93700500D01*
X145692688Y-93700501D01*
X145716525Y-93714264D01*
X145757465Y-93759734D01*
X145763860Y-93820584D01*
X145733267Y-93873572D01*
X145716525Y-93885736D01*
X145692688Y-93899498D01*
X145599496Y-93992690D01*
X145533609Y-94106809D01*
X145533608Y-94106814D01*
X145499500Y-94234108D01*
X145499500Y-94365892D01*
X145529579Y-94478151D01*
X145533609Y-94493190D01*
X145599496Y-94607309D01*
X145599498Y-94607311D01*
X145599500Y-94607314D01*
X145692686Y-94700500D01*
X145692688Y-94700501D01*
X145692690Y-94700503D01*
X145806810Y-94766390D01*
X145806808Y-94766390D01*
X145806812Y-94766391D01*
X145806814Y-94766392D01*
X145934108Y-94800500D01*
X145934110Y-94800500D01*
X146065890Y-94800500D01*
X146065892Y-94800500D01*
X146193186Y-94766392D01*
X146193188Y-94766390D01*
X146193190Y-94766390D01*
X146307309Y-94700503D01*
X146307309Y-94700502D01*
X146307314Y-94700500D01*
X146400500Y-94607314D01*
X146466392Y-94493186D01*
X146500500Y-94365892D01*
X146500500Y-94234108D01*
X146466392Y-94106814D01*
X146466390Y-94106811D01*
X146466390Y-94106809D01*
X146400503Y-93992690D01*
X146400501Y-93992688D01*
X146400500Y-93992686D01*
X146307314Y-93899500D01*
X146283474Y-93885735D01*
X146242534Y-93840267D01*
X146236138Y-93779417D01*
X146266731Y-93726429D01*
X146283474Y-93714264D01*
X146307314Y-93700500D01*
X146400500Y-93607314D01*
X146466392Y-93493186D01*
X146500500Y-93365892D01*
X146500500Y-93234108D01*
X146466392Y-93106814D01*
X146466390Y-93106811D01*
X146466390Y-93106809D01*
X146400503Y-92992690D01*
X146400501Y-92992688D01*
X146400500Y-92992686D01*
X146307314Y-92899500D01*
X146283474Y-92885735D01*
X146242534Y-92840267D01*
X146236138Y-92779417D01*
X146266731Y-92726429D01*
X146283474Y-92714264D01*
X146307314Y-92700500D01*
X146400500Y-92607314D01*
X146466392Y-92493186D01*
X146500500Y-92365892D01*
X146500500Y-92234108D01*
X146466392Y-92106814D01*
X146466390Y-92106811D01*
X146466390Y-92106809D01*
X146400503Y-91992690D01*
X146400501Y-91992688D01*
X146400500Y-91992686D01*
X146307314Y-91899500D01*
X146283474Y-91885735D01*
X146242534Y-91840267D01*
X146236138Y-91779417D01*
X146266731Y-91726429D01*
X146283474Y-91714264D01*
X146307314Y-91700500D01*
X146400500Y-91607314D01*
X146466392Y-91493186D01*
X146500500Y-91365892D01*
X146500500Y-91234108D01*
X146466392Y-91106814D01*
X146466390Y-91106811D01*
X146466390Y-91106809D01*
X146400503Y-90992690D01*
X146400501Y-90992688D01*
X146400500Y-90992686D01*
X146307314Y-90899500D01*
X146283474Y-90885735D01*
X146242534Y-90840267D01*
X146236138Y-90779417D01*
X146266731Y-90726429D01*
X146283474Y-90714264D01*
X146307314Y-90700500D01*
X146400500Y-90607314D01*
X146466392Y-90493186D01*
X146500500Y-90365892D01*
X146500500Y-90234108D01*
X149499500Y-90234108D01*
X149499500Y-90365892D01*
X149529579Y-90478151D01*
X149533609Y-90493190D01*
X149599496Y-90607309D01*
X149599498Y-90607311D01*
X149599500Y-90607314D01*
X149692686Y-90700500D01*
X149692688Y-90700501D01*
X149716525Y-90714264D01*
X149757465Y-90759734D01*
X149763860Y-90820584D01*
X149733267Y-90873572D01*
X149716525Y-90885736D01*
X149692688Y-90899498D01*
X149599496Y-90992690D01*
X149533609Y-91106809D01*
X149533608Y-91106814D01*
X149499500Y-91234108D01*
X149499500Y-91365892D01*
X149529579Y-91478151D01*
X149533609Y-91493190D01*
X149599496Y-91607309D01*
X149599498Y-91607311D01*
X149599500Y-91607314D01*
X149692686Y-91700500D01*
X149692688Y-91700501D01*
X149716525Y-91714264D01*
X149757465Y-91759734D01*
X149763860Y-91820584D01*
X149733267Y-91873572D01*
X149716525Y-91885736D01*
X149692688Y-91899498D01*
X149599496Y-91992690D01*
X149533609Y-92106809D01*
X149533608Y-92106814D01*
X149499500Y-92234108D01*
X149499500Y-92365892D01*
X149529579Y-92478151D01*
X149533609Y-92493190D01*
X149599496Y-92607309D01*
X149599498Y-92607311D01*
X149599500Y-92607314D01*
X149692686Y-92700500D01*
X149692688Y-92700501D01*
X149716525Y-92714264D01*
X149757465Y-92759734D01*
X149763860Y-92820584D01*
X149733267Y-92873572D01*
X149716525Y-92885736D01*
X149692688Y-92899498D01*
X149599496Y-92992690D01*
X149533609Y-93106809D01*
X149533608Y-93106814D01*
X149499500Y-93234108D01*
X149499500Y-93365892D01*
X149529579Y-93478151D01*
X149533609Y-93493190D01*
X149599496Y-93607309D01*
X149599498Y-93607311D01*
X149599500Y-93607314D01*
X149692686Y-93700500D01*
X149692688Y-93700501D01*
X149716525Y-93714264D01*
X149757465Y-93759734D01*
X149763860Y-93820584D01*
X149733267Y-93873572D01*
X149716525Y-93885736D01*
X149692688Y-93899498D01*
X149599496Y-93992690D01*
X149533609Y-94106809D01*
X149533608Y-94106814D01*
X149499500Y-94234108D01*
X149499500Y-94365892D01*
X149529579Y-94478151D01*
X149533609Y-94493190D01*
X149599496Y-94607309D01*
X149599498Y-94607311D01*
X149599500Y-94607314D01*
X149692686Y-94700500D01*
X149692688Y-94700501D01*
X149692690Y-94700503D01*
X149806810Y-94766390D01*
X149806808Y-94766390D01*
X149806812Y-94766391D01*
X149806814Y-94766392D01*
X149934108Y-94800500D01*
X149934110Y-94800500D01*
X150065890Y-94800500D01*
X150065892Y-94800500D01*
X150193186Y-94766392D01*
X150193188Y-94766390D01*
X150193190Y-94766390D01*
X150307309Y-94700503D01*
X150307309Y-94700502D01*
X150307314Y-94700500D01*
X150400500Y-94607314D01*
X150466392Y-94493186D01*
X150500500Y-94365892D01*
X150500500Y-94234108D01*
X150466392Y-94106814D01*
X150466390Y-94106811D01*
X150466390Y-94106809D01*
X150400503Y-93992690D01*
X150400501Y-93992688D01*
X150400500Y-93992686D01*
X150307314Y-93899500D01*
X150283474Y-93885735D01*
X150242534Y-93840267D01*
X150236138Y-93779417D01*
X150266731Y-93726429D01*
X150283474Y-93714264D01*
X150307314Y-93700500D01*
X150400500Y-93607314D01*
X150466392Y-93493186D01*
X150500500Y-93365892D01*
X150500500Y-93234108D01*
X150466392Y-93106814D01*
X150466390Y-93106811D01*
X150466390Y-93106809D01*
X150400503Y-92992690D01*
X150400501Y-92992688D01*
X150400500Y-92992686D01*
X150307314Y-92899500D01*
X150283474Y-92885735D01*
X150242534Y-92840267D01*
X150236138Y-92779417D01*
X150266731Y-92726429D01*
X150283474Y-92714264D01*
X150307314Y-92700500D01*
X150400500Y-92607314D01*
X150466392Y-92493186D01*
X150500500Y-92365892D01*
X150500500Y-92234108D01*
X150466392Y-92106814D01*
X150466390Y-92106811D01*
X150466390Y-92106809D01*
X150400503Y-91992690D01*
X150400501Y-91992688D01*
X150400500Y-91992686D01*
X150307314Y-91899500D01*
X150283474Y-91885735D01*
X150242534Y-91840267D01*
X150236138Y-91779417D01*
X150266731Y-91726429D01*
X150283474Y-91714264D01*
X150307314Y-91700500D01*
X150400500Y-91607314D01*
X150466392Y-91493186D01*
X150500500Y-91365892D01*
X150500500Y-91234108D01*
X150466392Y-91106814D01*
X150466390Y-91106811D01*
X150466390Y-91106809D01*
X150400503Y-90992690D01*
X150400501Y-90992688D01*
X150400500Y-90992686D01*
X150307314Y-90899500D01*
X150283474Y-90885735D01*
X150242534Y-90840267D01*
X150236138Y-90779417D01*
X150266731Y-90726429D01*
X150283474Y-90714264D01*
X150307314Y-90700500D01*
X150400500Y-90607314D01*
X150466392Y-90493186D01*
X150500500Y-90365892D01*
X150500500Y-90234108D01*
X150466392Y-90106814D01*
X150466390Y-90106811D01*
X150466390Y-90106809D01*
X150400503Y-89992690D01*
X150400501Y-89992688D01*
X150400500Y-89992686D01*
X150307314Y-89899500D01*
X150307311Y-89899498D01*
X150307309Y-89899496D01*
X150193189Y-89833609D01*
X150193191Y-89833609D01*
X150143799Y-89820375D01*
X150065892Y-89799500D01*
X149934108Y-89799500D01*
X149856200Y-89820375D01*
X149806809Y-89833609D01*
X149692690Y-89899496D01*
X149599496Y-89992690D01*
X149533609Y-90106809D01*
X149533608Y-90106814D01*
X149499500Y-90234108D01*
X146500500Y-90234108D01*
X146466392Y-90106814D01*
X146466390Y-90106811D01*
X146466390Y-90106809D01*
X146400503Y-89992690D01*
X146400501Y-89992688D01*
X146400500Y-89992686D01*
X146307314Y-89899500D01*
X146307311Y-89899498D01*
X146307309Y-89899496D01*
X146193189Y-89833609D01*
X146193191Y-89833609D01*
X146143799Y-89820375D01*
X146065892Y-89799500D01*
X145934108Y-89799500D01*
X145856200Y-89820375D01*
X145806809Y-89833609D01*
X145692690Y-89899496D01*
X145599496Y-89992690D01*
X145533609Y-90106809D01*
X145533608Y-90106814D01*
X145499500Y-90234108D01*
X128260500Y-90234108D01*
X128260500Y-89994108D01*
X128226392Y-89866814D01*
X128226390Y-89866811D01*
X128226390Y-89866809D01*
X128160503Y-89752690D01*
X128160501Y-89752688D01*
X128160500Y-89752686D01*
X128067314Y-89659500D01*
X128067311Y-89659498D01*
X128067309Y-89659496D01*
X127953189Y-89593609D01*
X127953191Y-89593609D01*
X127903799Y-89580375D01*
X127825892Y-89559500D01*
X120795892Y-89559500D01*
X120664108Y-89559500D01*
X120586200Y-89580375D01*
X120536809Y-89593609D01*
X120422690Y-89659496D01*
X120329496Y-89752690D01*
X120263609Y-89866809D01*
X120263608Y-89866814D01*
X120229500Y-89994108D01*
X113000500Y-89994108D01*
X113000500Y-87734108D01*
X149999500Y-87734108D01*
X149999500Y-87865892D01*
X150029579Y-87978151D01*
X150033609Y-87993190D01*
X150099496Y-88107309D01*
X150099498Y-88107311D01*
X150099500Y-88107314D01*
X150192686Y-88200500D01*
X150192688Y-88200501D01*
X150192690Y-88200503D01*
X150306810Y-88266390D01*
X150306808Y-88266390D01*
X150306812Y-88266391D01*
X150306814Y-88266392D01*
X150434108Y-88300500D01*
X150434110Y-88300500D01*
X150565890Y-88300500D01*
X150565892Y-88300500D01*
X150693186Y-88266392D01*
X150693188Y-88266390D01*
X150693190Y-88266390D01*
X150807309Y-88200503D01*
X150807309Y-88200502D01*
X150807314Y-88200500D01*
X150900500Y-88107314D01*
X150966392Y-87993186D01*
X151000500Y-87865892D01*
X151000500Y-87734108D01*
X150966392Y-87606814D01*
X150966390Y-87606811D01*
X150966390Y-87606809D01*
X150900503Y-87492690D01*
X150900501Y-87492688D01*
X150900500Y-87492686D01*
X150807314Y-87399500D01*
X150807311Y-87399498D01*
X150807309Y-87399496D01*
X150693189Y-87333609D01*
X150693191Y-87333609D01*
X150643799Y-87320375D01*
X150565892Y-87299500D01*
X150434108Y-87299500D01*
X150356200Y-87320375D01*
X150306809Y-87333609D01*
X150192690Y-87399496D01*
X150099496Y-87492690D01*
X150033609Y-87606809D01*
X150033608Y-87606814D01*
X149999500Y-87734108D01*
X113000500Y-87734108D01*
X113000500Y-86934108D01*
X138499500Y-86934108D01*
X138499500Y-87065892D01*
X138527327Y-87169746D01*
X138533609Y-87193190D01*
X138599496Y-87307309D01*
X138599498Y-87307311D01*
X138599500Y-87307314D01*
X138692686Y-87400500D01*
X138692688Y-87400501D01*
X138692690Y-87400503D01*
X138806810Y-87466390D01*
X138806808Y-87466390D01*
X138806812Y-87466391D01*
X138806814Y-87466392D01*
X138934108Y-87500500D01*
X138934110Y-87500500D01*
X139065890Y-87500500D01*
X139065892Y-87500500D01*
X139193186Y-87466392D01*
X139193188Y-87466390D01*
X139193190Y-87466390D01*
X139307309Y-87400503D01*
X139307309Y-87400502D01*
X139307314Y-87400500D01*
X139400500Y-87307314D01*
X139400503Y-87307309D01*
X139466390Y-87193190D01*
X139466390Y-87193188D01*
X139466392Y-87193186D01*
X139500500Y-87065892D01*
X139500500Y-86934108D01*
X139466392Y-86806814D01*
X139466390Y-86806811D01*
X139466390Y-86806809D01*
X139400503Y-86692690D01*
X139400501Y-86692688D01*
X139400500Y-86692686D01*
X139307314Y-86599500D01*
X139307311Y-86599498D01*
X139307309Y-86599496D01*
X139193189Y-86533609D01*
X139193191Y-86533609D01*
X139143799Y-86520375D01*
X139065892Y-86499500D01*
X138934108Y-86499500D01*
X138856200Y-86520375D01*
X138806809Y-86533609D01*
X138692690Y-86599496D01*
X138599496Y-86692690D01*
X138533609Y-86806809D01*
X138533608Y-86806814D01*
X138499500Y-86934108D01*
X113000500Y-86934108D01*
X113000500Y-85934108D01*
X117999500Y-85934108D01*
X117999500Y-86065892D01*
X118029579Y-86178151D01*
X118033609Y-86193190D01*
X118099496Y-86307309D01*
X118099498Y-86307311D01*
X118099500Y-86307314D01*
X118192686Y-86400500D01*
X118192688Y-86400501D01*
X118192690Y-86400503D01*
X118306810Y-86466390D01*
X118306808Y-86466390D01*
X118306812Y-86466391D01*
X118306814Y-86466392D01*
X118434108Y-86500500D01*
X118434110Y-86500500D01*
X118565890Y-86500500D01*
X118565892Y-86500500D01*
X118693186Y-86466392D01*
X118693188Y-86466390D01*
X118693190Y-86466390D01*
X118807309Y-86400503D01*
X118807309Y-86400502D01*
X118807314Y-86400500D01*
X118900500Y-86307314D01*
X118966392Y-86193186D01*
X119000500Y-86065892D01*
X119000500Y-85934108D01*
X128999500Y-85934108D01*
X128999500Y-86065892D01*
X129029579Y-86178151D01*
X129033609Y-86193190D01*
X129099496Y-86307309D01*
X129099498Y-86307311D01*
X129099500Y-86307314D01*
X129192686Y-86400500D01*
X129192688Y-86400501D01*
X129192690Y-86400503D01*
X129306810Y-86466390D01*
X129306808Y-86466390D01*
X129306812Y-86466391D01*
X129306814Y-86466392D01*
X129434108Y-86500500D01*
X129434110Y-86500500D01*
X129565890Y-86500500D01*
X129565892Y-86500500D01*
X129693186Y-86466392D01*
X129693188Y-86466390D01*
X129693190Y-86466390D01*
X129807309Y-86400503D01*
X129807309Y-86400502D01*
X129807314Y-86400500D01*
X129900500Y-86307314D01*
X129966392Y-86193186D01*
X130000500Y-86065892D01*
X130000500Y-85934108D01*
X129966392Y-85806814D01*
X129966390Y-85806811D01*
X129966390Y-85806809D01*
X129900503Y-85692690D01*
X129900501Y-85692688D01*
X129900500Y-85692686D01*
X129807314Y-85599500D01*
X129807311Y-85599498D01*
X129807309Y-85599496D01*
X129693189Y-85533609D01*
X129693191Y-85533609D01*
X129673996Y-85528466D01*
X129565892Y-85499500D01*
X129434108Y-85499500D01*
X129356200Y-85520375D01*
X129306809Y-85533609D01*
X129192690Y-85599496D01*
X129099496Y-85692690D01*
X129033609Y-85806809D01*
X129033608Y-85806814D01*
X128999500Y-85934108D01*
X119000500Y-85934108D01*
X118966392Y-85806814D01*
X118966390Y-85806811D01*
X118966390Y-85806809D01*
X118900503Y-85692690D01*
X118900501Y-85692688D01*
X118900500Y-85692686D01*
X118807314Y-85599500D01*
X118807311Y-85599498D01*
X118807309Y-85599496D01*
X118693189Y-85533609D01*
X118693191Y-85533609D01*
X118643799Y-85520375D01*
X118565892Y-85499500D01*
X118434108Y-85499500D01*
X118356200Y-85520375D01*
X118306809Y-85533609D01*
X118192690Y-85599496D01*
X118099496Y-85692690D01*
X118033609Y-85806809D01*
X118033608Y-85806814D01*
X117999500Y-85934108D01*
X113000500Y-85934108D01*
X113000500Y-85430253D01*
X155449500Y-85430253D01*
X155449500Y-87169746D01*
X155449501Y-87169758D01*
X155461132Y-87228227D01*
X155461133Y-87228231D01*
X155505448Y-87294552D01*
X155571769Y-87338867D01*
X155616231Y-87347711D01*
X155630241Y-87350498D01*
X155630246Y-87350498D01*
X155630252Y-87350500D01*
X155630253Y-87350500D01*
X157369747Y-87350500D01*
X157369748Y-87350500D01*
X157428231Y-87338867D01*
X157494552Y-87294552D01*
X157538867Y-87228231D01*
X157550500Y-87169748D01*
X157550500Y-85430252D01*
X157538867Y-85371769D01*
X157494552Y-85305448D01*
X157494548Y-85305445D01*
X157428233Y-85261134D01*
X157428231Y-85261133D01*
X157428228Y-85261132D01*
X157428227Y-85261132D01*
X157369758Y-85249501D01*
X157369748Y-85249500D01*
X155630252Y-85249500D01*
X155630251Y-85249500D01*
X155630241Y-85249501D01*
X155571772Y-85261132D01*
X155571766Y-85261134D01*
X155505451Y-85305445D01*
X155505445Y-85305451D01*
X155461134Y-85371766D01*
X155461132Y-85371772D01*
X155449501Y-85430241D01*
X155449500Y-85430253D01*
X113000500Y-85430253D01*
X113000500Y-79684108D01*
X117765893Y-79684108D01*
X117765893Y-79815892D01*
X117788964Y-79901996D01*
X117800002Y-79943190D01*
X117865889Y-80057309D01*
X117865891Y-80057311D01*
X117865893Y-80057314D01*
X117959079Y-80150500D01*
X117959081Y-80150501D01*
X117959083Y-80150503D01*
X118073203Y-80216390D01*
X118073201Y-80216390D01*
X118073205Y-80216391D01*
X118073207Y-80216392D01*
X118200501Y-80250500D01*
X118200503Y-80250500D01*
X118332283Y-80250500D01*
X118332285Y-80250500D01*
X118459579Y-80216392D01*
X118459581Y-80216390D01*
X118459583Y-80216390D01*
X118573702Y-80150503D01*
X118573702Y-80150502D01*
X118573707Y-80150500D01*
X118666893Y-80057314D01*
X118732785Y-79943186D01*
X118766893Y-79815892D01*
X118766893Y-79684108D01*
X120773054Y-79684108D01*
X120773054Y-79815892D01*
X120796125Y-79901996D01*
X120807163Y-79943190D01*
X120873050Y-80057309D01*
X120873052Y-80057311D01*
X120873054Y-80057314D01*
X120966240Y-80150500D01*
X120966242Y-80150501D01*
X120966244Y-80150503D01*
X121080364Y-80216390D01*
X121080362Y-80216390D01*
X121080366Y-80216391D01*
X121080368Y-80216392D01*
X121207662Y-80250500D01*
X121207664Y-80250500D01*
X121339444Y-80250500D01*
X121339446Y-80250500D01*
X121466740Y-80216392D01*
X121466742Y-80216390D01*
X121466744Y-80216390D01*
X121580863Y-80150503D01*
X121580863Y-80150502D01*
X121580868Y-80150500D01*
X121674054Y-80057314D01*
X121739946Y-79943186D01*
X121742378Y-79934108D01*
X122499500Y-79934108D01*
X122499500Y-80065892D01*
X122522171Y-80150503D01*
X122533609Y-80193190D01*
X122599496Y-80307309D01*
X122599498Y-80307311D01*
X122599500Y-80307314D01*
X122692686Y-80400500D01*
X122692688Y-80400501D01*
X122692690Y-80400503D01*
X122806810Y-80466390D01*
X122806808Y-80466390D01*
X122806812Y-80466391D01*
X122806814Y-80466392D01*
X122934108Y-80500500D01*
X122934110Y-80500500D01*
X123065890Y-80500500D01*
X123065892Y-80500500D01*
X123193186Y-80466392D01*
X123193188Y-80466390D01*
X123193190Y-80466390D01*
X123307309Y-80400503D01*
X123307309Y-80400502D01*
X123307314Y-80400500D01*
X123400500Y-80307314D01*
X123466392Y-80193186D01*
X123468824Y-80184108D01*
X124499500Y-80184108D01*
X124499500Y-80315892D01*
X124522171Y-80400503D01*
X124533609Y-80443190D01*
X124599496Y-80557309D01*
X124599498Y-80557311D01*
X124599500Y-80557314D01*
X124692686Y-80650500D01*
X124692688Y-80650501D01*
X124692690Y-80650503D01*
X124806810Y-80716390D01*
X124806808Y-80716390D01*
X124806812Y-80716391D01*
X124806814Y-80716392D01*
X124934108Y-80750500D01*
X124934110Y-80750500D01*
X125065890Y-80750500D01*
X125065892Y-80750500D01*
X125193186Y-80716392D01*
X125193188Y-80716390D01*
X125193190Y-80716390D01*
X125307309Y-80650503D01*
X125307309Y-80650502D01*
X125307314Y-80650500D01*
X125400500Y-80557314D01*
X125466392Y-80443186D01*
X125500500Y-80315892D01*
X125500500Y-80184108D01*
X125466392Y-80056814D01*
X125466390Y-80056811D01*
X125466390Y-80056809D01*
X125400503Y-79942690D01*
X125400501Y-79942688D01*
X125400500Y-79942686D01*
X125307314Y-79849500D01*
X125307311Y-79849498D01*
X125307309Y-79849496D01*
X125193189Y-79783609D01*
X125193191Y-79783609D01*
X125178722Y-79779732D01*
X125065892Y-79749500D01*
X124934108Y-79749500D01*
X124856200Y-79770375D01*
X124806809Y-79783609D01*
X124692690Y-79849496D01*
X124599496Y-79942690D01*
X124533609Y-80056809D01*
X124529561Y-80071917D01*
X124499500Y-80184108D01*
X123468824Y-80184108D01*
X123500500Y-80065892D01*
X123500500Y-79934108D01*
X123466392Y-79806814D01*
X123466390Y-79806811D01*
X123466390Y-79806809D01*
X123400503Y-79692690D01*
X123400501Y-79692688D01*
X123400500Y-79692686D01*
X123391922Y-79684108D01*
X126173872Y-79684108D01*
X126173872Y-79815892D01*
X126196943Y-79901996D01*
X126207981Y-79943190D01*
X126273868Y-80057309D01*
X126273870Y-80057311D01*
X126273872Y-80057314D01*
X126367058Y-80150500D01*
X126367060Y-80150501D01*
X126367062Y-80150503D01*
X126481182Y-80216390D01*
X126481180Y-80216390D01*
X126481184Y-80216391D01*
X126481186Y-80216392D01*
X126608480Y-80250500D01*
X126608482Y-80250500D01*
X126740262Y-80250500D01*
X126740264Y-80250500D01*
X126867558Y-80216392D01*
X126867560Y-80216390D01*
X126867562Y-80216390D01*
X126981681Y-80150503D01*
X126981681Y-80150502D01*
X126981686Y-80150500D01*
X127074872Y-80057314D01*
X127140764Y-79943186D01*
X127174872Y-79815892D01*
X127174872Y-79698711D01*
X129199500Y-79698711D01*
X129199500Y-79830495D01*
X129218659Y-79901997D01*
X129233609Y-79957793D01*
X129299496Y-80071912D01*
X129299498Y-80071914D01*
X129299500Y-80071917D01*
X129392686Y-80165103D01*
X129392688Y-80165104D01*
X129392690Y-80165106D01*
X129506810Y-80230993D01*
X129506808Y-80230993D01*
X129506812Y-80230994D01*
X129506814Y-80230995D01*
X129634108Y-80265103D01*
X129634110Y-80265103D01*
X129765890Y-80265103D01*
X129765892Y-80265103D01*
X129893186Y-80230995D01*
X129893188Y-80230993D01*
X129893190Y-80230993D01*
X130007309Y-80165106D01*
X130007309Y-80165105D01*
X130007314Y-80165103D01*
X130100500Y-80071917D01*
X130166392Y-79957789D01*
X130200500Y-79830495D01*
X130200500Y-79698711D01*
X130166392Y-79571417D01*
X130166390Y-79571414D01*
X130166390Y-79571412D01*
X130100503Y-79457293D01*
X130100501Y-79457291D01*
X130100500Y-79457289D01*
X130007314Y-79364103D01*
X130007311Y-79364101D01*
X130007309Y-79364099D01*
X129893189Y-79298212D01*
X129893191Y-79298212D01*
X129838686Y-79283608D01*
X129765892Y-79264103D01*
X129634108Y-79264103D01*
X129561314Y-79283608D01*
X129506809Y-79298212D01*
X129392690Y-79364099D01*
X129299496Y-79457293D01*
X129233609Y-79571412D01*
X129233608Y-79571417D01*
X129199500Y-79698711D01*
X127174872Y-79698711D01*
X127174872Y-79684108D01*
X127140764Y-79556814D01*
X127140762Y-79556811D01*
X127140762Y-79556809D01*
X127074875Y-79442690D01*
X127074873Y-79442688D01*
X127074872Y-79442686D01*
X126981686Y-79349500D01*
X126981683Y-79349498D01*
X126981681Y-79349496D01*
X126867561Y-79283609D01*
X126867563Y-79283609D01*
X126818171Y-79270375D01*
X126740264Y-79249500D01*
X126608480Y-79249500D01*
X126530572Y-79270375D01*
X126481181Y-79283609D01*
X126367062Y-79349496D01*
X126273868Y-79442690D01*
X126207981Y-79556809D01*
X126196542Y-79599500D01*
X126173872Y-79684108D01*
X123391922Y-79684108D01*
X123307314Y-79599500D01*
X123307311Y-79599498D01*
X123307309Y-79599496D01*
X123193189Y-79533609D01*
X123193191Y-79533609D01*
X123143799Y-79520375D01*
X123065892Y-79499500D01*
X122934108Y-79499500D01*
X122856200Y-79520375D01*
X122806809Y-79533609D01*
X122692690Y-79599496D01*
X122599496Y-79692690D01*
X122533609Y-79806809D01*
X122522170Y-79849500D01*
X122499500Y-79934108D01*
X121742378Y-79934108D01*
X121774054Y-79815892D01*
X121774054Y-79684108D01*
X121739946Y-79556814D01*
X121739944Y-79556811D01*
X121739944Y-79556809D01*
X121674057Y-79442690D01*
X121674055Y-79442688D01*
X121674054Y-79442686D01*
X121580868Y-79349500D01*
X121580865Y-79349498D01*
X121580863Y-79349496D01*
X121466743Y-79283609D01*
X121466745Y-79283609D01*
X121417353Y-79270375D01*
X121339446Y-79249500D01*
X121207662Y-79249500D01*
X121129754Y-79270375D01*
X121080363Y-79283609D01*
X120966244Y-79349496D01*
X120873050Y-79442690D01*
X120807163Y-79556809D01*
X120795724Y-79599500D01*
X120773054Y-79684108D01*
X118766893Y-79684108D01*
X118732785Y-79556814D01*
X118732783Y-79556811D01*
X118732783Y-79556809D01*
X118666896Y-79442690D01*
X118666894Y-79442688D01*
X118666893Y-79442686D01*
X118573707Y-79349500D01*
X118573704Y-79349498D01*
X118573702Y-79349496D01*
X118459582Y-79283609D01*
X118459584Y-79283609D01*
X118410192Y-79270375D01*
X118332285Y-79249500D01*
X118200501Y-79249500D01*
X118122593Y-79270375D01*
X118073202Y-79283609D01*
X117959083Y-79349496D01*
X117865889Y-79442690D01*
X117800002Y-79556809D01*
X117788563Y-79599500D01*
X117765893Y-79684108D01*
X113000500Y-79684108D01*
X113000500Y-78434108D01*
X143499500Y-78434108D01*
X143499500Y-78565892D01*
X143529579Y-78678151D01*
X143533609Y-78693190D01*
X143599496Y-78807309D01*
X143599498Y-78807311D01*
X143599500Y-78807314D01*
X143692686Y-78900500D01*
X143692688Y-78900501D01*
X143692690Y-78900503D01*
X143806810Y-78966390D01*
X143806808Y-78966390D01*
X143806812Y-78966391D01*
X143806814Y-78966392D01*
X143934108Y-79000500D01*
X143934110Y-79000500D01*
X144065890Y-79000500D01*
X144065892Y-79000500D01*
X144193186Y-78966392D01*
X144193188Y-78966390D01*
X144193190Y-78966390D01*
X144307309Y-78900503D01*
X144307309Y-78900502D01*
X144307314Y-78900500D01*
X144400500Y-78807314D01*
X144466392Y-78693186D01*
X144500500Y-78565892D01*
X144500500Y-78434108D01*
X155499500Y-78434108D01*
X155499500Y-78565892D01*
X155529579Y-78678151D01*
X155533609Y-78693190D01*
X155599496Y-78807309D01*
X155599498Y-78807311D01*
X155599500Y-78807314D01*
X155692686Y-78900500D01*
X155692688Y-78900501D01*
X155692690Y-78900503D01*
X155806810Y-78966390D01*
X155806808Y-78966390D01*
X155806812Y-78966391D01*
X155806814Y-78966392D01*
X155934108Y-79000500D01*
X155934110Y-79000500D01*
X156065890Y-79000500D01*
X156065892Y-79000500D01*
X156193186Y-78966392D01*
X156193188Y-78966390D01*
X156193190Y-78966390D01*
X156307309Y-78900503D01*
X156307309Y-78900502D01*
X156307314Y-78900500D01*
X156400500Y-78807314D01*
X156466392Y-78693186D01*
X156500500Y-78565892D01*
X156500500Y-78434108D01*
X156466392Y-78306814D01*
X156466390Y-78306811D01*
X156466390Y-78306809D01*
X156400503Y-78192690D01*
X156400501Y-78192688D01*
X156400500Y-78192686D01*
X156307314Y-78099500D01*
X156307311Y-78099498D01*
X156307309Y-78099496D01*
X156193189Y-78033609D01*
X156193191Y-78033609D01*
X156143799Y-78020375D01*
X156065892Y-77999500D01*
X155934108Y-77999500D01*
X155856200Y-78020375D01*
X155806809Y-78033609D01*
X155692690Y-78099496D01*
X155599496Y-78192690D01*
X155533609Y-78306809D01*
X155533608Y-78306814D01*
X155499500Y-78434108D01*
X144500500Y-78434108D01*
X144466392Y-78306814D01*
X144466390Y-78306811D01*
X144466390Y-78306809D01*
X144400503Y-78192690D01*
X144400501Y-78192688D01*
X144400500Y-78192686D01*
X144307314Y-78099500D01*
X144307311Y-78099498D01*
X144307309Y-78099496D01*
X144193189Y-78033609D01*
X144193191Y-78033609D01*
X144143799Y-78020375D01*
X144065892Y-77999500D01*
X143934108Y-77999500D01*
X143856200Y-78020375D01*
X143806809Y-78033609D01*
X143692690Y-78099496D01*
X143599496Y-78192690D01*
X143533609Y-78306809D01*
X143533608Y-78306814D01*
X143499500Y-78434108D01*
X113000500Y-78434108D01*
X113000500Y-77003539D01*
X113000752Y-76996477D01*
X113007129Y-76907314D01*
X113015258Y-76793652D01*
X113017265Y-76779693D01*
X113059737Y-76584447D01*
X113063711Y-76570914D01*
X113133536Y-76383705D01*
X113139392Y-76370882D01*
X113235151Y-76195513D01*
X113242481Y-76184108D01*
X117749500Y-76184108D01*
X117749500Y-76315892D01*
X117772171Y-76400503D01*
X117783609Y-76443190D01*
X117849496Y-76557309D01*
X117849498Y-76557311D01*
X117849500Y-76557314D01*
X117942686Y-76650500D01*
X117942688Y-76650501D01*
X117942690Y-76650503D01*
X118056810Y-76716390D01*
X118056808Y-76716390D01*
X118056812Y-76716391D01*
X118056814Y-76716392D01*
X118184108Y-76750500D01*
X118184110Y-76750500D01*
X118315890Y-76750500D01*
X118315892Y-76750500D01*
X118443186Y-76716392D01*
X118443188Y-76716390D01*
X118443190Y-76716390D01*
X118557309Y-76650503D01*
X118557309Y-76650502D01*
X118557314Y-76650500D01*
X118650500Y-76557314D01*
X118657851Y-76544582D01*
X118716390Y-76443190D01*
X118716390Y-76443188D01*
X118716392Y-76443186D01*
X118750500Y-76315892D01*
X118750500Y-76184108D01*
X120792889Y-76184108D01*
X120792889Y-76315892D01*
X120815560Y-76400503D01*
X120826998Y-76443190D01*
X120892885Y-76557309D01*
X120892887Y-76557311D01*
X120892889Y-76557314D01*
X120986075Y-76650500D01*
X120986077Y-76650501D01*
X120986079Y-76650503D01*
X121100199Y-76716390D01*
X121100197Y-76716390D01*
X121100201Y-76716391D01*
X121100203Y-76716392D01*
X121227497Y-76750500D01*
X121227499Y-76750500D01*
X121359279Y-76750500D01*
X121359281Y-76750500D01*
X121486575Y-76716392D01*
X121486577Y-76716390D01*
X121486579Y-76716390D01*
X121600698Y-76650503D01*
X121600698Y-76650502D01*
X121600703Y-76650500D01*
X121693889Y-76557314D01*
X121701240Y-76544582D01*
X121759779Y-76443190D01*
X121759779Y-76443188D01*
X121759781Y-76443186D01*
X121793889Y-76315892D01*
X121793889Y-76184108D01*
X121759781Y-76056814D01*
X121759779Y-76056811D01*
X121759779Y-76056809D01*
X121693892Y-75942690D01*
X121693890Y-75942688D01*
X121693889Y-75942686D01*
X121600703Y-75849500D01*
X121600700Y-75849498D01*
X121600698Y-75849496D01*
X121486578Y-75783609D01*
X121486580Y-75783609D01*
X121437188Y-75770375D01*
X121359281Y-75749500D01*
X121227497Y-75749500D01*
X121149589Y-75770375D01*
X121100198Y-75783609D01*
X120986079Y-75849496D01*
X120892885Y-75942690D01*
X120826998Y-76056809D01*
X120821270Y-76078187D01*
X120792889Y-76184108D01*
X118750500Y-76184108D01*
X118716392Y-76056814D01*
X118716390Y-76056811D01*
X118716390Y-76056809D01*
X118650503Y-75942690D01*
X118650501Y-75942688D01*
X118650500Y-75942686D01*
X118557314Y-75849500D01*
X118557311Y-75849498D01*
X118557309Y-75849496D01*
X118443189Y-75783609D01*
X118443191Y-75783609D01*
X118393799Y-75770375D01*
X118315892Y-75749500D01*
X118184108Y-75749500D01*
X118106200Y-75770375D01*
X118056809Y-75783609D01*
X117942690Y-75849496D01*
X117849496Y-75942690D01*
X117783609Y-76056809D01*
X117777881Y-76078187D01*
X117749500Y-76184108D01*
X113242481Y-76184108D01*
X113242775Y-76183650D01*
X113362511Y-76023701D01*
X113371750Y-76013038D01*
X113513038Y-75871750D01*
X113523700Y-75862512D01*
X113683650Y-75742775D01*
X113695513Y-75735151D01*
X113870882Y-75639392D01*
X113883705Y-75633536D01*
X114070914Y-75563711D01*
X114084447Y-75559737D01*
X114279693Y-75517265D01*
X114293652Y-75515258D01*
X114473568Y-75502390D01*
X114496478Y-75500752D01*
X114503540Y-75500500D01*
X114565892Y-75500500D01*
X122552679Y-75500500D01*
X122610870Y-75519407D01*
G37*
%TD.AperFunction*%
%TD*%
%TA.AperFunction,Conductor*%
%TO.N,/V_IN*%
G36*
X159392606Y-106005023D02*
G01*
X159407604Y-106009427D01*
X159466355Y-106047172D01*
X159467542Y-106048541D01*
X159495018Y-106103402D01*
X159496663Y-106110960D01*
X159499500Y-106137331D01*
X159499500Y-123668357D01*
X159499421Y-123672784D01*
X159499263Y-123677207D01*
X159499026Y-123681627D01*
X159485185Y-123875133D01*
X159484238Y-123883942D01*
X159482978Y-123892701D01*
X159481407Y-123901403D01*
X159441587Y-124084456D01*
X159439398Y-124093033D01*
X159436906Y-124101520D01*
X159434111Y-124109918D01*
X159368640Y-124285456D01*
X159365250Y-124293641D01*
X159361580Y-124301676D01*
X159357620Y-124309585D01*
X159267835Y-124474013D01*
X159263316Y-124481630D01*
X159258529Y-124489078D01*
X159253483Y-124496344D01*
X159141219Y-124646312D01*
X159135665Y-124653204D01*
X159129869Y-124659893D01*
X159123837Y-124666372D01*
X158991372Y-124798837D01*
X158984893Y-124804869D01*
X158978204Y-124810665D01*
X158971312Y-124816219D01*
X158821344Y-124928483D01*
X158814078Y-124933529D01*
X158806630Y-124938316D01*
X158799013Y-124942835D01*
X158634585Y-125032620D01*
X158626676Y-125036580D01*
X158618641Y-125040250D01*
X158610456Y-125043640D01*
X158434918Y-125109111D01*
X158426520Y-125111906D01*
X158418033Y-125114398D01*
X158409456Y-125116587D01*
X158226403Y-125156407D01*
X158217699Y-125157978D01*
X158208939Y-125159238D01*
X158200132Y-125160185D01*
X158023779Y-125172799D01*
X158015674Y-125173378D01*
X158006618Y-125174026D01*
X158002234Y-125174261D01*
X157997929Y-125174415D01*
X157997810Y-125174420D01*
X157993356Y-125174500D01*
X114506643Y-125174500D01*
X114502218Y-125174421D01*
X114497792Y-125174262D01*
X114493374Y-125174026D01*
X114486118Y-125173507D01*
X114473622Y-125172613D01*
X114473621Y-125172612D01*
X114299866Y-125160185D01*
X114291059Y-125159238D01*
X114282299Y-125157978D01*
X114273595Y-125156407D01*
X114090542Y-125116587D01*
X114081965Y-125114398D01*
X114073478Y-125111906D01*
X114065080Y-125109111D01*
X113889542Y-125043640D01*
X113881372Y-125040256D01*
X113873317Y-125036577D01*
X113865413Y-125032620D01*
X113700985Y-124942835D01*
X113693368Y-124938316D01*
X113685920Y-124933529D01*
X113678654Y-124928483D01*
X113528686Y-124816219D01*
X113521794Y-124810665D01*
X113515105Y-124804869D01*
X113508626Y-124798837D01*
X113376161Y-124666372D01*
X113370129Y-124659893D01*
X113364333Y-124653204D01*
X113358779Y-124646312D01*
X113246515Y-124496344D01*
X113241469Y-124489078D01*
X113236682Y-124481630D01*
X113232163Y-124474013D01*
X113223137Y-124457483D01*
X113142369Y-124309570D01*
X113138414Y-124301666D01*
X113134749Y-124293640D01*
X113131363Y-124285467D01*
X113131359Y-124285456D01*
X113065878Y-124109896D01*
X113063090Y-124101517D01*
X113060595Y-124093017D01*
X113058412Y-124084460D01*
X113058411Y-124084456D01*
X113028926Y-123948914D01*
X113018584Y-123901371D01*
X113017016Y-123892677D01*
X113015759Y-123883930D01*
X113014814Y-123875138D01*
X113007068Y-123766839D01*
X113000974Y-123681631D01*
X113000737Y-123677206D01*
X113000579Y-123672777D01*
X113000500Y-123668356D01*
X113000500Y-123547094D01*
X121674237Y-123547094D01*
X121717945Y-123766822D01*
X121717946Y-123766826D01*
X121717947Y-123766829D01*
X121717950Y-123766839D01*
X121717953Y-123766847D01*
X121717958Y-123766861D01*
X121793360Y-123948900D01*
X121793364Y-123948907D01*
X121793368Y-123948915D01*
X121793375Y-123948926D01*
X121902861Y-124112783D01*
X121902862Y-124112784D01*
X121902867Y-124112790D01*
X122042208Y-124252131D01*
X122042214Y-124252136D01*
X122042218Y-124252139D01*
X122206079Y-124361628D01*
X122206092Y-124361635D01*
X122293587Y-124397876D01*
X122382553Y-124434726D01*
X122386962Y-124436812D01*
X122581453Y-124475500D01*
X122778543Y-124475500D01*
X122778544Y-124475500D01*
X122800216Y-124471188D01*
X122908582Y-124449632D01*
X122908583Y-124449632D01*
X122921301Y-124447102D01*
X122971835Y-124437051D01*
X123153914Y-124361632D01*
X123317782Y-124252139D01*
X123457139Y-124112782D01*
X123566632Y-123948914D01*
X123642051Y-123766835D01*
X123680500Y-123573541D01*
X123680500Y-123547094D01*
X130314237Y-123547094D01*
X130357945Y-123766822D01*
X130357946Y-123766826D01*
X130357947Y-123766829D01*
X130357950Y-123766839D01*
X130357953Y-123766847D01*
X130357958Y-123766861D01*
X130433360Y-123948900D01*
X130433364Y-123948907D01*
X130433368Y-123948915D01*
X130433375Y-123948926D01*
X130542861Y-124112783D01*
X130542862Y-124112784D01*
X130542867Y-124112790D01*
X130682208Y-124252131D01*
X130682214Y-124252136D01*
X130682218Y-124252139D01*
X130846079Y-124361628D01*
X130846092Y-124361635D01*
X130933587Y-124397876D01*
X131022553Y-124434726D01*
X131026962Y-124436812D01*
X131221453Y-124475500D01*
X131418543Y-124475500D01*
X131418544Y-124475500D01*
X131440216Y-124471188D01*
X131548582Y-124449632D01*
X131548583Y-124449632D01*
X131561301Y-124447102D01*
X131611835Y-124437051D01*
X131793914Y-124361632D01*
X131957782Y-124252139D01*
X132097139Y-124112782D01*
X132206632Y-123948914D01*
X132282051Y-123766835D01*
X132320500Y-123573541D01*
X132320500Y-122602125D01*
X134649500Y-122602125D01*
X134649500Y-124397876D01*
X134649659Y-124399806D01*
X134649885Y-124401454D01*
X134655907Y-124457482D01*
X134663526Y-124477908D01*
X134706202Y-124592328D01*
X134706203Y-124592330D01*
X134706204Y-124592332D01*
X134706205Y-124592333D01*
X134792450Y-124707542D01*
X134792452Y-124707544D01*
X134792455Y-124707547D01*
X134907664Y-124793793D01*
X134907671Y-124793797D01*
X134957155Y-124812253D01*
X134992513Y-124838721D01*
X135049444Y-124844835D01*
X135049443Y-124844839D01*
X135049458Y-124844836D01*
X135102127Y-124850500D01*
X136897872Y-124850499D01*
X136957483Y-124844091D01*
X137092331Y-124793796D01*
X137207546Y-124707546D01*
X137293796Y-124592331D01*
X137344091Y-124457483D01*
X137350500Y-124397873D01*
X137350499Y-122602128D01*
X137350499Y-122602125D01*
X140649500Y-122602125D01*
X140649500Y-124397876D01*
X140649659Y-124399806D01*
X140649885Y-124401454D01*
X140655907Y-124457482D01*
X140663526Y-124477908D01*
X140706202Y-124592328D01*
X140706203Y-124592330D01*
X140706204Y-124592332D01*
X140706205Y-124592333D01*
X140792450Y-124707542D01*
X140792452Y-124707544D01*
X140792455Y-124707547D01*
X140907664Y-124793793D01*
X140907671Y-124793797D01*
X140957155Y-124812253D01*
X140992513Y-124838721D01*
X141049444Y-124844835D01*
X141049443Y-124844839D01*
X141049458Y-124844836D01*
X141102127Y-124850500D01*
X142897872Y-124850499D01*
X142957483Y-124844091D01*
X143092331Y-124793796D01*
X143207546Y-124707546D01*
X143293796Y-124592331D01*
X143344091Y-124457483D01*
X143350500Y-124397873D01*
X143350499Y-122602128D01*
X143344091Y-122542517D01*
X143293796Y-122407669D01*
X143293795Y-122407668D01*
X143293794Y-122407666D01*
X143293778Y-122407623D01*
X143293199Y-122406703D01*
X143292249Y-122405164D01*
X143291397Y-122403937D01*
X143291391Y-122403928D01*
X143288489Y-122400579D01*
X143207547Y-122292455D01*
X143207544Y-122292452D01*
X143207542Y-122292450D01*
X143149616Y-122249086D01*
X143092335Y-122206206D01*
X143092332Y-122206204D01*
X143092330Y-122206203D01*
X143092328Y-122206202D01*
X143042844Y-122187746D01*
X143007497Y-122161284D01*
X142905583Y-122150328D01*
X142900742Y-122149500D01*
X142897881Y-122149500D01*
X142897873Y-122149500D01*
X142897864Y-122149500D01*
X141102129Y-122149500D01*
X141102123Y-122149500D01*
X141100192Y-122149659D01*
X141098545Y-122149885D01*
X141042516Y-122155908D01*
X140921407Y-122201079D01*
X140907666Y-122206204D01*
X140907665Y-122206205D01*
X140792456Y-122292450D01*
X140792450Y-122292456D01*
X140706205Y-122407665D01*
X140706203Y-122407668D01*
X140655908Y-122542516D01*
X140649500Y-122602125D01*
X137350499Y-122602125D01*
X137344091Y-122542517D01*
X137293796Y-122407669D01*
X137293795Y-122407668D01*
X137293794Y-122407666D01*
X137293778Y-122407623D01*
X137293199Y-122406703D01*
X137292249Y-122405164D01*
X137291397Y-122403937D01*
X137291391Y-122403928D01*
X137288489Y-122400579D01*
X137207547Y-122292455D01*
X137207544Y-122292452D01*
X137207542Y-122292450D01*
X137149616Y-122249086D01*
X137092335Y-122206206D01*
X137092332Y-122206204D01*
X137092330Y-122206203D01*
X137092328Y-122206202D01*
X137042844Y-122187746D01*
X137007497Y-122161284D01*
X136905583Y-122150328D01*
X136900742Y-122149500D01*
X136897881Y-122149500D01*
X136897873Y-122149500D01*
X136897864Y-122149500D01*
X135102129Y-122149500D01*
X135102123Y-122149500D01*
X135100192Y-122149659D01*
X135098545Y-122149885D01*
X135042516Y-122155908D01*
X134921407Y-122201079D01*
X134907666Y-122206204D01*
X134907665Y-122206205D01*
X134792456Y-122292450D01*
X134792450Y-122292456D01*
X134706205Y-122407665D01*
X134706203Y-122407668D01*
X134655908Y-122542516D01*
X134649500Y-122602125D01*
X132320500Y-122602125D01*
X132320500Y-122576459D01*
X132320500Y-122576456D01*
X132320500Y-122576453D01*
X132281812Y-122381962D01*
X132279725Y-122377550D01*
X132208755Y-122206212D01*
X132208754Y-122206206D01*
X132208753Y-122206207D01*
X132208752Y-122206204D01*
X132206635Y-122201092D01*
X132206628Y-122201079D01*
X132097139Y-122037218D01*
X132097136Y-122037214D01*
X132097131Y-122037208D01*
X131957790Y-121897867D01*
X131957784Y-121897862D01*
X131957783Y-121897861D01*
X131793926Y-121788375D01*
X131793925Y-121788374D01*
X131793920Y-121788371D01*
X131793907Y-121788364D01*
X131793900Y-121788360D01*
X131611861Y-121712958D01*
X131611847Y-121712953D01*
X131611839Y-121712950D01*
X131611829Y-121712947D01*
X131611826Y-121712946D01*
X131611822Y-121712945D01*
X131418546Y-121674500D01*
X131418543Y-121674500D01*
X131418541Y-121674500D01*
X131221459Y-121674500D01*
X131221457Y-121674500D01*
X131221453Y-121674500D01*
X131028176Y-121712945D01*
X131028170Y-121712947D01*
X131028160Y-121712950D01*
X131028155Y-121712951D01*
X131028137Y-121712958D01*
X130846098Y-121788360D01*
X130846089Y-121788365D01*
X130846072Y-121788375D01*
X130682215Y-121897861D01*
X130682214Y-121897862D01*
X130682208Y-121897867D01*
X130542867Y-122037208D01*
X130542862Y-122037214D01*
X130542861Y-122037215D01*
X130433375Y-122201072D01*
X130433365Y-122201089D01*
X130433360Y-122201098D01*
X130357958Y-122383137D01*
X130357945Y-122383176D01*
X130319500Y-122576451D01*
X130319500Y-123529174D01*
X130314237Y-123547094D01*
X123680500Y-123547094D01*
X123680500Y-122576459D01*
X123680500Y-122576456D01*
X123680500Y-122576453D01*
X123641812Y-122381962D01*
X123639725Y-122377550D01*
X123568755Y-122206212D01*
X123568754Y-122206206D01*
X123568753Y-122206207D01*
X123568752Y-122206204D01*
X123566635Y-122201092D01*
X123566628Y-122201079D01*
X123457139Y-122037218D01*
X123457136Y-122037214D01*
X123457131Y-122037208D01*
X123317790Y-121897867D01*
X123317784Y-121897862D01*
X123317783Y-121897861D01*
X123153926Y-121788375D01*
X123153925Y-121788374D01*
X123153920Y-121788371D01*
X123153907Y-121788364D01*
X123153900Y-121788360D01*
X122971861Y-121712958D01*
X122971847Y-121712953D01*
X122971839Y-121712950D01*
X122971829Y-121712947D01*
X122971826Y-121712946D01*
X122971822Y-121712945D01*
X122778546Y-121674500D01*
X122778543Y-121674500D01*
X122778541Y-121674500D01*
X122581459Y-121674500D01*
X122581457Y-121674500D01*
X122581453Y-121674500D01*
X122388176Y-121712945D01*
X122388170Y-121712947D01*
X122388160Y-121712950D01*
X122388155Y-121712951D01*
X122388137Y-121712958D01*
X122206098Y-121788360D01*
X122206089Y-121788365D01*
X122206072Y-121788375D01*
X122042215Y-121897861D01*
X122042214Y-121897862D01*
X122042208Y-121897867D01*
X121902867Y-122037208D01*
X121902862Y-122037214D01*
X121902861Y-122037215D01*
X121793375Y-122201072D01*
X121793365Y-122201089D01*
X121793360Y-122201098D01*
X121717958Y-122383137D01*
X121717945Y-122383176D01*
X121679500Y-122576451D01*
X121679500Y-123529174D01*
X121674237Y-123547094D01*
X113000500Y-123547094D01*
X113000500Y-119517094D01*
X121674237Y-119517094D01*
X121717945Y-119736822D01*
X121717946Y-119736826D01*
X121717947Y-119736829D01*
X121717950Y-119736839D01*
X121717953Y-119736847D01*
X121717958Y-119736861D01*
X121793360Y-119918900D01*
X121793364Y-119918907D01*
X121793370Y-119918919D01*
X121793375Y-119918926D01*
X121902861Y-120082783D01*
X121902862Y-120082784D01*
X121902867Y-120082790D01*
X122042212Y-120222135D01*
X122042215Y-120222137D01*
X122042218Y-120222139D01*
X122206079Y-120331628D01*
X122206092Y-120331635D01*
X122382573Y-120404735D01*
X122386992Y-120406825D01*
X122387728Y-120406967D01*
X122388469Y-120407112D01*
X122581453Y-120445500D01*
X122778543Y-120445500D01*
X122778544Y-120445500D01*
X122800216Y-120441188D01*
X122908582Y-120419632D01*
X122908583Y-120419632D01*
X122921301Y-120417102D01*
X122971835Y-120407051D01*
X123153914Y-120331632D01*
X123317782Y-120222139D01*
X123317781Y-120222139D01*
X123317785Y-120222137D01*
X123317787Y-120222135D01*
X123457136Y-120082785D01*
X123457139Y-120082782D01*
X123457140Y-120082781D01*
X123566632Y-119918914D01*
X123583721Y-119877653D01*
X123601724Y-119847307D01*
X123610440Y-119836492D01*
X123667828Y-119796647D01*
X123737648Y-119794152D01*
X123743369Y-119795612D01*
X123788764Y-119817831D01*
X123799792Y-119826397D01*
X123807541Y-119827631D01*
X123816339Y-119832250D01*
X123907164Y-119884688D01*
X124040817Y-119920500D01*
X124040819Y-119920500D01*
X124179181Y-119920500D01*
X124179183Y-119920500D01*
X124312836Y-119884688D01*
X124432665Y-119815505D01*
X124530505Y-119717665D01*
X124599688Y-119597836D01*
X124635500Y-119464183D01*
X124635500Y-119325817D01*
X129364500Y-119325817D01*
X129364500Y-119464183D01*
X129373876Y-119499174D01*
X129389495Y-119557464D01*
X129389495Y-119557465D01*
X129400311Y-119597833D01*
X129400317Y-119597846D01*
X129469488Y-119717655D01*
X129469492Y-119717661D01*
X129469494Y-119717664D01*
X129469495Y-119717665D01*
X129567335Y-119815505D01*
X129567336Y-119815506D01*
X129567338Y-119815507D01*
X129627249Y-119850096D01*
X129687164Y-119884688D01*
X129820817Y-119920500D01*
X129820819Y-119920500D01*
X129959181Y-119920500D01*
X129959183Y-119920500D01*
X130092836Y-119884688D01*
X130176613Y-119836319D01*
X130181445Y-119835147D01*
X130221237Y-119813332D01*
X130221238Y-119813333D01*
X130234870Y-119805859D01*
X130303116Y-119790894D01*
X130368606Y-119815190D01*
X130372780Y-119818303D01*
X130413210Y-119870250D01*
X130419191Y-119884688D01*
X130433370Y-119918919D01*
X130433375Y-119918927D01*
X130542861Y-120082783D01*
X130542862Y-120082784D01*
X130542867Y-120082790D01*
X130682212Y-120222135D01*
X130682215Y-120222137D01*
X130682218Y-120222139D01*
X130846079Y-120331628D01*
X130846092Y-120331635D01*
X131022573Y-120404735D01*
X131026992Y-120406825D01*
X131027728Y-120406967D01*
X131028469Y-120407112D01*
X131221453Y-120445500D01*
X131418543Y-120445500D01*
X131418544Y-120445500D01*
X131440216Y-120441188D01*
X131548582Y-120419632D01*
X131548583Y-120419632D01*
X131561301Y-120417102D01*
X131611835Y-120407051D01*
X131793914Y-120331632D01*
X131957782Y-120222139D01*
X131957781Y-120222139D01*
X131957785Y-120222137D01*
X131957787Y-120222135D01*
X132097136Y-120082785D01*
X132097138Y-120082783D01*
X132097139Y-120082782D01*
X132206632Y-119918914D01*
X132282051Y-119736835D01*
X132317730Y-119557466D01*
X148699499Y-119557466D01*
X148727913Y-119736861D01*
X148731522Y-119759646D01*
X148745282Y-119801995D01*
X148794780Y-119954333D01*
X148794786Y-119954346D01*
X148887708Y-120136713D01*
X148887712Y-120136720D01*
X148887715Y-120136725D01*
X149008028Y-120302325D01*
X149152786Y-120447083D01*
X149307748Y-120559667D01*
X149307749Y-120559669D01*
X149314626Y-120564664D01*
X149318390Y-120567399D01*
X149434607Y-120626615D01*
X149494327Y-120657044D01*
X149495930Y-120657982D01*
X149499629Y-120659774D01*
X149501637Y-120660772D01*
X149505403Y-120661834D01*
X149545488Y-120674858D01*
X149605135Y-120694238D01*
X149605136Y-120694239D01*
X149648612Y-120708365D01*
X149695465Y-120723589D01*
X149796557Y-120739600D01*
X149897648Y-120755612D01*
X149897649Y-120755612D01*
X150102351Y-120755612D01*
X150102352Y-120755612D01*
X150304534Y-120723589D01*
X150499219Y-120660332D01*
X150681610Y-120567399D01*
X150774590Y-120499844D01*
X150847213Y-120447083D01*
X150847213Y-120447081D01*
X150847272Y-120447039D01*
X150848031Y-120446265D01*
X150991152Y-120303144D01*
X150991923Y-120302388D01*
X150991962Y-120302334D01*
X150991966Y-120302331D01*
X150991968Y-120302327D01*
X150991971Y-120302325D01*
X151050229Y-120222139D01*
X151050232Y-120222135D01*
X151063557Y-120203793D01*
X151112287Y-120136722D01*
X151205220Y-119954331D01*
X151268477Y-119759646D01*
X151300500Y-119557464D01*
X151300500Y-119352760D01*
X151268477Y-119150578D01*
X151243058Y-119072347D01*
X151242210Y-119069737D01*
X151242210Y-119069736D01*
X151239129Y-119060256D01*
X151239127Y-119060250D01*
X151222603Y-119009395D01*
X151206722Y-118960517D01*
X151205660Y-118956749D01*
X151204654Y-118954724D01*
X151202869Y-118951040D01*
X151201934Y-118949441D01*
X151131032Y-118810292D01*
X151131030Y-118810288D01*
X151112293Y-118773514D01*
X151112287Y-118773502D01*
X151104556Y-118762861D01*
X150991971Y-118607898D01*
X150847213Y-118463140D01*
X150847212Y-118463139D01*
X150847211Y-118463138D01*
X150731194Y-118378848D01*
X156199499Y-118378848D01*
X156230257Y-118533471D01*
X156230264Y-118533502D01*
X156290598Y-118679165D01*
X156290603Y-118679174D01*
X156290613Y-118679191D01*
X156378210Y-118810288D01*
X156378212Y-118810291D01*
X156378217Y-118810297D01*
X156489701Y-118921781D01*
X156489707Y-118921786D01*
X156489711Y-118921789D01*
X156620814Y-119009390D01*
X156620827Y-119009397D01*
X156766498Y-119069735D01*
X156766503Y-119069737D01*
X156913513Y-119098979D01*
X156916247Y-119099703D01*
X156921155Y-119100500D01*
X157078844Y-119100500D01*
X157082964Y-119100500D01*
X157090814Y-119098118D01*
X157233497Y-119069737D01*
X157379179Y-119009394D01*
X157510289Y-118921789D01*
X157621789Y-118810289D01*
X157709394Y-118679179D01*
X157769737Y-118533497D01*
X157800500Y-118378842D01*
X157800500Y-118221158D01*
X157800500Y-118221155D01*
X157800500Y-118220973D01*
X157800065Y-118218972D01*
X157770395Y-118069815D01*
X157769984Y-118067406D01*
X157769737Y-118066503D01*
X157769734Y-118066496D01*
X157764210Y-118053160D01*
X157709397Y-117920827D01*
X157709390Y-117920814D01*
X157621789Y-117789711D01*
X157621786Y-117789707D01*
X157621781Y-117789701D01*
X157510297Y-117678217D01*
X157510291Y-117678212D01*
X157510290Y-117678211D01*
X157379191Y-117590613D01*
X157379190Y-117590612D01*
X157379185Y-117590609D01*
X157379172Y-117590602D01*
X157379165Y-117590598D01*
X157233502Y-117530264D01*
X157233471Y-117530257D01*
X157078847Y-117499500D01*
X157078845Y-117499500D01*
X157078842Y-117499500D01*
X156921158Y-117499500D01*
X156921155Y-117499500D01*
X156921153Y-117499500D01*
X156766527Y-117530257D01*
X156766496Y-117530264D01*
X156620833Y-117590598D01*
X156620824Y-117590603D01*
X156620807Y-117590613D01*
X156489708Y-117678211D01*
X156489707Y-117678212D01*
X156489701Y-117678217D01*
X156378217Y-117789701D01*
X156378212Y-117789707D01*
X156378211Y-117789708D01*
X156290613Y-117920807D01*
X156290603Y-117920824D01*
X156290598Y-117920833D01*
X156230264Y-118066496D01*
X156230257Y-118066527D01*
X156199500Y-118221150D01*
X156199500Y-118221153D01*
X156199500Y-118378846D01*
X156199500Y-118378848D01*
X156199499Y-118378848D01*
X150731194Y-118378848D01*
X150695110Y-118352632D01*
X150695104Y-118352628D01*
X150681613Y-118342827D01*
X150681612Y-118342826D01*
X150681610Y-118342825D01*
X150647708Y-118325551D01*
X150499223Y-118249893D01*
X150304534Y-118186634D01*
X150304532Y-118186633D01*
X150304530Y-118186633D01*
X150304529Y-118186632D01*
X150129995Y-118158990D01*
X150113409Y-118156363D01*
X150102354Y-118154612D01*
X150102352Y-118154612D01*
X149897648Y-118154612D01*
X149897647Y-118154612D01*
X149873327Y-118158463D01*
X149873326Y-118158462D01*
X149695468Y-118186633D01*
X149500777Y-118249892D01*
X149500764Y-118249898D01*
X149318397Y-118342820D01*
X149318385Y-118342827D01*
X149152787Y-118463139D01*
X149152784Y-118463141D01*
X149008029Y-118607896D01*
X149008027Y-118607899D01*
X148887715Y-118773497D01*
X148887708Y-118773509D01*
X148794786Y-118955876D01*
X148794780Y-118955889D01*
X148731521Y-119150580D01*
X148699500Y-119352754D01*
X148699500Y-119557464D01*
X148699499Y-119557466D01*
X132317730Y-119557466D01*
X132320500Y-119543543D01*
X132320500Y-118246453D01*
X132282112Y-118053469D01*
X132281967Y-118052728D01*
X132281825Y-118051992D01*
X132279735Y-118047573D01*
X132206635Y-117871092D01*
X132206628Y-117871079D01*
X132097139Y-117707218D01*
X132097136Y-117707214D01*
X132097131Y-117707208D01*
X131957790Y-117567867D01*
X131957784Y-117567862D01*
X131957783Y-117567861D01*
X131793926Y-117458375D01*
X131793925Y-117458374D01*
X131793920Y-117458371D01*
X131793907Y-117458364D01*
X131793900Y-117458360D01*
X131611861Y-117382958D01*
X131611847Y-117382953D01*
X131611839Y-117382950D01*
X131611829Y-117382947D01*
X131611826Y-117382946D01*
X131611822Y-117382945D01*
X131418546Y-117344500D01*
X131418543Y-117344500D01*
X131418541Y-117344500D01*
X131221459Y-117344500D01*
X131221457Y-117344500D01*
X131221453Y-117344500D01*
X131028176Y-117382945D01*
X131028170Y-117382947D01*
X131028160Y-117382950D01*
X131028155Y-117382951D01*
X131028137Y-117382958D01*
X130846098Y-117458360D01*
X130846089Y-117458365D01*
X130846072Y-117458375D01*
X130682215Y-117567861D01*
X130682214Y-117567862D01*
X130682208Y-117567867D01*
X130542867Y-117707208D01*
X130542862Y-117707214D01*
X130542861Y-117707215D01*
X130433375Y-117871072D01*
X130433365Y-117871089D01*
X130433360Y-117871098D01*
X130357958Y-118053137D01*
X130357945Y-118053176D01*
X130319500Y-118246451D01*
X130319500Y-118803572D01*
X130314475Y-118838513D01*
X130310564Y-118851830D01*
X130272787Y-118910606D01*
X130209232Y-118939627D01*
X130207625Y-118939858D01*
X130149429Y-118934301D01*
X130144693Y-118932662D01*
X130123247Y-118922869D01*
X130121362Y-118921781D01*
X130106978Y-118913476D01*
X130092849Y-118905319D01*
X130092835Y-118905311D01*
X129994994Y-118879095D01*
X129959183Y-118869500D01*
X129959182Y-118869500D01*
X129820817Y-118869500D01*
X129687177Y-118905308D01*
X129687160Y-118905313D01*
X129687148Y-118905319D01*
X129567347Y-118974485D01*
X129567337Y-118974492D01*
X129567331Y-118974497D01*
X129567324Y-118974503D01*
X129469503Y-119072324D01*
X129469497Y-119072331D01*
X129469492Y-119072337D01*
X129469485Y-119072347D01*
X129400319Y-119192148D01*
X129400313Y-119192160D01*
X129400308Y-119192177D01*
X129364500Y-119325817D01*
X124635500Y-119325817D01*
X124599688Y-119192164D01*
X124546766Y-119100500D01*
X124546765Y-119100498D01*
X124530510Y-119072343D01*
X124530506Y-119072337D01*
X124530501Y-119072331D01*
X124530495Y-119072324D01*
X124432674Y-118974503D01*
X124432667Y-118974497D01*
X124432661Y-118974492D01*
X124432660Y-118974491D01*
X124385332Y-118947167D01*
X124326973Y-118913473D01*
X124320442Y-118908462D01*
X124305230Y-118902161D01*
X124297068Y-118901087D01*
X124249872Y-118888441D01*
X124179183Y-118869500D01*
X124179182Y-118869500D01*
X124040817Y-118869500D01*
X123907166Y-118905311D01*
X123907159Y-118905313D01*
X123907158Y-118905314D01*
X123907153Y-118905317D01*
X123881936Y-118919876D01*
X123849176Y-118932991D01*
X123835691Y-118936263D01*
X123765900Y-118932942D01*
X123708987Y-118892418D01*
X123707974Y-118891129D01*
X123683685Y-118837928D01*
X123682735Y-118833002D01*
X123680500Y-118809563D01*
X123680500Y-118246453D01*
X123642112Y-118053469D01*
X123641967Y-118052728D01*
X123641825Y-118051992D01*
X123639735Y-118047573D01*
X123566635Y-117871092D01*
X123566628Y-117871079D01*
X123457139Y-117707218D01*
X123457136Y-117707214D01*
X123457131Y-117707208D01*
X123317790Y-117567867D01*
X123317784Y-117567862D01*
X123317783Y-117567861D01*
X123153926Y-117458375D01*
X123153925Y-117458374D01*
X123153920Y-117458371D01*
X123153907Y-117458364D01*
X123153900Y-117458360D01*
X122971861Y-117382958D01*
X122971847Y-117382953D01*
X122971839Y-117382950D01*
X122971829Y-117382947D01*
X122971826Y-117382946D01*
X122971822Y-117382945D01*
X122778546Y-117344500D01*
X122778543Y-117344500D01*
X122778541Y-117344500D01*
X122581459Y-117344500D01*
X122581457Y-117344500D01*
X122581453Y-117344500D01*
X122388176Y-117382945D01*
X122388170Y-117382947D01*
X122388160Y-117382950D01*
X122388155Y-117382951D01*
X122388137Y-117382958D01*
X122206098Y-117458360D01*
X122206089Y-117458365D01*
X122206072Y-117458375D01*
X122042215Y-117567861D01*
X122042214Y-117567862D01*
X122042208Y-117567867D01*
X121902867Y-117707208D01*
X121902862Y-117707214D01*
X121902861Y-117707215D01*
X121793375Y-117871072D01*
X121793365Y-117871089D01*
X121793360Y-117871098D01*
X121717958Y-118053137D01*
X121717945Y-118053176D01*
X121679500Y-118246451D01*
X121679500Y-119499174D01*
X121674237Y-119517094D01*
X113000500Y-119517094D01*
X113000500Y-115007947D01*
X113005523Y-114973011D01*
X113009927Y-114958013D01*
X113047672Y-114899262D01*
X113049041Y-114898075D01*
X113103920Y-114870595D01*
X113111479Y-114868951D01*
X113137832Y-114866118D01*
X152500000Y-114866118D01*
X152500000Y-106141829D01*
X152505023Y-106106893D01*
X152509427Y-106091895D01*
X152547172Y-106033144D01*
X152548541Y-106031957D01*
X152603420Y-106004477D01*
X152610979Y-106002833D01*
X152637332Y-106000000D01*
X159357670Y-106000000D01*
X159392606Y-106005023D01*
G37*
%TD.AperFunction*%
%TD*%
M02*
