%TF.GenerationSoftware,KiCad,Pcbnew,10.0.6*%
%TF.CreationDate,2026-10-06T13:55:22-04:00*%
%TF.ProjectId,E103-RTL8812CU-Breakout-Board,45313033-2d52-4544-9c38-38313243552d,rev?*%
%TF.SameCoordinates,Original*%
%TF.FileFunction,Copper,L3,Inr*%
%TF.FilePolarity,Positive*%
%FSLAX46Y46*%
G04 Gerber Fmt 4.6, Leading zero omitted, Abs format (unit mm)*
G04 Created by KiCad (PCBNEW 10.0.6) date 2026-10-06 13:55:22*
%MOMM*%
%LPD*%
G01*
G04 APERTURE LIST*
G04 Aperture macros list*
%AMRoundRect*
0 Rectangle with rounded corners*
0 $1 Rounding radius*
0 $2 $3 $4 $5 $6 $7 $8 $9 X,Y pos of 4 corners*
0 Add a 4 corners polygon primitive as box body*
4,1,4,$2,$3,$4,$5,$6,$7,$8,$9,$2,$3,0*
0 Add four circle primitives for the rounded corners*
1,1,$1+$1,$2,$3*
1,1,$1+$1,$4,$5*
1,1,$1+$1,$6,$7*
1,1,$1+$1,$8,$9*
0 Add four rect primitives between the rounded corners*
20,1,$1+$1,$2,$3,$4,$5,0*
20,1,$1+$1,$4,$5,$6,$7,0*
20,1,$1+$1,$6,$7,$8,$9,0*
20,1,$1+$1,$8,$9,$2,$3,0*%
G04 Aperture macros list end*
%TA.AperFunction,ComponentPad*%
%ADD10O,1.000000X2.100000*%
%TD*%
%TA.AperFunction,ComponentPad*%
%ADD11O,1.000000X1.800000*%
%TD*%
%TA.AperFunction,ComponentPad*%
%ADD12R,1.700000X1.700000*%
%TD*%
%TA.AperFunction,ComponentPad*%
%ADD13RoundRect,0.250000X0.550000X-0.550000X0.550000X0.550000X-0.550000X0.550000X-0.550000X-0.550000X0*%
%TD*%
%TA.AperFunction,ComponentPad*%
%ADD14C,1.600000*%
%TD*%
%TA.AperFunction,ViaPad*%
%ADD15C,0.600000*%
%TD*%
G04 APERTURE END LIST*
D10*
%TO.N,GND*%
%TO.C,J2*%
X122680000Y-118895000D03*
D11*
X122680000Y-123075000D03*
D10*
X131320000Y-118895000D03*
D11*
X131320000Y-123075000D03*
%TD*%
D12*
%TO.N,Net-(U2-RESET)*%
%TO.C,TP7*%
X137000000Y-108500000D03*
%TD*%
%TO.N,GND*%
%TO.C,TP6*%
X156500000Y-86300000D03*
%TD*%
D13*
%TO.N,+3.3V*%
%TO.C,C5*%
X138500000Y-97455113D03*
D14*
%TO.N,GND*%
X138500000Y-95455113D03*
%TD*%
D12*
%TO.N,+3.3V*%
%TO.C,TP5*%
X147500000Y-86300000D03*
%TD*%
D13*
%TO.N,/V_IN*%
%TO.C,C6*%
X150000000Y-121455112D03*
D14*
%TO.N,GND*%
X150000000Y-119455112D03*
%TD*%
D12*
%TO.N,GND*%
%TO.C,TP3*%
X136000000Y-123500000D03*
%TD*%
%TO.N,/V_IN*%
%TO.C,TP1*%
X142000000Y-118000000D03*
%TD*%
%TO.N,GND*%
%TO.C,TP4*%
X142000000Y-123500000D03*
%TD*%
%TO.N,/V_IN*%
%TO.C,TP2*%
X136000000Y-118000000D03*
%TD*%
D15*
%TO.N,GND*%
X151000000Y-111300000D03*
X129701013Y-76144079D03*
X118500000Y-86000000D03*
X123500000Y-108000000D03*
X144000000Y-78500000D03*
X129500000Y-102500000D03*
X121273554Y-79750000D03*
X115500000Y-108000000D03*
X131000000Y-114000000D03*
X124500000Y-108000000D03*
X148624787Y-112309065D03*
X149875213Y-109290935D03*
X149875213Y-111290935D03*
X150000000Y-90300000D03*
X149875213Y-110290935D03*
X139000000Y-87000000D03*
X156000000Y-78500000D03*
X126674372Y-79750000D03*
X136300000Y-76600000D03*
X149875213Y-112290935D03*
X151000000Y-112300000D03*
X119500000Y-102500000D03*
X150000000Y-94300000D03*
X146000000Y-90300000D03*
X129500000Y-86000000D03*
X136000000Y-113000000D03*
X146000000Y-91300000D03*
X150500000Y-87800000D03*
X151000000Y-109300000D03*
X123000000Y-80000000D03*
X150000000Y-91300000D03*
X151000000Y-110300000D03*
X146000000Y-93300000D03*
X146000000Y-94300000D03*
X149875213Y-113290935D03*
X149875213Y-107290935D03*
X157000000Y-118300000D03*
X125000000Y-80250000D03*
X148624787Y-113309065D03*
X116500000Y-108000000D03*
X121293389Y-76250000D03*
X147500000Y-113300000D03*
X118250000Y-76250000D03*
X150000000Y-93300000D03*
X125000000Y-76000000D03*
X151000000Y-107300000D03*
X147500000Y-112300000D03*
X129700000Y-79764603D03*
X123000000Y-76000000D03*
X151000000Y-108300000D03*
X126700000Y-76250000D03*
X118266393Y-79750000D03*
X150000000Y-92300000D03*
X149875213Y-108290935D03*
X123500000Y-113500000D03*
X146000000Y-92300000D03*
X151000000Y-113300000D03*
%TO.N,+3.3V*%
X130500000Y-108000000D03*
X136300000Y-81000000D03*
X154000000Y-94300000D03*
X158000000Y-93300000D03*
X154000000Y-92300000D03*
X154000000Y-90300000D03*
X158000000Y-90300000D03*
X158000000Y-94300000D03*
X158000000Y-91300000D03*
X132000000Y-113000000D03*
X153500000Y-87800000D03*
X158000000Y-92300000D03*
X154000000Y-93300000D03*
X129500000Y-108000000D03*
X154000000Y-91300000D03*
X130500000Y-112000000D03*
X129500000Y-112000000D03*
%TO.N,/V_IN*%
X157400000Y-113600000D03*
X155100000Y-114700000D03*
X155100000Y-112400000D03*
X114500000Y-116000000D03*
X156200000Y-113600000D03*
X155100000Y-113600000D03*
X114500000Y-117300000D03*
X157400000Y-112400000D03*
X114500000Y-118500000D03*
X156200000Y-112400000D03*
%TD*%
%TA.AperFunction,Conductor*%
%TO.N,GND*%
G36*
X158004418Y-75500816D02*
G01*
X158204561Y-75515130D01*
X158222063Y-75517647D01*
X158413795Y-75559355D01*
X158430760Y-75564336D01*
X158614611Y-75632909D01*
X158630694Y-75640253D01*
X158747495Y-75704032D01*
X158802908Y-75734290D01*
X158817791Y-75743855D01*
X158974864Y-75861438D01*
X158988235Y-75873024D01*
X159126975Y-76011764D01*
X159138561Y-76025135D01*
X159256144Y-76182208D01*
X159265709Y-76197091D01*
X159359743Y-76369300D01*
X159367093Y-76385394D01*
X159435661Y-76569234D01*
X159440645Y-76586209D01*
X159482351Y-76777931D01*
X159484869Y-76795442D01*
X159499184Y-76995580D01*
X159499500Y-77004427D01*
X159499500Y-123670572D01*
X159499184Y-123679419D01*
X159484869Y-123879557D01*
X159482351Y-123897068D01*
X159440645Y-124088790D01*
X159435661Y-124105765D01*
X159367093Y-124289605D01*
X159359743Y-124305699D01*
X159265709Y-124477908D01*
X159256144Y-124492791D01*
X159138561Y-124649864D01*
X159126975Y-124663235D01*
X158988235Y-124801975D01*
X158974864Y-124813561D01*
X158817791Y-124931144D01*
X158802908Y-124940709D01*
X158630699Y-125034743D01*
X158614605Y-125042093D01*
X158430765Y-125110661D01*
X158413790Y-125115645D01*
X158222068Y-125157351D01*
X158204557Y-125159869D01*
X158023779Y-125172799D01*
X158004417Y-125174184D01*
X157995572Y-125174500D01*
X114504428Y-125174500D01*
X114495582Y-125174184D01*
X114473622Y-125172613D01*
X114295442Y-125159869D01*
X114277931Y-125157351D01*
X114086209Y-125115645D01*
X114069234Y-125110661D01*
X113885394Y-125042093D01*
X113869300Y-125034743D01*
X113697091Y-124940709D01*
X113682208Y-124931144D01*
X113525135Y-124813561D01*
X113511764Y-124801975D01*
X113373024Y-124663235D01*
X113361438Y-124649864D01*
X113243855Y-124492791D01*
X113234290Y-124477908D01*
X113223080Y-124457379D01*
X113140253Y-124305694D01*
X113132909Y-124289611D01*
X113064336Y-124105760D01*
X113059354Y-124088790D01*
X113040039Y-124000000D01*
X113017647Y-123897063D01*
X113015130Y-123879556D01*
X113000816Y-123679418D01*
X113000500Y-123670572D01*
X113000500Y-122576504D01*
X121680000Y-122576504D01*
X121680000Y-122825000D01*
X122380000Y-122825000D01*
X122380000Y-123325000D01*
X121680000Y-123325000D01*
X121680000Y-123573495D01*
X121718427Y-123766681D01*
X121718430Y-123766693D01*
X121793807Y-123948671D01*
X121793814Y-123948684D01*
X121903248Y-124112462D01*
X121903251Y-124112466D01*
X122042533Y-124251748D01*
X122042537Y-124251751D01*
X122206315Y-124361185D01*
X122206328Y-124361192D01*
X122388308Y-124436569D01*
X122430000Y-124444862D01*
X122430000Y-123641988D01*
X122439940Y-123659205D01*
X122495795Y-123715060D01*
X122564204Y-123754556D01*
X122640504Y-123775000D01*
X122719496Y-123775000D01*
X122795796Y-123754556D01*
X122864205Y-123715060D01*
X122920060Y-123659205D01*
X122930000Y-123641988D01*
X122930000Y-124444862D01*
X122971690Y-124436569D01*
X122971692Y-124436569D01*
X123153671Y-124361192D01*
X123153684Y-124361185D01*
X123317462Y-124251751D01*
X123317466Y-124251748D01*
X123456748Y-124112466D01*
X123456751Y-124112462D01*
X123566185Y-123948684D01*
X123566192Y-123948671D01*
X123641569Y-123766693D01*
X123641572Y-123766681D01*
X123679999Y-123573495D01*
X123680000Y-123573492D01*
X123680000Y-123325000D01*
X122980000Y-123325000D01*
X122980000Y-122825000D01*
X123680000Y-122825000D01*
X123680000Y-122576508D01*
X123679999Y-122576504D01*
X130320000Y-122576504D01*
X130320000Y-122825000D01*
X131020000Y-122825000D01*
X131020000Y-123325000D01*
X130320000Y-123325000D01*
X130320000Y-123573495D01*
X130358427Y-123766681D01*
X130358430Y-123766693D01*
X130433807Y-123948671D01*
X130433814Y-123948684D01*
X130543248Y-124112462D01*
X130543251Y-124112466D01*
X130682533Y-124251748D01*
X130682537Y-124251751D01*
X130846315Y-124361185D01*
X130846328Y-124361192D01*
X131028308Y-124436569D01*
X131070000Y-124444862D01*
X131070000Y-123641988D01*
X131079940Y-123659205D01*
X131135795Y-123715060D01*
X131204204Y-123754556D01*
X131280504Y-123775000D01*
X131359496Y-123775000D01*
X131435796Y-123754556D01*
X131504205Y-123715060D01*
X131560060Y-123659205D01*
X131570000Y-123641988D01*
X131570000Y-124444862D01*
X131611690Y-124436569D01*
X131611692Y-124436569D01*
X131793671Y-124361192D01*
X131793684Y-124361185D01*
X131957462Y-124251751D01*
X131957466Y-124251748D01*
X132096748Y-124112466D01*
X132096751Y-124112462D01*
X132206185Y-123948684D01*
X132206192Y-123948671D01*
X132281569Y-123766693D01*
X132281569Y-123766691D01*
X132299918Y-123674447D01*
X132299919Y-123674443D01*
X132319999Y-123573494D01*
X132320000Y-123573492D01*
X132320000Y-123325000D01*
X131620000Y-123325000D01*
X131620000Y-122825000D01*
X132320000Y-122825000D01*
X132320000Y-122602155D01*
X134650000Y-122602155D01*
X134650000Y-123250000D01*
X135566988Y-123250000D01*
X135534075Y-123307007D01*
X135500000Y-123434174D01*
X135500000Y-123565826D01*
X135534075Y-123692993D01*
X135566988Y-123750000D01*
X134650000Y-123750000D01*
X134650000Y-124397844D01*
X134656401Y-124457372D01*
X134656403Y-124457379D01*
X134706645Y-124592086D01*
X134706649Y-124592093D01*
X134792809Y-124707187D01*
X134792812Y-124707190D01*
X134907906Y-124793350D01*
X134907913Y-124793354D01*
X135042620Y-124843596D01*
X135042627Y-124843598D01*
X135102155Y-124849999D01*
X135102172Y-124850000D01*
X135750000Y-124850000D01*
X135750000Y-123933012D01*
X135807007Y-123965925D01*
X135934174Y-124000000D01*
X136065826Y-124000000D01*
X136192993Y-123965925D01*
X136250000Y-123933012D01*
X136250000Y-124850000D01*
X136897828Y-124850000D01*
X136897844Y-124849999D01*
X136957372Y-124843598D01*
X136957379Y-124843596D01*
X137092086Y-124793354D01*
X137092093Y-124793350D01*
X137207187Y-124707190D01*
X137207190Y-124707187D01*
X137293350Y-124592093D01*
X137293354Y-124592086D01*
X137343596Y-124457379D01*
X137343598Y-124457372D01*
X137349999Y-124397844D01*
X137350000Y-124397827D01*
X137350000Y-123750000D01*
X136433012Y-123750000D01*
X136465925Y-123692993D01*
X136500000Y-123565826D01*
X136500000Y-123434174D01*
X136465925Y-123307007D01*
X136433012Y-123250000D01*
X137350000Y-123250000D01*
X137350000Y-122602172D01*
X137349999Y-122602155D01*
X140650000Y-122602155D01*
X140650000Y-123250000D01*
X141566988Y-123250000D01*
X141534075Y-123307007D01*
X141500000Y-123434174D01*
X141500000Y-123565826D01*
X141534075Y-123692993D01*
X141566988Y-123750000D01*
X140650000Y-123750000D01*
X140650000Y-124397844D01*
X140656401Y-124457372D01*
X140656403Y-124457379D01*
X140706645Y-124592086D01*
X140706649Y-124592093D01*
X140792809Y-124707187D01*
X140792812Y-124707190D01*
X140907906Y-124793350D01*
X140907913Y-124793354D01*
X141042620Y-124843596D01*
X141042627Y-124843598D01*
X141102155Y-124849999D01*
X141102172Y-124850000D01*
X141750000Y-124850000D01*
X141750000Y-123933012D01*
X141807007Y-123965925D01*
X141934174Y-124000000D01*
X142065826Y-124000000D01*
X142192993Y-123965925D01*
X142250000Y-123933012D01*
X142250000Y-124850000D01*
X142897828Y-124850000D01*
X142897844Y-124849999D01*
X142957372Y-124843598D01*
X142957379Y-124843596D01*
X143092086Y-124793354D01*
X143092093Y-124793350D01*
X143207187Y-124707190D01*
X143207190Y-124707187D01*
X143293350Y-124592093D01*
X143293354Y-124592086D01*
X143343596Y-124457379D01*
X143343598Y-124457372D01*
X143349999Y-124397844D01*
X143350000Y-124397827D01*
X143350000Y-123750000D01*
X142433012Y-123750000D01*
X142465925Y-123692993D01*
X142500000Y-123565826D01*
X142500000Y-123434174D01*
X142465925Y-123307007D01*
X142433012Y-123250000D01*
X143350000Y-123250000D01*
X143350000Y-122602172D01*
X143349999Y-122602155D01*
X143343598Y-122542627D01*
X143343596Y-122542620D01*
X143293354Y-122407913D01*
X143293350Y-122407906D01*
X143207190Y-122292812D01*
X143207187Y-122292809D01*
X143092093Y-122206649D01*
X143092086Y-122206645D01*
X142957379Y-122156403D01*
X142957372Y-122156401D01*
X142897844Y-122150000D01*
X142250000Y-122150000D01*
X142250000Y-123066988D01*
X142192993Y-123034075D01*
X142065826Y-123000000D01*
X141934174Y-123000000D01*
X141807007Y-123034075D01*
X141750000Y-123066988D01*
X141750000Y-122150000D01*
X141102155Y-122150000D01*
X141042627Y-122156401D01*
X141042620Y-122156403D01*
X140907913Y-122206645D01*
X140907906Y-122206649D01*
X140792812Y-122292809D01*
X140792809Y-122292812D01*
X140706649Y-122407906D01*
X140706645Y-122407913D01*
X140656403Y-122542620D01*
X140656401Y-122542627D01*
X140650000Y-122602155D01*
X137349999Y-122602155D01*
X137343598Y-122542627D01*
X137343596Y-122542620D01*
X137293354Y-122407913D01*
X137293350Y-122407906D01*
X137207190Y-122292812D01*
X137207187Y-122292809D01*
X137092093Y-122206649D01*
X137092086Y-122206645D01*
X136957379Y-122156403D01*
X136957372Y-122156401D01*
X136897844Y-122150000D01*
X136250000Y-122150000D01*
X136250000Y-123066988D01*
X136192993Y-123034075D01*
X136065826Y-123000000D01*
X135934174Y-123000000D01*
X135807007Y-123034075D01*
X135750000Y-123066988D01*
X135750000Y-122150000D01*
X135102155Y-122150000D01*
X135042627Y-122156401D01*
X135042620Y-122156403D01*
X134907913Y-122206645D01*
X134907906Y-122206649D01*
X134792812Y-122292809D01*
X134792809Y-122292812D01*
X134706649Y-122407906D01*
X134706645Y-122407913D01*
X134656403Y-122542620D01*
X134656401Y-122542627D01*
X134650000Y-122602155D01*
X132320000Y-122602155D01*
X132320000Y-122576508D01*
X132319999Y-122576504D01*
X132281572Y-122383318D01*
X132281569Y-122383306D01*
X132206192Y-122201328D01*
X132206185Y-122201315D01*
X132096751Y-122037537D01*
X132096748Y-122037533D01*
X131957466Y-121898251D01*
X131957462Y-121898248D01*
X131793684Y-121788814D01*
X131793671Y-121788807D01*
X131611691Y-121713429D01*
X131611683Y-121713427D01*
X131570000Y-121705135D01*
X131570000Y-122508011D01*
X131560060Y-122490795D01*
X131504205Y-122434940D01*
X131435796Y-122395444D01*
X131359496Y-122375000D01*
X131280504Y-122375000D01*
X131204204Y-122395444D01*
X131135795Y-122434940D01*
X131079940Y-122490795D01*
X131070000Y-122508011D01*
X131070000Y-121705136D01*
X131069999Y-121705135D01*
X131028316Y-121713427D01*
X131028308Y-121713429D01*
X130846328Y-121788807D01*
X130846315Y-121788814D01*
X130682537Y-121898248D01*
X130682533Y-121898251D01*
X130543251Y-122037533D01*
X130543248Y-122037537D01*
X130433814Y-122201315D01*
X130433807Y-122201328D01*
X130358430Y-122383306D01*
X130358427Y-122383318D01*
X130320000Y-122576504D01*
X123679999Y-122576504D01*
X123641572Y-122383318D01*
X123641569Y-122383306D01*
X123566192Y-122201328D01*
X123566185Y-122201315D01*
X123456751Y-122037537D01*
X123456748Y-122037533D01*
X123317466Y-121898251D01*
X123317462Y-121898248D01*
X123153684Y-121788814D01*
X123153671Y-121788807D01*
X122971691Y-121713429D01*
X122971683Y-121713427D01*
X122930000Y-121705135D01*
X122930000Y-122508011D01*
X122920060Y-122490795D01*
X122864205Y-122434940D01*
X122795796Y-122395444D01*
X122719496Y-122375000D01*
X122640504Y-122375000D01*
X122564204Y-122395444D01*
X122495795Y-122434940D01*
X122439940Y-122490795D01*
X122430000Y-122508011D01*
X122430000Y-121705136D01*
X122429999Y-121705135D01*
X122388316Y-121713427D01*
X122388308Y-121713429D01*
X122206328Y-121788807D01*
X122206315Y-121788814D01*
X122042537Y-121898248D01*
X122042533Y-121898251D01*
X121903251Y-122037533D01*
X121903248Y-122037537D01*
X121793814Y-122201315D01*
X121793807Y-122201328D01*
X121718430Y-122383306D01*
X121718427Y-122383318D01*
X121680000Y-122576504D01*
X113000500Y-122576504D01*
X113000500Y-120855095D01*
X148699500Y-120855095D01*
X148699500Y-122055113D01*
X148699501Y-122055130D01*
X148710000Y-122157908D01*
X148710001Y-122157911D01*
X148765185Y-122324443D01*
X148765186Y-122324446D01*
X148857288Y-122473768D01*
X148981344Y-122597824D01*
X149130666Y-122689926D01*
X149297203Y-122745111D01*
X149399991Y-122755612D01*
X150600008Y-122755611D01*
X150702797Y-122745111D01*
X150869334Y-122689926D01*
X151018656Y-122597824D01*
X151142712Y-122473768D01*
X151234814Y-122324446D01*
X151289999Y-122157909D01*
X151300500Y-122055121D01*
X151300499Y-120855104D01*
X151289999Y-120752315D01*
X151234814Y-120585778D01*
X151142712Y-120436456D01*
X151073488Y-120367232D01*
X151040003Y-120305909D01*
X151044987Y-120236217D01*
X151060852Y-120206664D01*
X151111858Y-120136461D01*
X151111863Y-120136453D01*
X151204755Y-119954143D01*
X151267990Y-119759529D01*
X151300000Y-119557429D01*
X151300000Y-119352794D01*
X151267990Y-119150694D01*
X151204755Y-118956080D01*
X151111859Y-118773762D01*
X151079474Y-118729189D01*
X151079474Y-118729188D01*
X150400000Y-119408663D01*
X150400000Y-119402451D01*
X150372741Y-119300718D01*
X150320080Y-119209506D01*
X150245606Y-119135032D01*
X150154394Y-119082371D01*
X150052661Y-119055112D01*
X150046446Y-119055112D01*
X150725922Y-118375636D01*
X150725921Y-118375635D01*
X150681359Y-118343259D01*
X150681350Y-118343253D01*
X150499031Y-118250356D01*
X150304417Y-118187121D01*
X150102317Y-118155112D01*
X149897683Y-118155112D01*
X149695582Y-118187121D01*
X149500968Y-118250356D01*
X149318644Y-118343255D01*
X149274077Y-118375635D01*
X149274077Y-118375636D01*
X149953554Y-119055112D01*
X149947339Y-119055112D01*
X149845606Y-119082371D01*
X149754394Y-119135032D01*
X149679920Y-119209506D01*
X149627259Y-119300718D01*
X149600000Y-119402451D01*
X149600000Y-119408665D01*
X148920524Y-118729189D01*
X148920523Y-118729189D01*
X148888143Y-118773756D01*
X148795244Y-118956080D01*
X148732009Y-119150694D01*
X148700000Y-119352794D01*
X148700000Y-119557429D01*
X148732009Y-119759529D01*
X148795244Y-119954143D01*
X148888142Y-120136464D01*
X148939147Y-120206667D01*
X148962627Y-120272473D01*
X148946802Y-120340527D01*
X148926511Y-120367233D01*
X148857287Y-120436457D01*
X148765187Y-120585775D01*
X148765186Y-120585778D01*
X148710001Y-120752315D01*
X148710001Y-120752316D01*
X148710000Y-120752316D01*
X148699500Y-120855095D01*
X113000500Y-120855095D01*
X113000500Y-115921153D01*
X113699500Y-115921153D01*
X113699500Y-116078846D01*
X113730261Y-116233489D01*
X113730264Y-116233501D01*
X113790602Y-116379172D01*
X113790609Y-116379185D01*
X113878210Y-116510288D01*
X113878213Y-116510292D01*
X113930240Y-116562319D01*
X113963725Y-116623642D01*
X113958741Y-116693334D01*
X113930240Y-116737681D01*
X113878213Y-116789707D01*
X113878210Y-116789711D01*
X113790609Y-116920814D01*
X113790602Y-116920827D01*
X113730264Y-117066498D01*
X113730261Y-117066510D01*
X113699500Y-117221153D01*
X113699500Y-117378846D01*
X113730261Y-117533489D01*
X113730264Y-117533501D01*
X113790602Y-117679172D01*
X113790609Y-117679185D01*
X113878210Y-117810288D01*
X113878213Y-117810292D01*
X113880240Y-117812319D01*
X113880962Y-117813642D01*
X113882076Y-117814999D01*
X113881818Y-117815210D01*
X113913725Y-117873642D01*
X113908741Y-117943334D01*
X113882001Y-117984939D01*
X113882076Y-117985001D01*
X113881552Y-117985639D01*
X113880240Y-117987681D01*
X113878213Y-117989707D01*
X113878210Y-117989711D01*
X113790609Y-118120814D01*
X113790602Y-118120827D01*
X113730264Y-118266498D01*
X113730261Y-118266510D01*
X113699500Y-118421153D01*
X113699500Y-118578846D01*
X113730261Y-118733489D01*
X113730264Y-118733501D01*
X113790602Y-118879172D01*
X113790609Y-118879185D01*
X113878210Y-119010288D01*
X113878213Y-119010292D01*
X113989707Y-119121786D01*
X113989711Y-119121789D01*
X114120814Y-119209390D01*
X114120827Y-119209397D01*
X114266498Y-119269735D01*
X114266503Y-119269737D01*
X114387440Y-119293793D01*
X114421153Y-119300499D01*
X114421156Y-119300500D01*
X114421158Y-119300500D01*
X114578844Y-119300500D01*
X114578845Y-119300499D01*
X114733497Y-119269737D01*
X114879179Y-119209394D01*
X115010289Y-119121789D01*
X115121789Y-119010289D01*
X115209394Y-118879179D01*
X115269737Y-118733497D01*
X115300500Y-118578842D01*
X115300500Y-118421158D01*
X115300500Y-118421155D01*
X115300499Y-118421153D01*
X115269740Y-118266514D01*
X115269735Y-118266498D01*
X115261453Y-118246504D01*
X121680000Y-118246504D01*
X121680000Y-118645000D01*
X122380000Y-118645000D01*
X122380000Y-119145000D01*
X121680000Y-119145000D01*
X121680000Y-119543495D01*
X121718427Y-119736681D01*
X121718430Y-119736693D01*
X121793807Y-119918671D01*
X121793814Y-119918684D01*
X121903248Y-120082462D01*
X121903251Y-120082466D01*
X122042533Y-120221748D01*
X122042537Y-120221751D01*
X122206315Y-120331185D01*
X122206328Y-120331192D01*
X122388308Y-120406569D01*
X122430000Y-120414862D01*
X122430000Y-119611988D01*
X122439940Y-119629205D01*
X122495795Y-119685060D01*
X122564204Y-119724556D01*
X122640504Y-119745000D01*
X122719496Y-119745000D01*
X122795796Y-119724556D01*
X122864205Y-119685060D01*
X122920060Y-119629205D01*
X122930000Y-119611988D01*
X122930000Y-120414862D01*
X122971690Y-120406569D01*
X122971692Y-120406569D01*
X123153671Y-120331192D01*
X123153684Y-120331185D01*
X123317462Y-120221751D01*
X123317466Y-120221748D01*
X123456748Y-120082466D01*
X123456751Y-120082462D01*
X123566185Y-119918684D01*
X123566190Y-119918674D01*
X123590160Y-119860804D01*
X123634000Y-119806399D01*
X123700293Y-119784333D01*
X123767993Y-119801611D01*
X123780375Y-119811229D01*
X123780890Y-119810559D01*
X123787333Y-119815503D01*
X123787335Y-119815505D01*
X123907164Y-119884688D01*
X124040817Y-119920500D01*
X124040819Y-119920500D01*
X124179181Y-119920500D01*
X124179183Y-119920500D01*
X124312836Y-119884688D01*
X124432665Y-119815505D01*
X124530505Y-119717665D01*
X124599688Y-119597836D01*
X124635500Y-119464183D01*
X124635500Y-119325817D01*
X129364500Y-119325817D01*
X129364500Y-119464183D01*
X129394915Y-119577692D01*
X129400312Y-119597835D01*
X129400313Y-119597838D01*
X129469492Y-119717661D01*
X129469494Y-119717664D01*
X129469495Y-119717665D01*
X129567335Y-119815505D01*
X129687164Y-119884688D01*
X129820817Y-119920500D01*
X129820819Y-119920500D01*
X129959181Y-119920500D01*
X129959183Y-119920500D01*
X130092836Y-119884688D01*
X130212665Y-119815505D01*
X130212669Y-119815500D01*
X130219110Y-119810559D01*
X130221133Y-119813196D01*
X130268830Y-119787107D01*
X130338525Y-119792040D01*
X130394489Y-119833870D01*
X130409838Y-119860802D01*
X130433807Y-119918672D01*
X130433814Y-119918684D01*
X130543248Y-120082462D01*
X130543251Y-120082466D01*
X130682533Y-120221748D01*
X130682537Y-120221751D01*
X130846315Y-120331185D01*
X130846328Y-120331192D01*
X131028308Y-120406569D01*
X131070000Y-120414862D01*
X131070000Y-119611988D01*
X131079940Y-119629205D01*
X131135795Y-119685060D01*
X131204204Y-119724556D01*
X131280504Y-119745000D01*
X131359496Y-119745000D01*
X131435796Y-119724556D01*
X131504205Y-119685060D01*
X131560060Y-119629205D01*
X131570000Y-119611988D01*
X131570000Y-120414862D01*
X131611690Y-120406569D01*
X131611692Y-120406569D01*
X131793671Y-120331192D01*
X131793684Y-120331185D01*
X131957462Y-120221751D01*
X131957466Y-120221748D01*
X132096748Y-120082466D01*
X132096751Y-120082462D01*
X132206185Y-119918684D01*
X132206192Y-119918671D01*
X132281569Y-119736693D01*
X132281572Y-119736681D01*
X132319999Y-119543495D01*
X132320000Y-119543492D01*
X132320000Y-119145000D01*
X131620000Y-119145000D01*
X131620000Y-118645000D01*
X132320000Y-118645000D01*
X132320000Y-118246508D01*
X132319999Y-118246504D01*
X132281572Y-118053318D01*
X132281569Y-118053306D01*
X132206192Y-117871328D01*
X132206185Y-117871315D01*
X132096751Y-117707537D01*
X132096748Y-117707533D01*
X131957466Y-117568251D01*
X131957462Y-117568248D01*
X131793684Y-117458814D01*
X131793671Y-117458807D01*
X131611691Y-117383429D01*
X131611683Y-117383427D01*
X131570000Y-117375135D01*
X131570000Y-118178011D01*
X131560060Y-118160795D01*
X131504205Y-118104940D01*
X131435796Y-118065444D01*
X131359496Y-118045000D01*
X131280504Y-118045000D01*
X131204204Y-118065444D01*
X131135795Y-118104940D01*
X131079940Y-118160795D01*
X131070000Y-118178011D01*
X131070000Y-117375136D01*
X131069999Y-117375135D01*
X131028316Y-117383427D01*
X131028308Y-117383429D01*
X130846328Y-117458807D01*
X130846315Y-117458814D01*
X130682537Y-117568248D01*
X130682533Y-117568251D01*
X130543251Y-117707533D01*
X130543248Y-117707537D01*
X130433814Y-117871315D01*
X130433807Y-117871328D01*
X130358430Y-118053306D01*
X130358427Y-118053318D01*
X130320000Y-118246504D01*
X130320000Y-118645000D01*
X131020000Y-118645000D01*
X131020000Y-119145000D01*
X130424050Y-119145000D01*
X130357011Y-119125315D01*
X130316663Y-119083001D01*
X130310505Y-119072335D01*
X130212666Y-118974496D01*
X130212661Y-118974492D01*
X130092838Y-118905313D01*
X130092837Y-118905312D01*
X130092836Y-118905312D01*
X129959183Y-118869500D01*
X129820817Y-118869500D01*
X129687164Y-118905312D01*
X129687161Y-118905313D01*
X129567338Y-118974492D01*
X129567333Y-118974496D01*
X129469496Y-119072333D01*
X129469492Y-119072338D01*
X129400313Y-119192161D01*
X129400312Y-119192164D01*
X129364500Y-119325817D01*
X124635500Y-119325817D01*
X124599688Y-119192164D01*
X124530505Y-119072335D01*
X124432665Y-118974495D01*
X124432664Y-118974494D01*
X124432661Y-118974492D01*
X124312838Y-118905313D01*
X124312837Y-118905312D01*
X124312836Y-118905312D01*
X124179183Y-118869500D01*
X124040817Y-118869500D01*
X123907164Y-118905312D01*
X123907161Y-118905313D01*
X123787338Y-118974492D01*
X123787333Y-118974496D01*
X123689494Y-119072335D01*
X123683337Y-119083001D01*
X123632769Y-119131216D01*
X123575950Y-119145000D01*
X122980000Y-119145000D01*
X122980000Y-118645000D01*
X123680000Y-118645000D01*
X123680000Y-118246508D01*
X123679999Y-118246504D01*
X123641572Y-118053318D01*
X123641569Y-118053306D01*
X123566192Y-117871328D01*
X123566185Y-117871315D01*
X123456751Y-117707537D01*
X123456748Y-117707533D01*
X123317466Y-117568251D01*
X123317462Y-117568248D01*
X123153684Y-117458814D01*
X123153671Y-117458807D01*
X122971691Y-117383429D01*
X122971683Y-117383427D01*
X122930000Y-117375135D01*
X122930000Y-118178011D01*
X122920060Y-118160795D01*
X122864205Y-118104940D01*
X122795796Y-118065444D01*
X122719496Y-118045000D01*
X122640504Y-118045000D01*
X122564204Y-118065444D01*
X122495795Y-118104940D01*
X122439940Y-118160795D01*
X122430000Y-118178011D01*
X122430000Y-117375136D01*
X122429999Y-117375135D01*
X122388316Y-117383427D01*
X122388308Y-117383429D01*
X122206328Y-117458807D01*
X122206315Y-117458814D01*
X122042537Y-117568248D01*
X122042533Y-117568251D01*
X121903251Y-117707533D01*
X121903248Y-117707537D01*
X121793814Y-117871315D01*
X121793807Y-117871328D01*
X121718430Y-118053306D01*
X121718427Y-118053318D01*
X121680000Y-118246504D01*
X115261453Y-118246504D01*
X115209397Y-118120827D01*
X115209390Y-118120814D01*
X115121789Y-117989711D01*
X115119766Y-117987688D01*
X115119043Y-117986365D01*
X115117924Y-117985001D01*
X115118182Y-117984788D01*
X115086276Y-117926368D01*
X115091255Y-117856676D01*
X115117999Y-117815060D01*
X115117924Y-117814999D01*
X115118454Y-117814351D01*
X115119766Y-117812312D01*
X115121789Y-117810289D01*
X115209394Y-117679179D01*
X115269737Y-117533497D01*
X115300500Y-117378842D01*
X115300500Y-117221158D01*
X115300500Y-117221155D01*
X115300499Y-117221153D01*
X115280975Y-117122997D01*
X115276825Y-117102135D01*
X134649500Y-117102135D01*
X134649500Y-118897870D01*
X134649501Y-118897876D01*
X134655908Y-118957483D01*
X134706202Y-119092328D01*
X134706206Y-119092335D01*
X134792452Y-119207544D01*
X134792455Y-119207547D01*
X134907664Y-119293793D01*
X134907671Y-119293797D01*
X135042517Y-119344091D01*
X135042516Y-119344091D01*
X135049444Y-119344835D01*
X135102127Y-119350500D01*
X136897872Y-119350499D01*
X136957483Y-119344091D01*
X137092331Y-119293796D01*
X137207546Y-119207546D01*
X137293796Y-119092331D01*
X137344091Y-118957483D01*
X137350500Y-118897873D01*
X137350499Y-117102135D01*
X140649500Y-117102135D01*
X140649500Y-118897870D01*
X140649501Y-118897876D01*
X140655908Y-118957483D01*
X140706202Y-119092328D01*
X140706206Y-119092335D01*
X140792452Y-119207544D01*
X140792455Y-119207547D01*
X140907664Y-119293793D01*
X140907671Y-119293797D01*
X141042517Y-119344091D01*
X141042516Y-119344091D01*
X141049444Y-119344835D01*
X141102127Y-119350500D01*
X142897872Y-119350499D01*
X142957483Y-119344091D01*
X143092331Y-119293796D01*
X143207546Y-119207546D01*
X143293796Y-119092331D01*
X143344091Y-118957483D01*
X143350500Y-118897873D01*
X143350499Y-117989711D01*
X143350499Y-117102129D01*
X143350498Y-117102123D01*
X143350497Y-117102116D01*
X143344091Y-117042517D01*
X143298701Y-116920821D01*
X143293797Y-116907671D01*
X143293793Y-116907664D01*
X143207547Y-116792455D01*
X143207544Y-116792452D01*
X143092335Y-116706206D01*
X143092328Y-116706202D01*
X142957482Y-116655908D01*
X142957483Y-116655908D01*
X142897883Y-116649501D01*
X142897881Y-116649500D01*
X142897873Y-116649500D01*
X142897864Y-116649500D01*
X141102129Y-116649500D01*
X141102123Y-116649501D01*
X141042516Y-116655908D01*
X140907671Y-116706202D01*
X140907664Y-116706206D01*
X140792455Y-116792452D01*
X140792452Y-116792455D01*
X140706206Y-116907664D01*
X140706202Y-116907671D01*
X140655908Y-117042517D01*
X140653329Y-117066510D01*
X140649501Y-117102123D01*
X140649500Y-117102135D01*
X137350499Y-117102135D01*
X137350499Y-117102128D01*
X137344091Y-117042517D01*
X137298701Y-116920821D01*
X137293797Y-116907671D01*
X137293793Y-116907664D01*
X137207547Y-116792455D01*
X137207544Y-116792452D01*
X137092335Y-116706206D01*
X137092328Y-116706202D01*
X136957482Y-116655908D01*
X136957483Y-116655908D01*
X136897883Y-116649501D01*
X136897881Y-116649500D01*
X136897873Y-116649500D01*
X136897864Y-116649500D01*
X135102129Y-116649500D01*
X135102123Y-116649501D01*
X135042516Y-116655908D01*
X134907671Y-116706202D01*
X134907664Y-116706206D01*
X134792455Y-116792452D01*
X134792452Y-116792455D01*
X134706206Y-116907664D01*
X134706202Y-116907671D01*
X134655908Y-117042517D01*
X134653329Y-117066510D01*
X134649501Y-117102123D01*
X134649500Y-117102135D01*
X115276825Y-117102135D01*
X115269738Y-117066510D01*
X115269737Y-117066503D01*
X115259801Y-117042516D01*
X115209397Y-116920827D01*
X115209390Y-116920814D01*
X115121789Y-116789711D01*
X115121786Y-116789707D01*
X115069760Y-116737681D01*
X115036275Y-116676358D01*
X115041259Y-116606666D01*
X115069760Y-116562319D01*
X115121786Y-116510292D01*
X115121789Y-116510289D01*
X115209394Y-116379179D01*
X115269737Y-116233497D01*
X115300500Y-116078842D01*
X115300500Y-115921158D01*
X115300500Y-115921155D01*
X115300499Y-115921153D01*
X115269738Y-115766510D01*
X115269737Y-115766503D01*
X115269735Y-115766498D01*
X115209397Y-115620827D01*
X115209390Y-115620814D01*
X115121789Y-115489711D01*
X115121786Y-115489707D01*
X115010292Y-115378213D01*
X115010288Y-115378210D01*
X114879185Y-115290609D01*
X114879172Y-115290602D01*
X114733501Y-115230264D01*
X114733489Y-115230261D01*
X114578845Y-115199500D01*
X114578842Y-115199500D01*
X114421158Y-115199500D01*
X114421155Y-115199500D01*
X114266510Y-115230261D01*
X114266498Y-115230264D01*
X114120827Y-115290602D01*
X114120814Y-115290609D01*
X113989711Y-115378210D01*
X113989707Y-115378213D01*
X113878213Y-115489707D01*
X113878210Y-115489711D01*
X113790609Y-115620814D01*
X113790602Y-115620827D01*
X113730264Y-115766498D01*
X113730261Y-115766510D01*
X113699500Y-115921153D01*
X113000500Y-115921153D01*
X113000500Y-111921153D01*
X128699500Y-111921153D01*
X128699500Y-112078846D01*
X128730261Y-112233489D01*
X128730264Y-112233501D01*
X128790602Y-112379172D01*
X128790609Y-112379185D01*
X128878210Y-112510288D01*
X128878213Y-112510292D01*
X128989707Y-112621786D01*
X128989711Y-112621789D01*
X129120814Y-112709390D01*
X129120827Y-112709397D01*
X129258683Y-112766498D01*
X129266503Y-112769737D01*
X129421153Y-112800499D01*
X129421156Y-112800500D01*
X129421158Y-112800500D01*
X129578844Y-112800500D01*
X129578845Y-112800499D01*
X129733497Y-112769737D01*
X129879179Y-112709394D01*
X129931110Y-112674694D01*
X129997785Y-112653816D01*
X130065165Y-112672300D01*
X130068863Y-112674676D01*
X130120821Y-112709394D01*
X130120823Y-112709395D01*
X130120825Y-112709396D01*
X130258683Y-112766498D01*
X130266503Y-112769737D01*
X130421153Y-112800499D01*
X130421156Y-112800500D01*
X130421158Y-112800500D01*
X130578844Y-112800500D01*
X130578845Y-112800499D01*
X130733497Y-112769737D01*
X130879179Y-112709394D01*
X131010289Y-112621789D01*
X131047331Y-112584747D01*
X131108653Y-112551261D01*
X131178345Y-112556245D01*
X131234279Y-112598115D01*
X131258697Y-112663579D01*
X131249575Y-112719878D01*
X131230263Y-112766502D01*
X131230261Y-112766510D01*
X131199500Y-112921153D01*
X131199500Y-113078846D01*
X131230261Y-113233489D01*
X131230264Y-113233501D01*
X131290602Y-113379172D01*
X131290609Y-113379185D01*
X131378210Y-113510288D01*
X131378213Y-113510292D01*
X131489707Y-113621786D01*
X131489711Y-113621789D01*
X131620814Y-113709390D01*
X131620827Y-113709397D01*
X131766498Y-113769735D01*
X131766503Y-113769737D01*
X131921153Y-113800499D01*
X131921156Y-113800500D01*
X131921158Y-113800500D01*
X132078844Y-113800500D01*
X132078845Y-113800499D01*
X132233497Y-113769737D01*
X132379179Y-113709394D01*
X132510289Y-113621789D01*
X132621789Y-113510289D01*
X132709394Y-113379179D01*
X132769737Y-113233497D01*
X132800500Y-113078842D01*
X132800500Y-112921158D01*
X132800500Y-112921155D01*
X132800499Y-112921153D01*
X132776499Y-112800499D01*
X132769737Y-112766503D01*
X132769735Y-112766498D01*
X132709397Y-112620827D01*
X132709390Y-112620814D01*
X132621789Y-112489711D01*
X132621786Y-112489707D01*
X132510292Y-112378213D01*
X132510288Y-112378210D01*
X132424897Y-112321153D01*
X154299500Y-112321153D01*
X154299500Y-112478846D01*
X154330261Y-112633489D01*
X154330264Y-112633501D01*
X154390602Y-112779172D01*
X154390609Y-112779185D01*
X154478210Y-112910288D01*
X154478213Y-112910292D01*
X154480240Y-112912319D01*
X154480962Y-112913642D01*
X154482076Y-112914999D01*
X154481818Y-112915210D01*
X154513725Y-112973642D01*
X154508741Y-113043334D01*
X154482001Y-113084939D01*
X154482076Y-113085001D01*
X154481552Y-113085639D01*
X154480240Y-113087681D01*
X154478213Y-113089707D01*
X154478210Y-113089711D01*
X154390609Y-113220814D01*
X154390602Y-113220827D01*
X154330264Y-113366498D01*
X154330261Y-113366510D01*
X154299500Y-113521153D01*
X154299500Y-113678846D01*
X154330261Y-113833489D01*
X154330264Y-113833501D01*
X154390602Y-113979172D01*
X154390609Y-113979185D01*
X154458713Y-114081109D01*
X154479591Y-114147787D01*
X154461107Y-114215167D01*
X154458713Y-114218891D01*
X154390609Y-114320814D01*
X154390602Y-114320827D01*
X154330264Y-114466498D01*
X154330261Y-114466510D01*
X154299500Y-114621153D01*
X154299500Y-114778846D01*
X154330261Y-114933489D01*
X154330264Y-114933501D01*
X154390602Y-115079172D01*
X154390609Y-115079185D01*
X154478210Y-115210288D01*
X154478213Y-115210292D01*
X154589707Y-115321786D01*
X154589711Y-115321789D01*
X154720814Y-115409390D01*
X154720827Y-115409397D01*
X154866498Y-115469735D01*
X154866503Y-115469737D01*
X155021153Y-115500499D01*
X155021156Y-115500500D01*
X155021158Y-115500500D01*
X155178844Y-115500500D01*
X155178845Y-115500499D01*
X155333497Y-115469737D01*
X155479179Y-115409394D01*
X155610289Y-115321789D01*
X155721789Y-115210289D01*
X155809394Y-115079179D01*
X155869737Y-114933497D01*
X155900500Y-114778842D01*
X155900500Y-114621158D01*
X155900500Y-114621155D01*
X155881915Y-114527724D01*
X155888142Y-114458132D01*
X155931005Y-114402955D01*
X155996895Y-114379710D01*
X156027724Y-114381915D01*
X156121155Y-114400500D01*
X156121158Y-114400500D01*
X156278844Y-114400500D01*
X156278845Y-114400499D01*
X156433497Y-114369737D01*
X156551592Y-114320821D01*
X156579172Y-114309397D01*
X156579172Y-114309396D01*
X156579179Y-114309394D01*
X156710289Y-114221789D01*
X156712312Y-114219766D01*
X156713634Y-114219043D01*
X156714999Y-114217924D01*
X156715211Y-114218182D01*
X156773632Y-114186276D01*
X156843324Y-114191255D01*
X156884939Y-114217999D01*
X156885001Y-114217924D01*
X156885648Y-114218454D01*
X156887688Y-114219766D01*
X156889711Y-114221789D01*
X157020814Y-114309390D01*
X157020827Y-114309397D01*
X157166498Y-114369735D01*
X157166503Y-114369737D01*
X157321153Y-114400499D01*
X157321156Y-114400500D01*
X157321158Y-114400500D01*
X157478844Y-114400500D01*
X157478845Y-114400499D01*
X157633497Y-114369737D01*
X157751592Y-114320821D01*
X157779172Y-114309397D01*
X157779172Y-114309396D01*
X157779179Y-114309394D01*
X157910289Y-114221789D01*
X158021789Y-114110289D01*
X158109394Y-113979179D01*
X158169737Y-113833497D01*
X158200500Y-113678842D01*
X158200500Y-113521158D01*
X158200500Y-113521155D01*
X158200499Y-113521153D01*
X158198338Y-113510288D01*
X158169737Y-113366503D01*
X158169735Y-113366498D01*
X158109397Y-113220827D01*
X158109390Y-113220814D01*
X158021789Y-113089711D01*
X158019766Y-113087688D01*
X158019043Y-113086365D01*
X158017924Y-113085001D01*
X158018182Y-113084788D01*
X157986276Y-113026368D01*
X157991255Y-112956676D01*
X158017999Y-112915060D01*
X158017924Y-112914999D01*
X158018454Y-112914351D01*
X158019766Y-112912312D01*
X158021789Y-112910289D01*
X158109394Y-112779179D01*
X158169737Y-112633497D01*
X158200500Y-112478842D01*
X158200500Y-112321158D01*
X158200500Y-112321155D01*
X158200499Y-112321153D01*
X158182419Y-112230261D01*
X158169737Y-112166503D01*
X158133427Y-112078842D01*
X158109397Y-112020827D01*
X158109390Y-112020814D01*
X158021789Y-111889711D01*
X158021786Y-111889707D01*
X157910292Y-111778213D01*
X157910288Y-111778210D01*
X157779185Y-111690609D01*
X157779172Y-111690602D01*
X157633501Y-111630264D01*
X157633489Y-111630261D01*
X157478845Y-111599500D01*
X157478842Y-111599500D01*
X157321158Y-111599500D01*
X157321155Y-111599500D01*
X157166510Y-111630261D01*
X157166498Y-111630264D01*
X157020827Y-111690602D01*
X157020814Y-111690609D01*
X156889711Y-111778210D01*
X156889707Y-111778213D01*
X156887681Y-111780240D01*
X156886357Y-111780962D01*
X156885001Y-111782076D01*
X156884789Y-111781818D01*
X156826358Y-111813725D01*
X156756666Y-111808741D01*
X156715060Y-111782001D01*
X156714999Y-111782076D01*
X156714360Y-111781552D01*
X156712319Y-111780240D01*
X156710292Y-111778213D01*
X156710288Y-111778210D01*
X156579185Y-111690609D01*
X156579172Y-111690602D01*
X156433501Y-111630264D01*
X156433489Y-111630261D01*
X156278845Y-111599500D01*
X156278842Y-111599500D01*
X156121158Y-111599500D01*
X156121155Y-111599500D01*
X155966510Y-111630261D01*
X155966498Y-111630264D01*
X155820827Y-111690602D01*
X155820814Y-111690609D01*
X155718891Y-111758713D01*
X155652213Y-111779591D01*
X155584833Y-111761107D01*
X155581109Y-111758713D01*
X155479185Y-111690609D01*
X155479172Y-111690602D01*
X155333501Y-111630264D01*
X155333489Y-111630261D01*
X155178845Y-111599500D01*
X155178842Y-111599500D01*
X155021158Y-111599500D01*
X155021155Y-111599500D01*
X154866510Y-111630261D01*
X154866498Y-111630264D01*
X154720827Y-111690602D01*
X154720814Y-111690609D01*
X154589711Y-111778210D01*
X154589707Y-111778213D01*
X154478213Y-111889707D01*
X154478210Y-111889711D01*
X154390609Y-112020814D01*
X154390602Y-112020827D01*
X154330264Y-112166498D01*
X154330261Y-112166510D01*
X154299500Y-112321153D01*
X132424897Y-112321153D01*
X132379185Y-112290609D01*
X132379172Y-112290602D01*
X132233501Y-112230264D01*
X132233489Y-112230261D01*
X132078845Y-112199500D01*
X132078842Y-112199500D01*
X131921158Y-112199500D01*
X131921155Y-112199500D01*
X131766510Y-112230261D01*
X131766498Y-112230264D01*
X131620827Y-112290602D01*
X131620814Y-112290609D01*
X131489711Y-112378210D01*
X131489706Y-112378214D01*
X131452666Y-112415254D01*
X131391343Y-112448739D01*
X131321651Y-112443753D01*
X131265718Y-112401881D01*
X131241302Y-112336417D01*
X131250424Y-112280121D01*
X131269737Y-112233497D01*
X131300500Y-112078842D01*
X131300500Y-111921158D01*
X131300500Y-111921155D01*
X131300499Y-111921153D01*
X131294244Y-111889707D01*
X131269737Y-111766503D01*
X131238298Y-111690602D01*
X131209397Y-111620827D01*
X131209390Y-111620814D01*
X131121789Y-111489711D01*
X131121786Y-111489707D01*
X131010292Y-111378213D01*
X131010288Y-111378210D01*
X130879185Y-111290609D01*
X130879172Y-111290602D01*
X130733501Y-111230264D01*
X130733489Y-111230261D01*
X130578845Y-111199500D01*
X130578842Y-111199500D01*
X130421158Y-111199500D01*
X130421155Y-111199500D01*
X130266510Y-111230261D01*
X130266498Y-111230264D01*
X130120827Y-111290602D01*
X130120814Y-111290609D01*
X130068891Y-111325304D01*
X130002214Y-111346182D01*
X129934833Y-111327698D01*
X129931109Y-111325304D01*
X129879185Y-111290609D01*
X129879172Y-111290602D01*
X129733501Y-111230264D01*
X129733489Y-111230261D01*
X129578845Y-111199500D01*
X129578842Y-111199500D01*
X129421158Y-111199500D01*
X129421155Y-111199500D01*
X129266510Y-111230261D01*
X129266498Y-111230264D01*
X129120827Y-111290602D01*
X129120814Y-111290609D01*
X128989711Y-111378210D01*
X128989707Y-111378213D01*
X128878213Y-111489707D01*
X128878210Y-111489711D01*
X128790609Y-111620814D01*
X128790602Y-111620827D01*
X128730264Y-111766498D01*
X128730261Y-111766510D01*
X128699500Y-111921153D01*
X113000500Y-111921153D01*
X113000500Y-107921153D01*
X128699500Y-107921153D01*
X128699500Y-108078846D01*
X128730261Y-108233489D01*
X128730264Y-108233501D01*
X128790602Y-108379172D01*
X128790609Y-108379185D01*
X128878210Y-108510288D01*
X128878213Y-108510292D01*
X128989707Y-108621786D01*
X128989711Y-108621789D01*
X129120814Y-108709390D01*
X129120827Y-108709397D01*
X129266498Y-108769735D01*
X129266503Y-108769737D01*
X129421153Y-108800499D01*
X129421156Y-108800500D01*
X129421158Y-108800500D01*
X129578844Y-108800500D01*
X129578845Y-108800499D01*
X129733497Y-108769737D01*
X129879179Y-108709394D01*
X129931110Y-108674694D01*
X129997785Y-108653816D01*
X130065165Y-108672300D01*
X130068863Y-108674676D01*
X130120821Y-108709394D01*
X130120823Y-108709395D01*
X130120825Y-108709396D01*
X130266498Y-108769735D01*
X130266503Y-108769737D01*
X130421153Y-108800499D01*
X130421156Y-108800500D01*
X130421158Y-108800500D01*
X130578844Y-108800500D01*
X130578845Y-108800499D01*
X130733497Y-108769737D01*
X130879179Y-108709394D01*
X131010289Y-108621789D01*
X131121789Y-108510289D01*
X131209394Y-108379179D01*
X131269737Y-108233497D01*
X131300500Y-108078842D01*
X131300500Y-107921158D01*
X131300500Y-107921155D01*
X131300499Y-107921153D01*
X131269738Y-107766510D01*
X131269737Y-107766503D01*
X131269735Y-107766498D01*
X131219931Y-107646258D01*
X131209395Y-107620824D01*
X131209394Y-107620821D01*
X131209392Y-107620818D01*
X131209390Y-107620814D01*
X131196909Y-107602135D01*
X135649500Y-107602135D01*
X135649500Y-109397870D01*
X135649501Y-109397876D01*
X135655908Y-109457483D01*
X135706202Y-109592328D01*
X135706206Y-109592335D01*
X135792452Y-109707544D01*
X135792455Y-109707547D01*
X135907664Y-109793793D01*
X135907671Y-109793797D01*
X136042517Y-109844091D01*
X136042516Y-109844091D01*
X136049444Y-109844835D01*
X136102127Y-109850500D01*
X137897872Y-109850499D01*
X137957483Y-109844091D01*
X138092331Y-109793796D01*
X138207546Y-109707546D01*
X138293796Y-109592331D01*
X138344091Y-109457483D01*
X138350500Y-109397873D01*
X138350499Y-107602128D01*
X138344091Y-107542517D01*
X138293796Y-107407669D01*
X138293795Y-107407668D01*
X138293793Y-107407664D01*
X138207547Y-107292455D01*
X138207544Y-107292452D01*
X138092335Y-107206206D01*
X138092328Y-107206202D01*
X137957482Y-107155908D01*
X137957483Y-107155908D01*
X137897883Y-107149501D01*
X137897881Y-107149500D01*
X137897873Y-107149500D01*
X137897864Y-107149500D01*
X136102129Y-107149500D01*
X136102123Y-107149501D01*
X136042516Y-107155908D01*
X135907671Y-107206202D01*
X135907664Y-107206206D01*
X135792455Y-107292452D01*
X135792452Y-107292455D01*
X135706206Y-107407664D01*
X135706202Y-107407671D01*
X135655908Y-107542517D01*
X135649501Y-107602116D01*
X135649501Y-107602123D01*
X135649500Y-107602135D01*
X131196909Y-107602135D01*
X131121789Y-107489711D01*
X131121786Y-107489707D01*
X131010292Y-107378213D01*
X131010288Y-107378210D01*
X130879185Y-107290609D01*
X130879172Y-107290602D01*
X130733501Y-107230264D01*
X130733489Y-107230261D01*
X130578845Y-107199500D01*
X130578842Y-107199500D01*
X130421158Y-107199500D01*
X130421155Y-107199500D01*
X130266510Y-107230261D01*
X130266498Y-107230264D01*
X130120827Y-107290602D01*
X130120814Y-107290609D01*
X130068891Y-107325304D01*
X130002214Y-107346182D01*
X129934833Y-107327698D01*
X129931109Y-107325304D01*
X129879185Y-107290609D01*
X129879172Y-107290602D01*
X129733501Y-107230264D01*
X129733489Y-107230261D01*
X129578845Y-107199500D01*
X129578842Y-107199500D01*
X129421158Y-107199500D01*
X129421155Y-107199500D01*
X129266510Y-107230261D01*
X129266498Y-107230264D01*
X129120827Y-107290602D01*
X129120814Y-107290609D01*
X128989711Y-107378210D01*
X128989707Y-107378213D01*
X128878213Y-107489707D01*
X128878210Y-107489711D01*
X128790609Y-107620814D01*
X128790602Y-107620827D01*
X128730264Y-107766498D01*
X128730261Y-107766510D01*
X128699500Y-107921153D01*
X113000500Y-107921153D01*
X113000500Y-89994108D01*
X120229500Y-89994108D01*
X120229500Y-96645891D01*
X120263608Y-96773187D01*
X120273284Y-96789946D01*
X120329500Y-96887314D01*
X120422686Y-96980500D01*
X120536814Y-97046392D01*
X120664108Y-97080500D01*
X120664110Y-97080500D01*
X127825890Y-97080500D01*
X127825892Y-97080500D01*
X127953186Y-97046392D01*
X128067314Y-96980500D01*
X128160500Y-96887314D01*
X128179101Y-96855096D01*
X137199500Y-96855096D01*
X137199500Y-98055114D01*
X137199501Y-98055131D01*
X137210000Y-98157909D01*
X137210001Y-98157912D01*
X137265185Y-98324444D01*
X137265186Y-98324447D01*
X137357288Y-98473769D01*
X137481344Y-98597825D01*
X137630666Y-98689927D01*
X137797203Y-98745112D01*
X137899991Y-98755613D01*
X139100008Y-98755612D01*
X139202797Y-98745112D01*
X139369334Y-98689927D01*
X139518656Y-98597825D01*
X139642712Y-98473769D01*
X139734814Y-98324447D01*
X139789999Y-98157910D01*
X139800500Y-98055122D01*
X139800499Y-96855105D01*
X139789999Y-96752316D01*
X139734814Y-96585779D01*
X139642712Y-96436457D01*
X139573488Y-96367233D01*
X139540003Y-96305910D01*
X139544987Y-96236218D01*
X139560852Y-96206665D01*
X139611858Y-96136462D01*
X139611863Y-96136454D01*
X139704755Y-95954144D01*
X139767990Y-95759530D01*
X139800000Y-95557430D01*
X139800000Y-95352795D01*
X139767990Y-95150695D01*
X139704755Y-94956081D01*
X139611859Y-94773763D01*
X139579474Y-94729190D01*
X139579474Y-94729189D01*
X138900000Y-95408664D01*
X138900000Y-95402452D01*
X138872741Y-95300719D01*
X138820080Y-95209507D01*
X138745606Y-95135033D01*
X138654394Y-95082372D01*
X138552661Y-95055113D01*
X138546446Y-95055113D01*
X139225922Y-94375637D01*
X139225921Y-94375636D01*
X139181359Y-94343260D01*
X139181350Y-94343254D01*
X138999031Y-94250357D01*
X138804417Y-94187122D01*
X138602317Y-94155113D01*
X138397683Y-94155113D01*
X138195582Y-94187122D01*
X138000968Y-94250357D01*
X137818644Y-94343256D01*
X137774077Y-94375636D01*
X137774077Y-94375637D01*
X138453554Y-95055113D01*
X138447339Y-95055113D01*
X138345606Y-95082372D01*
X138254394Y-95135033D01*
X138179920Y-95209507D01*
X138127259Y-95300719D01*
X138100000Y-95402452D01*
X138100000Y-95408666D01*
X137420524Y-94729190D01*
X137420523Y-94729190D01*
X137388143Y-94773757D01*
X137295244Y-94956081D01*
X137232009Y-95150695D01*
X137200000Y-95352795D01*
X137200000Y-95557430D01*
X137232009Y-95759530D01*
X137295244Y-95954144D01*
X137388142Y-96136465D01*
X137439147Y-96206668D01*
X137462627Y-96272474D01*
X137446802Y-96340528D01*
X137426511Y-96367234D01*
X137357287Y-96436458D01*
X137265187Y-96585776D01*
X137265186Y-96585779D01*
X137210001Y-96752316D01*
X137210001Y-96752317D01*
X137210000Y-96752317D01*
X137199500Y-96855096D01*
X128179101Y-96855096D01*
X128226392Y-96773186D01*
X128260500Y-96645892D01*
X128260500Y-90221153D01*
X153199500Y-90221153D01*
X153199500Y-90378846D01*
X153230261Y-90533489D01*
X153230264Y-90533501D01*
X153290602Y-90679172D01*
X153290609Y-90679185D01*
X153325304Y-90731109D01*
X153346182Y-90797786D01*
X153327698Y-90865167D01*
X153325304Y-90868891D01*
X153290609Y-90920814D01*
X153290602Y-90920827D01*
X153230264Y-91066498D01*
X153230261Y-91066510D01*
X153199500Y-91221153D01*
X153199500Y-91378846D01*
X153230261Y-91533489D01*
X153230264Y-91533501D01*
X153290602Y-91679172D01*
X153290609Y-91679185D01*
X153325304Y-91731109D01*
X153346182Y-91797786D01*
X153327698Y-91865167D01*
X153325304Y-91868891D01*
X153290609Y-91920814D01*
X153290602Y-91920827D01*
X153230264Y-92066498D01*
X153230261Y-92066510D01*
X153199500Y-92221153D01*
X153199500Y-92378846D01*
X153230261Y-92533489D01*
X153230264Y-92533501D01*
X153290602Y-92679172D01*
X153290609Y-92679185D01*
X153325304Y-92731109D01*
X153346182Y-92797786D01*
X153327698Y-92865167D01*
X153325304Y-92868891D01*
X153290609Y-92920814D01*
X153290602Y-92920827D01*
X153230264Y-93066498D01*
X153230261Y-93066510D01*
X153199500Y-93221153D01*
X153199500Y-93378846D01*
X153230261Y-93533489D01*
X153230264Y-93533501D01*
X153290602Y-93679172D01*
X153290609Y-93679185D01*
X153325304Y-93731109D01*
X153346182Y-93797786D01*
X153327698Y-93865167D01*
X153325304Y-93868891D01*
X153290609Y-93920814D01*
X153290602Y-93920827D01*
X153230264Y-94066498D01*
X153230261Y-94066510D01*
X153199500Y-94221153D01*
X153199500Y-94378846D01*
X153230261Y-94533489D01*
X153230264Y-94533501D01*
X153290602Y-94679172D01*
X153290609Y-94679185D01*
X153378210Y-94810288D01*
X153378213Y-94810292D01*
X153489707Y-94921786D01*
X153489711Y-94921789D01*
X153620814Y-95009390D01*
X153620827Y-95009397D01*
X153731197Y-95055113D01*
X153766503Y-95069737D01*
X153921153Y-95100499D01*
X153921156Y-95100500D01*
X153921158Y-95100500D01*
X154078844Y-95100500D01*
X154078845Y-95100499D01*
X154233497Y-95069737D01*
X154379179Y-95009394D01*
X154510289Y-94921789D01*
X154621789Y-94810289D01*
X154709394Y-94679179D01*
X154769737Y-94533497D01*
X154800500Y-94378842D01*
X154800500Y-94221158D01*
X154800500Y-94221155D01*
X154800499Y-94221153D01*
X154769738Y-94066510D01*
X154769737Y-94066503D01*
X154769735Y-94066498D01*
X154709396Y-93920825D01*
X154709394Y-93920822D01*
X154709394Y-93920821D01*
X154674694Y-93868889D01*
X154653816Y-93802215D01*
X154672300Y-93734835D01*
X154674676Y-93731136D01*
X154709394Y-93679179D01*
X154769737Y-93533497D01*
X154800500Y-93378842D01*
X154800500Y-93221158D01*
X154800500Y-93221155D01*
X154800499Y-93221153D01*
X154769738Y-93066510D01*
X154769737Y-93066503D01*
X154769735Y-93066498D01*
X154709396Y-92920825D01*
X154709394Y-92920822D01*
X154709394Y-92920821D01*
X154674694Y-92868889D01*
X154653816Y-92802215D01*
X154672300Y-92734835D01*
X154674676Y-92731136D01*
X154709394Y-92679179D01*
X154769737Y-92533497D01*
X154800500Y-92378842D01*
X154800500Y-92221158D01*
X154800500Y-92221155D01*
X154800499Y-92221153D01*
X154769738Y-92066510D01*
X154769737Y-92066503D01*
X154769735Y-92066498D01*
X154709396Y-91920825D01*
X154709394Y-91920822D01*
X154709394Y-91920821D01*
X154674694Y-91868889D01*
X154653816Y-91802215D01*
X154672300Y-91734835D01*
X154674676Y-91731136D01*
X154709394Y-91679179D01*
X154769737Y-91533497D01*
X154800500Y-91378842D01*
X154800500Y-91221158D01*
X154800500Y-91221155D01*
X154800499Y-91221153D01*
X154769738Y-91066510D01*
X154769737Y-91066503D01*
X154769735Y-91066498D01*
X154709396Y-90920825D01*
X154709394Y-90920822D01*
X154709394Y-90920821D01*
X154674694Y-90868889D01*
X154653816Y-90802215D01*
X154672300Y-90734835D01*
X154674676Y-90731136D01*
X154709394Y-90679179D01*
X154769737Y-90533497D01*
X154800500Y-90378842D01*
X154800500Y-90221158D01*
X154800500Y-90221155D01*
X154800499Y-90221153D01*
X157199500Y-90221153D01*
X157199500Y-90378846D01*
X157230261Y-90533489D01*
X157230264Y-90533501D01*
X157290602Y-90679172D01*
X157290609Y-90679185D01*
X157325304Y-90731109D01*
X157346182Y-90797786D01*
X157327698Y-90865167D01*
X157325304Y-90868891D01*
X157290609Y-90920814D01*
X157290602Y-90920827D01*
X157230264Y-91066498D01*
X157230261Y-91066510D01*
X157199500Y-91221153D01*
X157199500Y-91378846D01*
X157230261Y-91533489D01*
X157230264Y-91533501D01*
X157290602Y-91679172D01*
X157290609Y-91679185D01*
X157325304Y-91731109D01*
X157346182Y-91797786D01*
X157327698Y-91865167D01*
X157325304Y-91868891D01*
X157290609Y-91920814D01*
X157290602Y-91920827D01*
X157230264Y-92066498D01*
X157230261Y-92066510D01*
X157199500Y-92221153D01*
X157199500Y-92378846D01*
X157230261Y-92533489D01*
X157230264Y-92533501D01*
X157290602Y-92679172D01*
X157290609Y-92679185D01*
X157325304Y-92731109D01*
X157346182Y-92797786D01*
X157327698Y-92865167D01*
X157325304Y-92868891D01*
X157290609Y-92920814D01*
X157290602Y-92920827D01*
X157230264Y-93066498D01*
X157230261Y-93066510D01*
X157199500Y-93221153D01*
X157199500Y-93378846D01*
X157230261Y-93533489D01*
X157230264Y-93533501D01*
X157290602Y-93679172D01*
X157290609Y-93679185D01*
X157325304Y-93731109D01*
X157346182Y-93797786D01*
X157327698Y-93865167D01*
X157325304Y-93868891D01*
X157290609Y-93920814D01*
X157290602Y-93920827D01*
X157230264Y-94066498D01*
X157230261Y-94066510D01*
X157199500Y-94221153D01*
X157199500Y-94378846D01*
X157230261Y-94533489D01*
X157230264Y-94533501D01*
X157290602Y-94679172D01*
X157290609Y-94679185D01*
X157378210Y-94810288D01*
X157378213Y-94810292D01*
X157489707Y-94921786D01*
X157489711Y-94921789D01*
X157620814Y-95009390D01*
X157620827Y-95009397D01*
X157731197Y-95055113D01*
X157766503Y-95069737D01*
X157921153Y-95100499D01*
X157921156Y-95100500D01*
X157921158Y-95100500D01*
X158078844Y-95100500D01*
X158078845Y-95100499D01*
X158233497Y-95069737D01*
X158379179Y-95009394D01*
X158510289Y-94921789D01*
X158621789Y-94810289D01*
X158709394Y-94679179D01*
X158769737Y-94533497D01*
X158800500Y-94378842D01*
X158800500Y-94221158D01*
X158800500Y-94221155D01*
X158800499Y-94221153D01*
X158769738Y-94066510D01*
X158769737Y-94066503D01*
X158769735Y-94066498D01*
X158709396Y-93920825D01*
X158709394Y-93920822D01*
X158709394Y-93920821D01*
X158674694Y-93868889D01*
X158653816Y-93802215D01*
X158672300Y-93734835D01*
X158674676Y-93731136D01*
X158709394Y-93679179D01*
X158769737Y-93533497D01*
X158800500Y-93378842D01*
X158800500Y-93221158D01*
X158800500Y-93221155D01*
X158800499Y-93221153D01*
X158769738Y-93066510D01*
X158769737Y-93066503D01*
X158769735Y-93066498D01*
X158709396Y-92920825D01*
X158709394Y-92920822D01*
X158709394Y-92920821D01*
X158674694Y-92868889D01*
X158653816Y-92802215D01*
X158672300Y-92734835D01*
X158674676Y-92731136D01*
X158709394Y-92679179D01*
X158769737Y-92533497D01*
X158800500Y-92378842D01*
X158800500Y-92221158D01*
X158800500Y-92221155D01*
X158800499Y-92221153D01*
X158769738Y-92066510D01*
X158769737Y-92066503D01*
X158769735Y-92066498D01*
X158709396Y-91920825D01*
X158709394Y-91920822D01*
X158709394Y-91920821D01*
X158674694Y-91868889D01*
X158653816Y-91802215D01*
X158672300Y-91734835D01*
X158674676Y-91731136D01*
X158709394Y-91679179D01*
X158769737Y-91533497D01*
X158800500Y-91378842D01*
X158800500Y-91221158D01*
X158800500Y-91221155D01*
X158800499Y-91221153D01*
X158769738Y-91066510D01*
X158769737Y-91066503D01*
X158769735Y-91066498D01*
X158709396Y-90920825D01*
X158709394Y-90920822D01*
X158709394Y-90920821D01*
X158674694Y-90868889D01*
X158653816Y-90802215D01*
X158672300Y-90734835D01*
X158674676Y-90731136D01*
X158709394Y-90679179D01*
X158769737Y-90533497D01*
X158800500Y-90378842D01*
X158800500Y-90221158D01*
X158800500Y-90221155D01*
X158800499Y-90221153D01*
X158769738Y-90066510D01*
X158769737Y-90066503D01*
X158739751Y-89994110D01*
X158709397Y-89920827D01*
X158709390Y-89920814D01*
X158621789Y-89789711D01*
X158621786Y-89789707D01*
X158510292Y-89678213D01*
X158510288Y-89678210D01*
X158379185Y-89590609D01*
X158379172Y-89590602D01*
X158233501Y-89530264D01*
X158233489Y-89530261D01*
X158078845Y-89499500D01*
X158078842Y-89499500D01*
X157921158Y-89499500D01*
X157921155Y-89499500D01*
X157766510Y-89530261D01*
X157766498Y-89530264D01*
X157620827Y-89590602D01*
X157620814Y-89590609D01*
X157489711Y-89678210D01*
X157489707Y-89678213D01*
X157378213Y-89789707D01*
X157378210Y-89789711D01*
X157290609Y-89920814D01*
X157290602Y-89920827D01*
X157230264Y-90066498D01*
X157230261Y-90066510D01*
X157199500Y-90221153D01*
X154800499Y-90221153D01*
X154769738Y-90066510D01*
X154769737Y-90066503D01*
X154739751Y-89994110D01*
X154709397Y-89920827D01*
X154709390Y-89920814D01*
X154621789Y-89789711D01*
X154621786Y-89789707D01*
X154510292Y-89678213D01*
X154510288Y-89678210D01*
X154379185Y-89590609D01*
X154379172Y-89590602D01*
X154233501Y-89530264D01*
X154233489Y-89530261D01*
X154078845Y-89499500D01*
X154078842Y-89499500D01*
X153921158Y-89499500D01*
X153921155Y-89499500D01*
X153766510Y-89530261D01*
X153766498Y-89530264D01*
X153620827Y-89590602D01*
X153620814Y-89590609D01*
X153489711Y-89678210D01*
X153489707Y-89678213D01*
X153378213Y-89789707D01*
X153378210Y-89789711D01*
X153290609Y-89920814D01*
X153290602Y-89920827D01*
X153230264Y-90066498D01*
X153230261Y-90066510D01*
X153199500Y-90221153D01*
X128260500Y-90221153D01*
X128260500Y-89994108D01*
X128226392Y-89866814D01*
X128160500Y-89752686D01*
X128067314Y-89659500D01*
X128010250Y-89626554D01*
X127953187Y-89593608D01*
X127889539Y-89576554D01*
X127825892Y-89559500D01*
X120795892Y-89559500D01*
X120664108Y-89559500D01*
X120536812Y-89593608D01*
X120422686Y-89659500D01*
X120422683Y-89659502D01*
X120329502Y-89752683D01*
X120329500Y-89752686D01*
X120263608Y-89866812D01*
X120229500Y-89994108D01*
X113000500Y-89994108D01*
X113000500Y-87721153D01*
X152699500Y-87721153D01*
X152699500Y-87878846D01*
X152730261Y-88033489D01*
X152730264Y-88033501D01*
X152790602Y-88179172D01*
X152790609Y-88179185D01*
X152878210Y-88310288D01*
X152878213Y-88310292D01*
X152989707Y-88421786D01*
X152989711Y-88421789D01*
X153120814Y-88509390D01*
X153120827Y-88509397D01*
X153266498Y-88569735D01*
X153266503Y-88569737D01*
X153421153Y-88600499D01*
X153421156Y-88600500D01*
X153421158Y-88600500D01*
X153578844Y-88600500D01*
X153578845Y-88600499D01*
X153733497Y-88569737D01*
X153879179Y-88509394D01*
X154010289Y-88421789D01*
X154121789Y-88310289D01*
X154209394Y-88179179D01*
X154269737Y-88033497D01*
X154300500Y-87878842D01*
X154300500Y-87721158D01*
X154300500Y-87721155D01*
X154300499Y-87721153D01*
X154269738Y-87566510D01*
X154269737Y-87566503D01*
X154245317Y-87507547D01*
X154209397Y-87420827D01*
X154209390Y-87420814D01*
X154121789Y-87289711D01*
X154121786Y-87289707D01*
X154010292Y-87178213D01*
X154010288Y-87178210D01*
X153879185Y-87090609D01*
X153879172Y-87090602D01*
X153733501Y-87030264D01*
X153733489Y-87030261D01*
X153578845Y-86999500D01*
X153578842Y-86999500D01*
X153421158Y-86999500D01*
X153421155Y-86999500D01*
X153266510Y-87030261D01*
X153266498Y-87030264D01*
X153120827Y-87090602D01*
X153120814Y-87090609D01*
X152989711Y-87178210D01*
X152989707Y-87178213D01*
X152878213Y-87289707D01*
X152878210Y-87289711D01*
X152790609Y-87420814D01*
X152790602Y-87420827D01*
X152730264Y-87566498D01*
X152730261Y-87566510D01*
X152699500Y-87721153D01*
X113000500Y-87721153D01*
X113000500Y-85402135D01*
X146149500Y-85402135D01*
X146149500Y-87197870D01*
X146149501Y-87197876D01*
X146155908Y-87257483D01*
X146206202Y-87392328D01*
X146206206Y-87392335D01*
X146292452Y-87507544D01*
X146292455Y-87507547D01*
X146407664Y-87593793D01*
X146407671Y-87593797D01*
X146542517Y-87644091D01*
X146542516Y-87644091D01*
X146549444Y-87644835D01*
X146602127Y-87650500D01*
X148397872Y-87650499D01*
X148457483Y-87644091D01*
X148458810Y-87643596D01*
X148578690Y-87598884D01*
X148578690Y-87598883D01*
X148592331Y-87593796D01*
X148707546Y-87507546D01*
X148793796Y-87392331D01*
X148844091Y-87257483D01*
X148850500Y-87197873D01*
X148850499Y-86234174D01*
X148850499Y-85402155D01*
X155150000Y-85402155D01*
X155150000Y-86050000D01*
X156066988Y-86050000D01*
X156034075Y-86107007D01*
X156000000Y-86234174D01*
X156000000Y-86365826D01*
X156034075Y-86492993D01*
X156066988Y-86550000D01*
X155150000Y-86550000D01*
X155150000Y-87197844D01*
X155156401Y-87257372D01*
X155156403Y-87257379D01*
X155206645Y-87392086D01*
X155206649Y-87392093D01*
X155292809Y-87507187D01*
X155292812Y-87507190D01*
X155407906Y-87593350D01*
X155407913Y-87593354D01*
X155542620Y-87643596D01*
X155542627Y-87643598D01*
X155602155Y-87649999D01*
X155602172Y-87650000D01*
X156250000Y-87650000D01*
X156250000Y-86733012D01*
X156307007Y-86765925D01*
X156434174Y-86800000D01*
X156565826Y-86800000D01*
X156692993Y-86765925D01*
X156750000Y-86733012D01*
X156750000Y-87650000D01*
X157397828Y-87650000D01*
X157397844Y-87649999D01*
X157457372Y-87643598D01*
X157457379Y-87643596D01*
X157592086Y-87593354D01*
X157592093Y-87593350D01*
X157707187Y-87507190D01*
X157707190Y-87507187D01*
X157793350Y-87392093D01*
X157793354Y-87392086D01*
X157843596Y-87257379D01*
X157843598Y-87257372D01*
X157849999Y-87197844D01*
X157850000Y-87197827D01*
X157850000Y-86550000D01*
X156933012Y-86550000D01*
X156965925Y-86492993D01*
X157000000Y-86365826D01*
X157000000Y-86234174D01*
X156965925Y-86107007D01*
X156933012Y-86050000D01*
X157850000Y-86050000D01*
X157850000Y-85402172D01*
X157849999Y-85402155D01*
X157843598Y-85342627D01*
X157843596Y-85342620D01*
X157793354Y-85207913D01*
X157793350Y-85207906D01*
X157707190Y-85092812D01*
X157707187Y-85092809D01*
X157592093Y-85006649D01*
X157592086Y-85006645D01*
X157457379Y-84956403D01*
X157457372Y-84956401D01*
X157397844Y-84950000D01*
X156750000Y-84950000D01*
X156750000Y-85866988D01*
X156692993Y-85834075D01*
X156565826Y-85800000D01*
X156434174Y-85800000D01*
X156307007Y-85834075D01*
X156250000Y-85866988D01*
X156250000Y-84950000D01*
X155602155Y-84950000D01*
X155542627Y-84956401D01*
X155542620Y-84956403D01*
X155407913Y-85006645D01*
X155407906Y-85006649D01*
X155292812Y-85092809D01*
X155292809Y-85092812D01*
X155206649Y-85207906D01*
X155206645Y-85207913D01*
X155156403Y-85342620D01*
X155156401Y-85342627D01*
X155150000Y-85402155D01*
X148850499Y-85402155D01*
X148850499Y-85402129D01*
X148850498Y-85402123D01*
X148850497Y-85402116D01*
X148844091Y-85342517D01*
X148793884Y-85207906D01*
X148793797Y-85207671D01*
X148793793Y-85207664D01*
X148707547Y-85092455D01*
X148707544Y-85092452D01*
X148592335Y-85006206D01*
X148592328Y-85006202D01*
X148457482Y-84955908D01*
X148457483Y-84955908D01*
X148397883Y-84949501D01*
X148397881Y-84949500D01*
X148397873Y-84949500D01*
X148397864Y-84949500D01*
X146602129Y-84949500D01*
X146602123Y-84949501D01*
X146542516Y-84955908D01*
X146407671Y-85006202D01*
X146407664Y-85006206D01*
X146292455Y-85092452D01*
X146292452Y-85092455D01*
X146206206Y-85207664D01*
X146206202Y-85207671D01*
X146155908Y-85342517D01*
X146149501Y-85402116D01*
X146149501Y-85402123D01*
X146149500Y-85402135D01*
X113000500Y-85402135D01*
X113000500Y-80921153D01*
X135499500Y-80921153D01*
X135499500Y-81078846D01*
X135530261Y-81233489D01*
X135530264Y-81233501D01*
X135590602Y-81379172D01*
X135590609Y-81379185D01*
X135678210Y-81510288D01*
X135678213Y-81510292D01*
X135789707Y-81621786D01*
X135789711Y-81621789D01*
X135920814Y-81709390D01*
X135920827Y-81709397D01*
X136066498Y-81769735D01*
X136066503Y-81769737D01*
X136221153Y-81800499D01*
X136221156Y-81800500D01*
X136221158Y-81800500D01*
X136378844Y-81800500D01*
X136378845Y-81800499D01*
X136533497Y-81769737D01*
X136679179Y-81709394D01*
X136810289Y-81621789D01*
X136921789Y-81510289D01*
X137009394Y-81379179D01*
X137069737Y-81233497D01*
X137100500Y-81078842D01*
X137100500Y-80921158D01*
X137100500Y-80921155D01*
X137100499Y-80921153D01*
X137069738Y-80766510D01*
X137069737Y-80766503D01*
X137069735Y-80766498D01*
X137009397Y-80620827D01*
X137009390Y-80620814D01*
X136921789Y-80489711D01*
X136921786Y-80489707D01*
X136810292Y-80378213D01*
X136810288Y-80378210D01*
X136679185Y-80290609D01*
X136679172Y-80290602D01*
X136533501Y-80230264D01*
X136533489Y-80230261D01*
X136378845Y-80199500D01*
X136378842Y-80199500D01*
X136221158Y-80199500D01*
X136221155Y-80199500D01*
X136066510Y-80230261D01*
X136066498Y-80230264D01*
X135920827Y-80290602D01*
X135920814Y-80290609D01*
X135789711Y-80378210D01*
X135789707Y-80378213D01*
X135678213Y-80489707D01*
X135678210Y-80489711D01*
X135590609Y-80620814D01*
X135590602Y-80620827D01*
X135530264Y-80766498D01*
X135530261Y-80766510D01*
X135499500Y-80921153D01*
X113000500Y-80921153D01*
X113000500Y-77004427D01*
X113000816Y-76995581D01*
X113015130Y-76795443D01*
X113015131Y-76795442D01*
X113015130Y-76795436D01*
X113017646Y-76777938D01*
X113059356Y-76586200D01*
X113064335Y-76569242D01*
X113132911Y-76385382D01*
X113140251Y-76369310D01*
X113234294Y-76197083D01*
X113243850Y-76182214D01*
X113361443Y-76025128D01*
X113373017Y-76011771D01*
X113511771Y-75873017D01*
X113525128Y-75861443D01*
X113682214Y-75743850D01*
X113697083Y-75734294D01*
X113869310Y-75640251D01*
X113885382Y-75632911D01*
X114069242Y-75564335D01*
X114086200Y-75559356D01*
X114277938Y-75517646D01*
X114295436Y-75515130D01*
X114495582Y-75500816D01*
X114504428Y-75500500D01*
X114565892Y-75500500D01*
X157934108Y-75500500D01*
X157995572Y-75500500D01*
X158004418Y-75500816D01*
G37*
%TD.AperFunction*%
%TD*%
M02*
