%TF.GenerationSoftware,KiCad,Pcbnew,10.0.6*%
%TF.CreationDate,2026-10-06T13:55:22-04:00*%
%TF.ProjectId,E103-RTL8812CU-Breakout-Board,45313033-2d52-4544-9c38-38313243552d,rev?*%
%TF.SameCoordinates,Original*%
%TF.FileFunction,Soldermask,Top*%
%TF.FilePolarity,Negative*%
%FSLAX46Y46*%
G04 Gerber Fmt 4.6, Leading zero omitted, Abs format (unit mm)*
G04 Created by KiCad (PCBNEW 10.0.6) date 2026-10-06 13:55:22*
%MOMM*%
%LPD*%
G01*
G04 APERTURE LIST*
G04 Aperture macros list*
%AMRoundRect*
0 Rectangle with rounded corners*
0 $1 Rounding radius*
0 $2 $3 $4 $5 $6 $7 $8 $9 X,Y pos of 4 corners*
0 Add a 4 corners polygon primitive as box body*
4,1,4,$2,$3,$4,$5,$6,$7,$8,$9,$2,$3,0*
0 Add four circle primitives for the rounded corners*
1,1,$1+$1,$2,$3*
1,1,$1+$1,$4,$5*
1,1,$1+$1,$6,$7*
1,1,$1+$1,$8,$9*
0 Add four rect primitives between the rounded corners*
20,1,$1+$1,$2,$3,$4,$5,0*
20,1,$1+$1,$4,$5,$6,$7,0*
20,1,$1+$1,$6,$7,$8,$9,0*
20,1,$1+$1,$8,$9,$2,$3,0*%
G04 Aperture macros list end*
%ADD10C,0.650000*%
%ADD11RoundRect,0.150000X-0.150000X-0.425000X0.150000X-0.425000X0.150000X0.425000X-0.150000X0.425000X0*%
%ADD12RoundRect,0.075000X-0.075000X-0.500000X0.075000X-0.500000X0.075000X0.500000X-0.075000X0.500000X0*%
%ADD13O,1.000000X2.100000*%
%ADD14O,1.000000X1.800000*%
%ADD15R,1.700000X1.700000*%
%ADD16RoundRect,0.135000X-0.185000X0.135000X-0.185000X-0.135000X0.185000X-0.135000X0.185000X0.135000X0*%
%ADD17RoundRect,0.250000X-0.262500X-0.450000X0.262500X-0.450000X0.262500X0.450000X-0.262500X0.450000X0*%
%ADD18RoundRect,0.250000X0.337500X0.475000X-0.337500X0.475000X-0.337500X-0.475000X0.337500X-0.475000X0*%
%ADD19RoundRect,0.250000X-0.337500X-0.475000X0.337500X-0.475000X0.337500X0.475000X-0.337500X0.475000X0*%
%ADD20RoundRect,0.381000X0.889000X2.119000X-0.889000X2.119000X-0.889000X-2.119000X0.889000X-2.119000X0*%
%ADD21RoundRect,0.250000X0.550000X-0.550000X0.550000X0.550000X-0.550000X0.550000X-0.550000X-0.550000X0*%
%ADD22C,1.600000*%
%ADD23RoundRect,0.250000X-0.900000X1.500000X-0.900000X-1.500000X0.900000X-1.500000X0.900000X1.500000X0*%
%ADD24RoundRect,0.250000X0.475000X-0.337500X0.475000X0.337500X-0.475000X0.337500X-0.475000X-0.337500X0*%
%ADD25RoundRect,0.250000X-0.475000X0.337500X-0.475000X-0.337500X0.475000X-0.337500X0.475000X0.337500X0*%
%ADD26RoundRect,0.135000X-0.315000X-1.115000X0.315000X-1.115000X0.315000X1.115000X-0.315000X1.115000X0*%
%ADD27RoundRect,0.225000X-0.525000X-1.275000X0.525000X-1.275000X0.525000X1.275000X-0.525000X1.275000X0*%
G04 APERTURE END LIST*
D10*
%TO.C,J2*%
X124110000Y-119395000D03*
X129890000Y-119395000D03*
D11*
X123800000Y-118320000D03*
X124600000Y-118320000D03*
D12*
X125750000Y-118320000D03*
X126750000Y-118320000D03*
X127250000Y-118320000D03*
X128250000Y-118320000D03*
D11*
X129400000Y-118320000D03*
X130200000Y-118320000D03*
X130200000Y-118320000D03*
X129400000Y-118320000D03*
D12*
X128750000Y-118320000D03*
X127750000Y-118320000D03*
X126250000Y-118320000D03*
X125250000Y-118320000D03*
D11*
X124600000Y-118320000D03*
X123800000Y-118320000D03*
D13*
X122680000Y-118895000D03*
D14*
X122680000Y-123075000D03*
D13*
X131320000Y-118895000D03*
D14*
X131320000Y-123075000D03*
%TD*%
D15*
%TO.C,TP7*%
X137000000Y-108500000D03*
%TD*%
D16*
%TO.C,R4*%
X129500000Y-113890000D03*
X129500000Y-114910000D03*
%TD*%
D17*
%TO.C,R2*%
X121087500Y-116000000D03*
X122912500Y-116000000D03*
%TD*%
D18*
%TO.C,C2*%
X153037500Y-86300000D03*
X150962500Y-86300000D03*
%TD*%
D16*
%TO.C,R3*%
X125000000Y-113490000D03*
X125000000Y-114510000D03*
%TD*%
D19*
%TO.C,C3*%
X132962500Y-113000000D03*
X135037500Y-113000000D03*
%TD*%
D15*
%TO.C,TP6*%
X156500000Y-86300000D03*
%TD*%
D20*
%TO.C,U1*%
X156000000Y-109300000D03*
X156000000Y-92300000D03*
X148000000Y-92300000D03*
X148000000Y-109300000D03*
%TD*%
D21*
%TO.C,C5*%
X138500000Y-97455113D03*
D22*
X138500000Y-95455113D03*
%TD*%
D15*
%TO.C,TP5*%
X147500000Y-86300000D03*
%TD*%
D23*
%TO.C,D1*%
X116500000Y-117300000D03*
X116500000Y-122700000D03*
%TD*%
D24*
%TO.C,C4*%
X136305000Y-79732500D03*
X136305000Y-77657500D03*
%TD*%
D21*
%TO.C,C6*%
X150000000Y-121455112D03*
D22*
X150000000Y-119455112D03*
%TD*%
D25*
%TO.C,C1*%
X157000000Y-114762500D03*
X157000000Y-116837500D03*
%TD*%
D26*
%TO.C,U2*%
X129700000Y-78000000D03*
X128200000Y-78000000D03*
X126700000Y-78000000D03*
D27*
X125000000Y-78000000D03*
X123000000Y-78000000D03*
D26*
X121300000Y-78000000D03*
X119800000Y-78000000D03*
X118300000Y-78000000D03*
D27*
X116000000Y-110000000D03*
X118000000Y-110000000D03*
X120000000Y-110000000D03*
X122000000Y-110000000D03*
X124000000Y-110000000D03*
X126000000Y-110000000D03*
X128000000Y-110000000D03*
X130000000Y-110000000D03*
X132000000Y-110000000D03*
%TD*%
D15*
%TO.C,TP3*%
X136000000Y-123500000D03*
%TD*%
%TO.C,TP1*%
X142000000Y-118000000D03*
%TD*%
%TO.C,TP4*%
X142000000Y-123500000D03*
%TD*%
%TO.C,TP2*%
X136000000Y-118000000D03*
%TD*%
M02*
